<?xml version="1.0" encoding="utf-8"?>
<!-- Generator: Adobe Illustrator 17.0.0, SVG Export Plug-In . SVG Version: 6.00 Build 0)  -->
<!DOCTYPE svg PUBLIC "-//W3C//DTD SVG 1.0//EN" "http://www.w3.org/TR/2001/REC-SVG-20010904/DTD/svg10.dtd">
<svg version="1.0" id="Layer_1" xmlns="http://www.w3.org/2000/svg" xmlns:xlink="http://www.w3.org/1999/xlink" x="0px" y="0px"
	 width="40px" height="35px" viewBox="0 0 40 35" enable-background="new 0 0 40 35" xml:space="preserve">
<g>
	<path d="M12.398,29.446c0.539,0,0.977-0.438,0.977-0.977v-6.142c0-0.539-0.438-0.977-0.977-0.977c-0.539,0-0.977,0.438-0.977,0.977
		v6.142C11.421,29.009,11.859,29.446,12.398,29.446z"/>
	<path d="M17.466,29.446c0.539,0,0.977-0.438,0.977-0.977v-6.142c0-0.539-0.438-0.977-0.977-0.977s-0.977,0.438-0.977,0.977v6.142
		C16.489,29.009,16.926,29.446,17.466,29.446z"/>
	<path d="M22.534,29.446c0.539,0,0.977-0.438,0.977-0.977v-6.142c0-0.539-0.438-0.977-0.977-0.977s-0.977,0.438-0.977,0.977v6.142
		C21.557,29.009,21.994,29.446,22.534,29.446z"/>
	<path d="M27.601,29.446c0.539,0,0.977-0.438,0.977-0.977v-6.142c0-0.539-0.438-0.977-0.977-0.977s-0.977,0.438-0.977,0.977v6.142
		C26.624,29.009,27.061,29.446,27.601,29.446z"/>
	<path d="M38.749,12.642h-8.43l-2.694-9.249c-0.551-1.889-2.31-3.209-4.277-3.209h-6.697c-1.968,0-3.726,1.319-4.277,3.209
		l-2.694,9.249H1.251c-0.539,0-0.977,0.438-0.977,0.977v4.517c0,0.539,0.438,0.977,0.977,0.977h2.236l3.449,11.841
		c0.662,2.274,2.78,3.862,5.148,3.862h15.833c2.368,0,4.485-1.589,5.148-3.862l3.449-11.841h2.236c0.539,0,0.977-0.438,0.977-0.977
		v-4.517C39.726,13.079,39.289,12.642,38.749,12.642z M14.25,3.94c0.309-1.061,1.296-1.802,2.401-1.802h6.697
		c1.104,0,2.092,0.741,2.401,1.802l2.535,8.701H11.715L14.25,3.94z M31.188,30.406c-0.421,1.446-1.766,2.455-3.271,2.455H12.083
		c-1.506,0-2.85-1.009-3.271-2.455L5.522,19.113h28.956L31.188,30.406z M37.772,17.159H2.228v-2.563h35.545L37.772,17.159
		L37.772,17.159z"/>
</g>
</svg>
