<?xml version="1.0" encoding="utf-8"?>
<!-- Generator: Adobe Illustrator 17.0.0, SVG Export Plug-In . SVG Version: 6.00 Build 0)  -->
<!DOCTYPE svg PUBLIC "-//W3C//DTD SVG 1.0//EN" "http://www.w3.org/TR/2001/REC-SVG-20010904/DTD/svg10.dtd">
<svg version="1.0" id="Layer_1" xmlns="http://www.w3.org/2000/svg" xmlns:xlink="http://www.w3.org/1999/xlink" x="0px" y="0px"
	 width="10px" height="10px" viewBox="0 0 10 10" enable-background="new 0 0 10 10" xml:space="preserve">
<g>
	<path fill="#FFFFFF" d="M7.322,4.154l2.345-2.345c0.389-0.389,0.452-1.01,0.105-1.43c-0.4-0.484-1.115-0.505-1.546-0.074
		L5.84,2.682c-0.463,0.463-1.209,0.463-1.672,0L1.822,0.337c-0.389-0.389-1.01-0.452-1.43-0.105c-0.494,0.4-0.515,1.115-0.084,1.546
		l2.377,2.377c0.463,0.463,0.463,1.209,0,1.672L0.308,8.214c-0.41,0.41-0.41,1.073,0,1.483c0.2,0.2,0.473,0.305,0.736,0.305
		S1.58,9.897,1.78,9.697L4.167,7.31c0.463-0.463,1.209-0.463,1.672,0l2.377,2.377c0.2,0.2,0.473,0.305,0.736,0.305
		c0.252,0,0.515-0.095,0.715-0.284c0.431-0.41,0.41-1.115-0.011-1.535L7.322,5.837C6.86,5.374,6.86,4.617,7.322,4.154z"/>
</g>
</svg>
