<?xml version="1.0" encoding="utf-8"?>
<!-- Generator: Adobe Illustrator 17.0.0, SVG Export Plug-In . SVG Version: 6.00 Build 0)  -->
<!DOCTYPE svg PUBLIC "-//W3C//DTD SVG 1.0//EN" "http://www.w3.org/TR/2001/REC-SVG-20010904/DTD/svg10.dtd">
<svg version="1.0" id="Layer_1" xmlns="http://www.w3.org/2000/svg" xmlns:xlink="http://www.w3.org/1999/xlink" x="0px" y="0px"
	 width="18px" height="18px" viewBox="0 0 18 18" enable-background="new 0 0 18 18" xml:space="preserve">
<g>
	<path fill="#FFFFFF" d="M17.658,17.657c0.367-0.368,0.367-0.963-0.001-1.33l-5.741-5.739c1.951-2.618,1.689-6.271-0.617-8.584
		C8.732-0.572,4.562-0.579,1.986,1.989c-2.303,2.313-2.565,5.964-0.614,8.582c2.173,2.917,6.299,3.519,9.216,1.346l5.739,5.741
		c0.177,0.176,0.416,0.275,0.666,0.275C17.242,17.933,17.481,17.834,17.658,17.657z M6.685,1.939
		c2.586,0.012,4.673,2.118,4.662,4.704c0,2.598-2.106,4.704-4.704,4.704S1.939,9.241,1.939,6.643s2.106-4.704,4.704-4.704H6.685z"/>
</g>
</svg>
