<?xml version="1.0" encoding="utf-8"?>
<!-- Generator: Adobe Illustrator 17.0.0, SVG Export Plug-In . SVG Version: 6.00 Build 0)  -->
<!DOCTYPE svg PUBLIC "-//W3C//DTD SVG 1.0//EN" "http://www.w3.org/TR/2001/REC-SVG-20010904/DTD/svg10.dtd">
<svg version="1.0" id="Layer_1" xmlns="http://www.w3.org/2000/svg" xmlns:xlink="http://www.w3.org/1999/xlink" x="0px" y="0px"
	 width="24.42px" height="24.42px" viewBox="0 0 24.42 24.42" enable-background="new 0 0 24.42 24.42" xml:space="preserve">
<g>
	<path fill="none" stroke="#FFFFFF" stroke-width="0.5262" stroke-miterlimit="10" d="M17.894,0.188H6.526
		c-3.486,0-6.338,2.913-6.338,6.473V17.76c0,3.56,2.852,6.473,6.338,6.473h11.369c3.486,0,6.338-2.913,6.338-6.473V6.66
		C24.232,3.101,21.38,0.188,17.894,0.188z"/>
	<path fill="#FFFFFF" d="M18.595,7.775c-0.491,0.298-1.034,0.515-1.615,0.631c-0.462-0.506-1.123-0.822-1.854-0.822
		c-1.402,0-2.54,1.167-2.54,2.605c0,0.204,0.022,0.403,0.065,0.593C10.54,10.674,8.668,9.638,7.414,8.06
		C7.196,8.446,7.071,8.894,7.071,9.371c0,0.903,0.449,1.701,1.13,2.168c-0.416-0.013-0.808-0.131-1.151-0.325v0.032
		c0,1.263,0.876,2.316,2.039,2.555c-0.213,0.061-0.438,0.092-0.67,0.092c-0.164,0-0.323-0.016-0.478-0.046
		c0.323,1.035,1.261,1.788,2.373,1.808c-0.869,0.699-1.966,1.116-3.156,1.116c-0.205,0-0.408-0.012-0.606-0.036
		c1.125,0.738,2.461,1.17,3.895,1.17c4.674,0,7.229-3.969,7.229-7.413c0-0.113-0.002-0.227-0.007-0.338
		c0.496-0.368,0.928-0.826,1.267-1.348c-0.455,0.207-0.945,0.347-1.459,0.41C18.003,8.894,18.406,8.383,18.595,7.775z"/>
</g>
</svg>
