<?xml version="1.0" encoding="utf-8"?>
<!-- Generator: Adobe Illustrator 17.0.0, SVG Export Plug-In . SVG Version: 6.00 Build 0)  -->
<!DOCTYPE svg PUBLIC "-//W3C//DTD SVG 1.0//EN" "http://www.w3.org/TR/2001/REC-SVG-20010904/DTD/svg10.dtd">
<svg version="1.0" id="Layer_1" xmlns="http://www.w3.org/2000/svg" xmlns:xlink="http://www.w3.org/1999/xlink" x="0px" y="0px"
	 width="24.33px" height="24.33px" viewBox="0 0 24.33 24.33" enable-background="new 0 0 24.33 24.33" xml:space="preserve">
<g>
	<path fill="#FFFFFF" d="M23.152,17.988l-3.533-2.468c-0.462-0.322-1.002-0.492-1.562-0.492c-0.89,0-1.726,0.437-2.235,1.167
		l-0.82,1.175c-1.374-0.922-2.908-2.209-4.37-3.671c-1.462-1.462-2.749-2.995-3.67-4.37l1.175-0.82
		c0.599-0.417,0.999-1.042,1.126-1.758c0.127-0.716-0.033-1.44-0.451-2.039L6.344,1.179C5.828,0.441,4.995,0,4.116,0
		C3.812,0,3.513,0.054,3.228,0.159C2.905,0.278,2.605,0.425,2.31,0.61L1.822,0.953C1.7,1.048,1.586,1.152,1.478,1.261
		C0.883,1.855,0.46,2.608,0.222,3.499c-1.017,3.812,1.502,9.576,6.268,14.342c4.002,4.002,8.811,6.489,12.548,6.489h0
		c0.64,0,1.243-0.075,1.794-0.222c0.89-0.238,1.643-0.66,2.239-1.256c0.108-0.108,0.211-0.222,0.322-0.365l0.344-0.49
		c0.168-0.268,0.314-0.569,0.435-0.895C24.588,19.979,24.168,18.698,23.152,17.988z M23.15,20.724
		c-0.095,0.255-0.208,0.489-0.321,0.67l-0.312,0.445L22.3,22.082c-0.458,0.457-1.046,0.785-1.749,0.973
		c-0.458,0.122-0.967,0.184-1.512,0.184c-3.459-0.001-7.972-2.364-11.778-6.17C2.832,12.639,0.37,7.175,1.276,3.78
		c0.188-0.703,0.515-1.291,0.973-1.749L2.47,1.83l0.442-0.312c0.207-0.13,0.441-0.243,0.694-0.337
		c0.163-0.06,0.335-0.091,0.51-0.091c0.523,0,1.021,0.267,1.333,0.713l2.467,3.532C8.168,5.696,8.264,6.13,8.188,6.56
		C8.112,6.99,7.872,7.364,7.513,7.615L5.905,8.737C5.666,8.903,5.6,9.228,5.755,9.474c0.973,1.548,2.431,3.322,4.105,4.996
		c1.674,1.674,3.449,3.132,4.996,4.106c0.247,0.154,0.571,0.088,0.737-0.15l1.122-1.608c0.498-0.714,1.561-0.905,2.279-0.405
		l3.532,2.468C23.137,19.308,23.393,20.066,23.15,20.724z"/>
</g>
</svg>
