<?xml version="1.0" encoding="utf-8"?>
<!-- Generator: Adobe Illustrator 17.0.0, SVG Export Plug-In . SVG Version: 6.00 Build 0)  -->
<!DOCTYPE svg PUBLIC "-//W3C//DTD SVG 1.1//EN" "http://www.w3.org/Graphics/SVG/1.1/DTD/svg11.dtd">
<svg version="1.1" id="Layer_1" xmlns="http://www.w3.org/2000/svg" xmlns:xlink="http://www.w3.org/1999/xlink" x="0px" y="0px"
	 width="60px" height="65px" viewBox="0 0 60 65" enable-background="new 0 0 60 65" xml:space="preserve">
<g>
	<polygon fill="#FF5A00" points="26.373,27.826 26.373,28.326 35.195,28.326 30.377,18.841 25.558,28.326 26.373,28.326 
		26.373,27.826 26.818,28.053 30.377,21.049 33.565,27.326 26.373,27.326 26.373,27.826 26.818,28.053 	"/>
	<path fill="#FF5A00" d="M22.636,16.908v0.5c0.716-0.001,1.295-0.58,1.296-1.296c-0.001-0.716-0.58-1.295-1.296-1.296
		c-0.716,0.001-1.297,0.579-1.298,1.296c0.001,0.717,0.582,1.295,1.298,1.296V16.908v-0.5c-0.164,0-0.298-0.135-0.298-0.296
		c0-0.161,0.134-0.296,0.298-0.296c0.162,0,0.295,0.134,0.296,0.296c0,0.162-0.134,0.295-0.296,0.296V16.908z"/>
	<polygon fill="#FF5A00" points="25.148,21.743 24.685,21.552 21.898,28.326 25.479,28.326 27.09,25.153 25.148,20.428 
		24.685,21.552 25.148,21.743 24.685,21.933 25.991,25.109 24.866,27.326 23.391,27.326 25.61,21.933 25.148,21.743 24.685,21.933 	
		"/>
	<polygon fill="#FF5A00" points="34.28,25.263 33.834,25.489 35.273,28.326 38.64,28.326 35.395,21.985 33.719,25.262 
		33.834,25.489 34.28,25.263 34.725,25.491 35.395,24.181 37.005,27.326 35.887,27.326 34.726,25.037 34.28,25.263 34.725,25.491 	
		"/>
	<path fill="#FF5A00" d="M38.742,1.184l-0.453-0.212C36.644,4.473,33.52,6.583,30,6.59l0.001,0
		c-3.521-0.007-6.645-2.117-8.291-5.619l-0.246-0.525l-0.483,0.32C14.768,4.884,11.523,7.182,9.22,9.725
		c-2.304,2.548-3.59,5.272-5.903,10.142c-0.863,1.818-1.834,3.862-3.052,6.32l-0.21,0.423l10.224,5.805l4.219-11.095l0.032-0.022
		l0.005,0l0.003,0.001l-0.003,0l0.029,0.032c0.216,3.576,0.321,7.433,0.321,11.407c0,10.088-0.677,20.937-1.924,29.891l-0.067,0.479
		l0.477,0.082c5.226,0.904,10.636,1.362,16.08,1.363c0.182,0,0.364-0.001,0.547-0.002l-0.003-0.5l-0.003,0.5
		c0.187,0.001,0.368,0.001,0.549,0.001c5.448,0,10.856-0.458,16.083-1.362l0.477-0.082l-0.067-0.479
		c-1.247-8.955-1.924-19.805-1.924-29.893c0-3.974,0.105-7.83,0.321-11.406l0.03-0.032l0.01-0.002l-0.01,0.002l0.005,0l0.033,0.023
		l0,0l4.219,11.095l10.224-5.804l-0.21-0.424c-1.218-2.458-2.189-4.502-3.052-6.32c-2.313-4.869-3.599-7.593-5.903-10.142
		c-2.303-2.543-5.548-4.841-11.762-8.958l-0.483-0.32l-0.246,0.525L38.742,1.184l-0.276,0.417c6.21,4.111,9.395,6.385,11.572,8.795
		c2.177,2.405,3.423,5.015,5.741,9.9c0.863,1.818,1.837,3.869,3.059,6.336l0.448-0.222l-0.247-0.435l-8.799,4.995l-3.805-10.005l0,0
		c-0.156-0.406-0.543-0.667-0.967-0.667l-0.156,0.012l0,0c-0.482,0.074-0.847,0.474-0.877,0.96
		c-0.218,3.599-0.323,7.474-0.323,11.466c0,10.133,0.679,21.016,1.934,30.031l0.495-0.069l-0.085-0.493
		c-5.169,0.894-10.52,1.348-15.913,1.348c-0.18,0-0.359,0-0.544-0.001l-0.003,0l-0.003,0c-0.18,0.001-0.361,0.002-0.541,0.002
		c-5.388,0-10.742-0.454-15.91-1.348l-0.085,0.493l0.495,0.069c1.255-9.014,1.934-19.896,1.934-30.029
		c0-3.992-0.105-7.868-0.323-11.468c-0.03-0.487-0.395-0.887-0.877-0.96l0,0l-0.156-0.012c-0.424,0-0.812,0.26-0.967,0.667
		L9.759,30.969L0.96,25.974l-0.247,0.435l0.448,0.222c1.223-2.467,2.196-4.517,3.059-6.336c2.318-4.885,3.564-7.495,5.741-9.9
		c2.178-2.41,5.362-4.684,11.572-8.795l-0.276-0.417l-0.453,0.212C22.583,5.202,26.065,7.588,30,7.59l0.001,0l0.001,0
		c3.934-0.003,7.416-2.388,9.194-6.194L38.742,1.184l-0.276,0.417L38.742,1.184z M22.636,14.246v0.5
		c0.752,0.001,1.364,0.614,1.366,1.366c-0.001,0.752-0.614,1.364-1.366,1.366c-0.753-0.001-1.367-0.614-1.368-1.366
		c0.001-0.751,0.615-1.364,1.368-1.366V14.246v-0.5c-1.307,0.001-2.367,1.059-2.368,2.366c0.001,1.306,1.061,2.365,2.368,2.366
		c1.306-0.001,2.365-1.06,2.366-2.366c-0.001-1.306-1.06-2.365-2.366-2.366V14.246z M38.7,28.896v-0.5h-0.003h-3.443h-0.002h-9.752
		h-3.655l-0.029-0.015l-0.006-0.02l0.003-0.013l3.302-8.025l0.032-0.022l0.032,0.021l0,0l1.952,4.75l3.214-6.324l0.031-0.019
		l0.031,0.019l0.002,0.005l3.268,6.434l1.685-3.295l0,0l0.031-0.019h0l0.031,0.019l3.291,6.43l0.013,0.02l0.005,0.019l0,0
		L38.7,28.396V28.896v0.5c0.571,0,1.034-0.463,1.035-1.035l0,0c0-0.204-0.06-0.398-0.163-0.558l-0.421,0.269l0.445-0.228
		l-3.28-6.408c-0.177-0.346-0.533-0.563-0.921-0.563h0c-0.389,0-0.744,0.218-0.921,0.564l0,0l-0.791,1.548L31.3,18.295l0,0
		c-0.177-0.348-0.533-0.566-0.923-0.566c-0.39,0-0.746,0.219-0.923,0.566l-2.226,4.381l-1.123-2.733l0,0
		c-0.159-0.388-0.538-0.642-0.957-0.642c-0.419,0-0.797,0.253-0.957,0.641l-3.302,8.025l0,0c-0.052,0.127-0.078,0.261-0.078,0.394
		c0,0.202,0.059,0.403,0.175,0.576c0.192,0.287,0.514,0.459,0.86,0.459h3.655h9.752h0.002h3.443H38.7V28.896z"/>
</g>
</svg>
