<?xml version="1.0" encoding="utf-8"?>
<!-- Generator: Adobe Illustrator 17.0.0, SVG Export Plug-In . SVG Version: 6.00 Build 0)  -->
<!DOCTYPE svg PUBLIC "-//W3C//DTD SVG 1.1//EN" "http://www.w3.org/Graphics/SVG/1.1/DTD/svg11.dtd">
<svg version="1.1" id="Layer_1" xmlns="http://www.w3.org/2000/svg" xmlns:xlink="http://www.w3.org/1999/xlink" x="0px" y="0px"
	 width="24.3px" height="16.6px" viewBox="0 0 24.3 16.6" enable-background="new 0 0 24.3 16.6" xml:space="preserve">
<g>
	<path fill="#FF5A00" d="M2.062,0.444v0.443h20.177c0.649,0.001,1.174,0.526,1.175,1.175v12.476
		c-0.001,0.649-0.526,1.174-1.175,1.175H2.062c-0.649-0.001-1.174-0.526-1.175-1.175l0-12.476c0.001-0.649,0.526-1.174,1.175-1.175
		L2.062,0.444V0.001C0.923,0.001,0.001,0.923,0,2.062v12.476l0,0c0,1.139,0.923,2.061,2.061,2.061h20.177
		c1.139,0,2.061-0.923,2.061-2.061V2.062c0-1.139-0.923-2.061-2.061-2.061v0H2.062l0,0V0.444z"/>
	<path fill="#FF5A00" d="M22.407,1.233L13.35,10.29c-0.332,0.332-0.762,0.497-1.195,0.497c-0.438-0.001-0.871-0.164-1.204-0.497l0,0
		L1.859,1.199L1.233,1.825l9.091,9.091l0,0c0.505,0.505,1.171,0.757,1.831,0.756c0.659,0,1.32-0.255,1.822-0.757l9.057-9.057
		L22.407,1.233L22.407,1.233z"/>
	<polyline fill="#FF5A00" points="15.764,8.613 22.407,15.257 23.034,14.631 16.39,7.987 	"/>
	<polyline fill="#FF5A00" points="1.859,15.223 8.469,8.613 7.842,7.987 1.233,14.597 	"/>
</g>
</svg>
