<?xml version="1.0" encoding="utf-8"?>
<!-- Generator: Adobe Illustrator 17.0.0, SVG Export Plug-In . SVG Version: 6.00 Build 0)  -->
<!DOCTYPE svg PUBLIC "-//W3C//DTD SVG 1.1//EN" "http://www.w3.org/Graphics/SVG/1.1/DTD/svg11.dtd">
<svg version="1.1" id="Layer_1" xmlns="http://www.w3.org/2000/svg" xmlns:xlink="http://www.w3.org/1999/xlink" x="0px" y="0px"
	 width="20px" height="20px" viewBox="0 0 20 20" enable-background="new 0 0 20 20" xml:space="preserve">
<g>
	<path fill="#FF5A00" d="M16.261,17.743h3.252c0.243,0,0.442,0.199,0.442,0.442s-0.199,0.442-0.442,0.442h-4.425
		c-0.243,0-0.442-0.199-0.442-0.442v-4.425c0-0.243,0.199-0.442,0.442-0.442c0.243,0,0.442,0.199,0.442,0.442v3.429
		c2.234-1.726,3.54-4.358,3.54-7.19C19.07,5,15,0.93,10,0.93S0.93,5,0.93,10S5,19.07,10,19.07c0.243,0,0.442,0.199,0.442,0.442
		S10.243,19.955,10,19.955c-5.487,0-9.955-4.469-9.955-9.955c0-5.487,4.469-9.955,9.955-9.955c5.487,0,9.955,4.469,9.955,9.955
		C19.955,13.009,18.584,15.863,16.261,17.743z"/>
</g>
</svg>
