<?xml version="1.0" encoding="utf-8"?>
<!-- Generator: Adobe Illustrator 17.0.0, SVG Export Plug-In . SVG Version: 6.00 Build 0)  -->
<!DOCTYPE svg PUBLIC "-//W3C//DTD SVG 1.1//EN" "http://www.w3.org/Graphics/SVG/1.1/DTD/svg11.dtd">
<svg version="1.1" id="Layer_1" xmlns="http://www.w3.org/2000/svg" xmlns:xlink="http://www.w3.org/1999/xlink" x="0px" y="0px"
	 width="60px" height="65px" viewBox="0 0 60 65" enable-background="new 0 0 60 65" xml:space="preserve">
<g>
	<rect x="8.279" y="24.014" fill="#FF5A00" width="13.231" height="1.628"/>
	<rect x="5.359" y="27.301" fill="#FF5A00" width="14.122" height="1.628"/>
	<rect x="12.42" y="30.588" fill="#FF5A00" width="11.727" height="1.628"/>
	<rect x="0.354" y="33.875" fill="#FF5A00" width="26.913" height="1.628"/>
	<polygon fill="#FF5A00" points="30.309,26.792 30.309,30.593 30.309,31.407 30.309,32.22 34.185,32.22 34.185,30.593 
		31.937,30.593 31.937,26.792 	"/>
	<path fill="#FF5A00" d="M24.85,36.796c1.52,1.766,3.765,2.89,6.273,2.89c4.565,0,8.28-3.714,8.28-8.28s-3.714-8.28-8.28-8.28v1.628
		c3.668,0,6.652,2.984,6.652,6.652s-2.984,6.653-6.652,6.653c-1.451,0-2.79-0.472-3.884-1.263H24.85z"/>
	<path fill="#FF5A00" d="M59.823,29.052l-9.216-10.724H15.824v2.224h1.628v-0.596H49.86l8.335,9.699v11.564h-1.618
		c-0.388-1.611-1.835-2.81-3.565-2.81c-1.731,0-3.177,1.199-3.564,2.81H26.143c-0.387-1.611-1.834-2.81-3.565-2.81
		c-1.73,0-3.177,1.199-3.564,2.81h-1.562v-2.628h1.404v-1.628H7.53v1.628h8.295v4.256h3.167c0.354,1.658,1.825,2.901,3.587,2.901
		c1.764,0,3.235-1.244,3.588-2.901h23.258c0.354,1.658,1.825,2.901,3.587,2.901c1.762,0,3.233-1.244,3.588-2.901h3.223
		L59.823,29.052L59.823,29.052z M22.579,44.381c-1.271,0-2.303-1.03-2.303-2.303c0-1.272,1.03-2.303,2.303-2.303
		s2.303,1.03,2.303,2.303C24.882,43.351,23.851,44.381,22.579,44.381z M53.013,44.381c-1.271,0-2.303-1.03-2.303-2.303
		c0-1.272,1.03-2.303,2.303-2.303c1.272,0,2.303,1.03,2.303,2.303C55.316,43.351,54.285,44.381,53.013,44.381z"/>
	<polygon fill="#FF5A00" points="45.634,21.419 45.634,28.288 45.634,29.866 47.212,29.866 54.082,29.866 54.082,28.288 
		47.212,28.288 47.212,21.419 	"/>
</g>
</svg>
