<?xml version="1.0" encoding="utf-8"?>
<!-- Generator: Adobe Illustrator 17.0.0, SVG Export Plug-In . SVG Version: 6.00 Build 0)  -->
<!DOCTYPE svg PUBLIC "-//W3C//DTD SVG 1.1//EN" "http://www.w3.org/Graphics/SVG/1.1/DTD/svg11.dtd">
<svg version="1.1" id="Layer_1" xmlns="http://www.w3.org/2000/svg" xmlns:xlink="http://www.w3.org/1999/xlink" x="0px" y="0px"
	 width="13.3px" height="18.41px" viewBox="0 0 13.3 18.41" enable-background="new 0 0 13.3 18.41" xml:space="preserve">
<g>
	<path d="M1.636,6.577c0.899,0,1.627,0.729,1.627,1.627S2.534,9.831,1.636,9.831S0.009,9.102,0.009,8.204S0.738,6.577,1.636,6.577z
		 M6.65,6.577c0.899,0,1.627,0.729,1.627,1.627S7.548,9.831,6.65,9.831S5.023,9.102,5.023,8.204S5.751,6.577,6.65,6.577z
		 M11.664,6.577c0.899,0,1.627,0.729,1.627,1.627s-0.729,1.627-1.627,1.627s-1.627-0.729-1.627-1.627S10.765,6.577,11.664,6.577z
		 M1.636,7.075c-0.624,0-1.129,0.506-1.129,1.129c0,0.624,0.506,1.129,1.129,1.129s1.129-0.506,1.129-1.129
		C2.766,7.58,2.26,7.075,1.636,7.075z M6.65,7.075c-0.624,0-1.129,0.506-1.129,1.129c0,0.624,0.506,1.129,1.129,1.129
		s1.129-0.506,1.129-1.129C7.779,7.58,7.274,7.075,6.65,7.075z M11.664,7.075c-0.624,0-1.129,0.506-1.129,1.129
		c0,0.624,0.506,1.129,1.129,1.129c0.624,0,1.129-0.506,1.129-1.129C12.793,7.58,12.287,7.075,11.664,7.075z"/>
</g>
</svg>
