<?xml version="1.0" encoding="utf-8"?>
<!-- Generator: Adobe Illustrator 17.0.0, SVG Export Plug-In . SVG Version: 6.00 Build 0)  -->
<!DOCTYPE svg PUBLIC "-//W3C//DTD SVG 1.1//EN" "http://www.w3.org/Graphics/SVG/1.1/DTD/svg11.dtd">
<svg version="1.1" id="Layer_1" xmlns="http://www.w3.org/2000/svg" xmlns:xlink="http://www.w3.org/1999/xlink" x="0px" y="0px"
	 width="15.36px" height="11.3px" viewBox="0 0 15.36 11.3" enable-background="new 0 0 15.36 11.3" xml:space="preserve">
<g>
	<path d="M9.524,11.3h-7.74c-0.982,0-1.78-0.798-1.78-1.78V1.78C0.004,0.798,0.803,0,1.784,0h7.74c0.913,0,2.138,0.564,2.732,1.257
		l2.629,3.067c0.627,0.731,0.627,1.921,0,2.653l-2.629,3.067C11.663,10.737,10.437,11.3,9.524,11.3z M1.784,0.464
		c-0.726,0-1.316,0.59-1.316,1.316v7.74c0,0.726,0.59,1.316,1.316,1.316h7.74c0.781,0,1.871-0.501,2.379-1.094l2.629-3.067
		c0.476-0.555,0.476-1.493,0-2.048l-2.629-3.067c-0.508-0.593-1.598-1.094-2.379-1.094L1.784,0.464z"/>
	<path d="M9.524,6.98H3.332C3.204,6.98,3.1,6.876,3.1,6.748c0-0.128,0.104-0.232,0.232-0.232h6.192c0.128,0,0.232,0.104,0.232,0.232
		C9.757,6.876,9.653,6.98,9.524,6.98z"/>
	<path d="M9.524,4.785H3.332C3.204,4.785,3.1,4.681,3.1,4.552S3.204,4.32,3.332,4.32h6.192c0.128,0,0.232,0.104,0.232,0.232
		S9.653,4.785,9.524,4.785z"/>
	<path d="M7.526,8.978c-0.128,0-0.232-0.104-0.232-0.232V2.554c0-0.128,0.104-0.232,0.232-0.232c0.128,0,0.232,0.104,0.232,0.232
		v6.192C7.758,8.875,7.654,8.978,7.526,8.978z"/>
	<path d="M5.331,8.978c-0.128,0-0.232-0.104-0.232-0.232V2.554c0-0.128,0.104-0.232,0.232-0.232c0.128,0,0.232,0.104,0.232,0.232
		v6.192C5.563,8.875,5.459,8.978,5.331,8.978z"/>
	<circle cx="12.638" cy="5.65" r="0.677"/>
</g>
</svg>
