<?xml version="1.0" encoding="utf-8"?>
<!-- Generator: Adobe Illustrator 17.0.0, SVG Export Plug-In . SVG Version: 6.00 Build 0)  -->
<!DOCTYPE svg PUBLIC "-//W3C//DTD SVG 1.0//EN" "http://www.w3.org/TR/2001/REC-SVG-20010904/DTD/svg10.dtd">
<svg version="1.0" id="Layer_1" xmlns="http://www.w3.org/2000/svg" xmlns:xlink="http://www.w3.org/1999/xlink" x="0px" y="0px"
	 width="24.42px" height="24.42px" viewBox="0 0 24.42 24.42" enable-background="new 0 0 24.42 24.42" xml:space="preserve">
<g>
	<path fill="none" stroke="#FFFFFF" stroke-width="0.5241" stroke-miterlimit="10" d="M17.86,0.214H6.56
		c-3.465,0-6.3,2.906-6.3,6.458v11.074c0,3.552,2.835,6.458,6.3,6.458H17.86c3.465,0,6.3-2.906,6.3-6.458V6.673
		C24.16,3.121,21.325,0.214,17.86,0.214z"/>
	<path fill="#FFFFFF" d="M13.569,8.118h1.812V5.391h-2.086c-2.954,0-2.884,2.39-2.884,2.747v1.8H9.04v2.728h1.371
		c0,2.993,0,6.365,0,6.365h2.705c0,0,0-3.432,0-6.365h1.812l0.453-2.728h-2.264V8.573C13.116,8.275,13.286,8.118,13.569,8.118z"/>
</g>
</svg>
