<?xml version="1.0" encoding="utf-8"?>
<!-- Generator: Adobe Illustrator 17.0.0, SVG Export Plug-In . SVG Version: 6.00 Build 0)  -->
<!DOCTYPE svg PUBLIC "-//W3C//DTD SVG 1.1//EN" "http://www.w3.org/Graphics/SVG/1.1/DTD/svg11.dtd">
<svg version="1.1" id="Layer_1" xmlns="http://www.w3.org/2000/svg" xmlns:xlink="http://www.w3.org/1999/xlink" x="0px" y="0px"
	 width="60px" height="65px" viewBox="0 0 60 65" enable-background="new 0 0 60 65" xml:space="preserve">
<g>
	<path fill="#FF5A00" d="M43.771,29.344l-0.043-0.121l-0.013-0.037l-6.147-10.197c-0.109-0.183-0.307-0.294-0.519-0.294H7.018
		c-0.212,0-0.41,0.111-0.519,0.294L0.353,29.187L0.34,29.224l-0.043,0.121l-0.023,0.112L0.265,29.5v2.381
		c0,1.866,1.074,3.471,2.625,4.278v25.469c0,0.335,0.271,0.607,0.607,0.607h5.838h9.08H40.57c0.335,0,0.607-0.271,0.607-0.607
		V36.159c1.552-0.807,2.625-2.412,2.625-4.278V29.5l-0.009-0.043L43.771,29.344z M42.122,28.893h-6.966l-3.249-8.983h4.8
		L42.122,28.893z M18.346,19.911l-1.083,8.983H10.2l3.249-8.983H18.346z M30.617,19.911l3.249,8.983h-7.063l-1.083-8.983H30.617z
		 M25.581,28.893h-7.097l1.083-8.983h4.931L25.581,28.893z M9.942,30.107h7.251v1.774c0,1.999-1.626,3.626-3.626,3.626
		s-3.626-1.626-3.626-3.626V30.107z M18.407,30.107h7.251v1.774c0,1.999-1.626,3.626-3.626,3.626s-3.626-1.626-3.626-3.626V30.107z
		 M26.872,30.107h7.251v1.774c0,1.999-1.626,3.626-3.626,3.626s-3.626-1.626-3.626-3.626V30.107z M7.361,19.911h4.799L8.91,28.893
		H1.945L7.361,19.911z M1.479,31.881v-1.774h7.25v1.774c0,1.999-1.626,3.626-3.624,3.626C3.105,35.507,1.479,33.881,1.479,31.881z
		 M9.942,61.021V49.413h7.866v11.608H9.942z M39.963,61.021H19.022V48.806c0-0.335-0.271-0.607-0.607-0.607h-9.08
		c-0.335,0-0.607,0.271-0.607,0.607v12.215H4.104V36.614c0.323,0.068,0.657,0.107,1,0.107c1.832,0,3.41-1.036,4.231-2.542
		c0.821,1.506,2.4,2.542,4.232,2.542c1.832,0,3.411-1.036,4.232-2.542c0.821,1.506,2.4,2.542,4.232,2.542
		c1.832,0,3.411-1.036,4.232-2.542c0.821,1.506,2.4,2.542,4.232,2.542s3.411-1.036,4.232-2.542c0.821,1.506,2.4,2.542,4.232,2.542
		c0.343,0,0.677-0.039,1-0.107V61.021z M42.588,31.881c0,1.999-1.626,3.626-3.626,3.626c-1.999,0-3.626-1.626-3.626-3.626v-1.774
		h7.251V31.881z"/>
	<path fill="#FF5A00" d="M35.726,39.769H23.021c-0.335,0-0.607,0.271-0.607,0.607v7.494c0,0.335,0.271,0.607,0.607,0.607h12.704
		c0.335,0,0.607-0.271,0.607-0.607v-7.494C36.333,40.04,36.061,39.769,35.726,39.769z M35.119,47.263H23.628v-6.281h11.491V47.263z"
		/>
	<path fill="#FF5A00" d="M50.733,2.765c-4.963,0-9.001,4.038-9.001,9.001c0,6.924,8.209,15.748,8.559,16.12
		c0.114,0.123,0.275,0.192,0.442,0.192s0.327-0.069,0.442-0.192c0.35-0.372,8.56-9.195,8.56-16.12
		C59.735,6.803,55.697,2.765,50.733,2.765z M50.733,26.564c-1.71-1.94-7.787-9.229-7.787-14.799c0-4.294,3.493-7.787,7.787-7.787
		s7.788,3.493,7.788,7.787C58.521,17.331,52.443,24.623,50.733,26.564z"/>
	<path fill="#FF5A00" d="M50.733,7.639c-2.276,0-4.127,1.851-4.127,4.127s1.851,4.127,4.127,4.127s4.127-1.851,4.127-4.127
		S53.009,7.639,50.733,7.639z M50.733,14.679c-1.606,0-2.913-1.307-2.913-2.913s1.307-2.913,2.913-2.913s2.913,1.307,2.913,2.913
		S52.339,14.679,50.733,14.679z"/>
</g>
</svg>
