<?xml version="1.0" encoding="utf-8"?>
<!-- Generator: Adobe Illustrator 17.0.0, SVG Export Plug-In . SVG Version: 6.00 Build 0)  -->
<!DOCTYPE svg PUBLIC "-//W3C//DTD SVG 1.1//EN" "http://www.w3.org/Graphics/SVG/1.1/DTD/svg11.dtd">
<svg version="1.1" id="Layer_1" xmlns="http://www.w3.org/2000/svg" xmlns:xlink="http://www.w3.org/1999/xlink" x="0px" y="0px"
	 width="20.692px" height="14.959px" viewBox="0 0 20.692 14.959" enable-background="new 0 0 20.692 14.959" xml:space="preserve">
<g>
	<path fill="#FF5A00" d="M3.229,10.511L0.158,8.112c-0.187-0.137-0.209-0.39-0.062-0.562c0.137-0.187,0.39-0.209,0.562-0.062
		l2.458,1.914C2.34,6.474,3.403,3.229,6.014,1.376c2.686-1.906,6.209-1.781,8.731,0.065c0.223,0.156,0.218,0.496-0.006,0.655
		c-0.134,0.095-0.332,0.101-0.472-0.001C12.025,0.454,8.883,0.327,6.48,2.032c-2.373,1.684-3.322,4.647-2.539,7.3l1.948-2.504
		c0.137-0.187,0.39-0.209,0.562-0.062c0.187,0.137,0.209,0.39,0.062,0.562l-2.398,3.071C3.91,10.679,3.52,10.731,3.229,10.511z"/>
	<path fill="#FF5A00" d="M20.034,7.471l-2.458-1.914c0.776,2.928-0.287,6.173-2.898,8.026c-2.686,1.906-6.209,1.781-8.731-0.065
		c-0.223-0.156-0.218-0.496,0.006-0.655c0.134-0.095,0.332-0.101,0.472,0.001c2.242,1.641,5.383,1.767,7.786,0.062
		c2.373-1.684,3.322-4.647,2.539-7.3l-1.948,2.504c-0.137,0.187-0.39,0.209-0.562,0.062c-0.187-0.137-0.209-0.39-0.062-0.562
		l2.398-3.071c0.205-0.28,0.62-0.328,0.885-0.112l3.071,2.398c0.187,0.137,0.209,0.39,0.062,0.562
		C20.474,7.585,20.206,7.618,20.034,7.471z"/>
</g>
</svg>
