<?xml version="1.0" encoding="utf-8"?>
<!-- Generator: Adobe Illustrator 17.0.0, SVG Export Plug-In . SVG Version: 6.00 Build 0)  -->
<!DOCTYPE svg PUBLIC "-//W3C//DTD SVG 1.1//EN" "http://www.w3.org/Graphics/SVG/1.1/DTD/svg11.dtd">
<svg version="1.1" id="Layer_1" xmlns="http://www.w3.org/2000/svg" xmlns:xlink="http://www.w3.org/1999/xlink" x="0px" y="0px"
	 width="60px" height="65px" viewBox="0 0 60 65" enable-background="new 0 0 60 65" xml:space="preserve">
<g>
	<path fill="#FF5A00" d="M16.599,44.377c3.984,0,7.225-3.241,7.225-7.225s-3.241-7.225-7.225-7.225s-7.225,3.241-7.225,7.225
		S12.614,44.377,16.599,44.377z M16.599,31.367c3.19,0,5.784,2.595,5.784,5.784s-2.595,5.784-5.784,5.784s-5.784-2.595-5.784-5.784
		S13.409,31.367,16.599,31.367z"/>
	<path fill="#FF5A00" d="M9.114,64.549l0.073,0.004H24.01l0.073-0.004c2.707-0.277,4.748-2.541,4.748-5.267v-0.424
		c0-6.745-5.487-12.232-12.232-12.232S4.367,52.113,4.367,58.858v0.424C4.366,62.008,6.407,64.272,9.114,64.549z M5.807,58.858
		c0-5.95,4.841-10.791,10.791-10.791s10.791,4.841,10.791,10.791v0.424c0,1.972-1.467,3.612-3.418,3.83H9.225
		c-1.952-0.218-3.418-1.858-3.418-3.83L5.807,58.858z"/>
	<path fill="#FF5A00" d="M38.431,11.44c0-1.62,1.317-2.938,2.936-2.938c1.619,0,2.937,1.318,2.937,2.938
		c0,1.302-0.875,2.06-1.802,2.862c-1.004,0.871-2.039,1.769-2.297,3.487c-0.054,0.327-0.083,0.681-0.09,1.109h1.547
		c0.001-0.3,0.013-0.591,0.075-0.897c0.238-1.238,1.118-2.011,1.968-2.758c1.104-0.97,2.147-1.887,2.147-3.803
		c0-2.473-2.012-4.485-4.486-4.485c-2.473,0-4.485,2.012-4.485,4.485v0.036h1.548V11.44H38.431z"/>
	<rect x="40.113" y="20.915" fill="#FF5A00" width="1.547" height="1.548"/>
	<path fill="#FF5A00" d="M26.915,29.883l0.195-0.027l8.115-2.27c1.965,0.939,4.062,1.401,6.145,1.401
		c3.698,0,7.344-1.441,10.09-4.188c5.564-5.563,5.564-14.617,0-20.181s-14.616-5.563-20.181,0
		c-4.29,4.289-5.387,10.772-2.786,16.221l-2.271,8.129c-0.071,0.251,0,0.519,0.184,0.703C26.542,29.81,26.726,29.883,26.915,29.883z
		 M29.95,20.976l0.007-0.102l0.012-0.162l-0.041-0.149l-0.029-0.104c-2.485-4.947-1.521-10.903,2.397-14.822
		c5.003-5.002,13.141-5.001,18.143,0c5.002,5.002,5.002,13.141,0,18.143c-3.92,3.92-9.879,4.883-14.83,2.397l-0.117-0.032
		l-0.137-0.037l-0.169,0.012l-0.096,0.007l-7.139,1.997L29.95,20.976z"/>
</g>
</svg>
