<?xml version="1.0" encoding="utf-8"?>
<!-- Generator: Adobe Illustrator 17.0.0, SVG Export Plug-In . SVG Version: 6.00 Build 0)  -->
<!DOCTYPE svg PUBLIC "-//W3C//DTD SVG 1.1//EN" "http://www.w3.org/Graphics/SVG/1.1/DTD/svg11.dtd">
<svg version="1.1" id="Layer_1" xmlns="http://www.w3.org/2000/svg" xmlns:xlink="http://www.w3.org/1999/xlink" x="0px" y="0px"
	 width="60px" height="65px" viewBox="0 0 60 65" enable-background="new 0 0 60 65" xml:space="preserve">
<g>
	<path fill="#FF5A00" d="M50.775,26.351c-0.061-0.19-0.225-0.329-0.423-0.357l-13.745-1.938l-6.144-12.083
		c-0.178-0.349-0.75-0.349-0.927,0l-6.144,12.083L9.647,25.994c-0.198,0.028-0.362,0.167-0.423,0.357
		c-0.061,0.19-0.007,0.398,0.138,0.536l9.936,9.401l-2.345,13.27c-0.034,0.194,0.044,0.391,0.203,0.508s0.37,0.135,0.546,0.045
		l8.821-4.501c0.256-0.131,0.357-0.444,0.227-0.7c-0.131-0.256-0.444-0.357-0.7-0.227l-7.891,4.026l2.212-12.518
		c0.03-0.172-0.028-0.348-0.155-0.468l-9.356-8.851l12.944-1.825c0.168-0.024,0.314-0.128,0.391-0.279L30,13.356l5.803,11.413
		c0.077,0.151,0.223,0.256,0.391,0.279l12.944,1.825l-9.356,8.851c-0.127,0.12-0.185,0.296-0.155,0.468l2.212,12.518L30.236,42.79
		c-0.149-0.076-0.324-0.076-0.473,0l-1.726,0.881c-0.256,0.131-0.357,0.444-0.227,0.7c0.131,0.256,0.443,0.358,0.7,0.227l1.49-0.76
		l12.297,6.275l0.236,0.057c0.109,0,0.218-0.035,0.309-0.102c0.159-0.117,0.237-0.314,0.203-0.508l-2.345-13.27l9.936-9.401
		C50.783,26.75,50.836,26.542,50.775,26.351z"/>
	<path fill="#FF5A00" d="M26.305,37.938c1.108,0.687,2.385,1.05,3.695,1.05c3.32,0,6.213-2.358,6.877-5.606
		c0.058-0.282-0.124-0.556-0.405-0.614c-0.284-0.06-0.556,0.124-0.614,0.405c-0.566,2.767-3.03,4.774-5.859,4.774
		c-1.116,0-2.204-0.309-3.147-0.894c-0.245-0.152-0.565-0.077-0.716,0.168C25.986,37.466,26.061,37.787,26.305,37.938z"/>
	<path fill="#FF5A00" d="M30,25.989c2.829,0,5.292,2.008,5.859,4.774c0.057,0.281,0.33,0.464,0.614,0.405
		c0.281-0.057,0.463-0.332,0.405-0.614c-0.664-3.248-3.557-5.606-6.877-5.606c-3.871,0-7.02,3.149-7.02,7.02
		c0,1.361,0.39,2.681,1.128,3.818c0.1,0.154,0.266,0.237,0.437,0.237c0.097,0,0.195-0.027,0.283-0.084
		c0.241-0.156,0.31-0.479,0.153-0.719c-0.628-0.968-0.961-2.092-0.961-3.252C24.02,28.671,26.703,25.989,30,25.989z"/>
	<path fill="#FF5A00" d="M16.448,19.152c0.102,0.102,0.235,0.152,0.368,0.152s0.266-0.051,0.368-0.152
		c0.203-0.203,0.203-0.532,0-0.735l-1.891-1.891c-0.203-0.203-0.532-0.203-0.735,0s-0.203,0.532,0,0.735L16.448,19.152z"/>
	<path fill="#FF5A00" d="M18.967,21.671c0.102,0.102,0.235,0.152,0.368,0.152c0.133,0,0.266-0.051,0.368-0.152
		c0.203-0.203,0.203-0.532,0-0.735l-1.338-1.338c-0.203-0.203-0.532-0.203-0.735,0s-0.203,0.532,0,0.735L18.967,21.671z"/>
	<path fill="#FF5A00" d="M12.608,38.435l-2.568,1.039c-0.266,0.108-0.395,0.411-0.287,0.677c0.082,0.202,0.277,0.325,0.482,0.325
		l0.195-0.038l2.568-1.039c0.266-0.108,0.395-0.411,0.287-0.677C13.177,38.456,12.875,38.327,12.608,38.435z"/>
	<path fill="#FF5A00" d="M15.822,37.134l-1.268,0.513c-0.266,0.108-0.395,0.411-0.287,0.677c0.082,0.202,0.277,0.325,0.482,0.325
		l0.195-0.038l1.268-0.513c0.266-0.108,0.395-0.411,0.287-0.677C16.392,37.155,16.089,37.025,15.822,37.134z"/>
	<path fill="#FF5A00" d="M30,46.529c-0.287,0-0.52,0.233-0.52,0.52v1.213c0,0.287,0.233,0.52,0.52,0.52
		c0.287,0,0.52-0.233,0.52-0.52v-1.213C30.52,46.761,30.287,46.529,30,46.529z"/>
	<path fill="#FF5A00" d="M30,49.475c-0.287,0-0.52,0.233-0.52,0.52v2.773c0,0.287,0.233,0.52,0.52,0.52
		c0.287,0,0.52-0.233,0.52-0.52v-2.773C30.52,49.708,30.287,49.475,30,49.475z"/>
	<path fill="#FF5A00" d="M46.285,37.987l-2.107-0.853c-0.265-0.107-0.569,0.021-0.677,0.287c-0.108,0.266,0.021,0.569,0.287,0.677
		l2.107,0.853l0.195,0.038c0.206,0,0.4-0.123,0.482-0.325C46.68,38.398,46.551,38.094,46.285,37.987z"/>
	<path fill="#FF5A00" d="M49.96,39.474l-1.926-0.779c-0.267-0.108-0.57,0.021-0.677,0.287c-0.108,0.266,0.021,0.569,0.287,0.677
		l1.926,0.779l0.195,0.038c0.206,0,0.4-0.123,0.482-0.325C50.355,39.885,50.226,39.582,49.96,39.474z"/>
	<path fill="#FF5A00" d="M40.665,21.824c0.133,0,0.266-0.051,0.368-0.152l1.831-1.831c0.203-0.203,0.203-0.532,0-0.735
		s-0.532-0.203-0.735,0l-1.831,1.831c-0.203,0.203-0.203,0.532,0,0.735C40.399,21.773,40.532,21.824,40.665,21.824z"/>
	<path fill="#FF5A00" d="M43.983,18.506c0.133,0,0.266-0.051,0.368-0.152l1.092-1.092c0.203-0.203,0.203-0.532,0-0.735
		s-0.532-0.203-0.735,0l-1.092,1.092c-0.203,0.203-0.203,0.532,0,0.735C43.717,18.455,43.85,18.506,43.983,18.506z"/>
</g>
</svg>
