<?xml version="1.0" encoding="utf-8"?>
<!-- Generator: Adobe Illustrator 17.0.0, SVG Export Plug-In . SVG Version: 6.00 Build 0)  -->
<!DOCTYPE svg PUBLIC "-//W3C//DTD SVG 1.1//EN" "http://www.w3.org/Graphics/SVG/1.1/DTD/svg11.dtd">
<svg version="1.1" id="Layer_1" xmlns="http://www.w3.org/2000/svg" xmlns:xlink="http://www.w3.org/1999/xlink" x="0px" y="0px"
	 width="15.36px" height="15.36px" viewBox="0 0 15.36 15.36" enable-background="new 0 0 15.36 15.36" xml:space="preserve">
<g>
	<path d="M0.004,7.699l3.015-3.015l2.968,3.015l-2.968,2.968L0.004,7.699z M7.703,9.369l2.968,3.015l-2.968,2.968l-3.015-2.968
		L7.703,9.369z M4.688,3.015L7.703,0l2.968,3.015L7.703,5.983L4.688,3.015z M12.388,4.684l2.968,3.015l-2.968,2.968L9.373,7.699
		L12.388,4.684z"/>
	<path d="M0.004,7.699l3.015-3.015l2.968,3.015l-2.968,2.968L0.004,7.699z M7.703,9.369l2.968,3.015l-2.968,2.968l-3.015-2.968
		L7.703,9.369z M4.688,3.015L7.703,0l2.968,3.015L7.703,5.983L4.688,3.015z M12.388,4.684l2.968,3.015l-2.968,2.968L9.373,7.699
		L12.388,4.684z"/>
</g>
</svg>
