<?xml version="1.0" encoding="utf-8"?>
<!-- Generator: Adobe Illustrator 17.0.0, SVG Export Plug-In . SVG Version: 6.00 Build 0)  -->
<!DOCTYPE svg PUBLIC "-//W3C//DTD SVG 1.0//EN" "http://www.w3.org/TR/2001/REC-SVG-20010904/DTD/svg10.dtd">
<svg version="1.0" id="Layer_1" xmlns="http://www.w3.org/2000/svg" xmlns:xlink="http://www.w3.org/1999/xlink" x="0px" y="0px"
	 viewBox="0 0 22.12 24.332"  xml:space="preserve">
<g>
	<path d="M11.06,0C7.811,0,5.161,2.65,5.161,5.899s2.65,5.899,5.899,5.899s5.899-2.65,5.899-5.899
		C16.959,2.65,14.309,0,11.06,0z M11.06,1.475c2.452,0,4.424,1.972,4.424,4.424c0,2.452-1.972,4.424-4.424,4.424
		S6.636,8.351,6.636,5.899C6.636,3.447,8.608,1.475,11.06,1.475z M11.06,12.535C4.958,12.535,0,17.32,0,23.272v1.06h1.475v-1.06
		c0-5.135,4.25-9.263,9.585-9.263s9.585,4.127,9.585,9.263v1.06h1.475v-1.06C22.12,17.32,17.162,12.535,11.06,12.535z"/>
</g>
</svg>
