<?xml version="1.0" encoding="utf-8"?>
<!-- Generator: Adobe Illustrator 17.0.0, SVG Export Plug-In . SVG Version: 6.00 Build 0)  -->
<!DOCTYPE svg PUBLIC "-//W3C//DTD SVG 1.1//EN" "http://www.w3.org/Graphics/SVG/1.1/DTD/svg11.dtd">
<svg version="1.1" id="Layer_1" xmlns="http://www.w3.org/2000/svg" xmlns:xlink="http://www.w3.org/1999/xlink" x="0px" y="0px"
	 width="7.97px" height="13.2px" viewBox="0 0 7.97 13.2" enable-background="new 0 0 7.97 13.2" xml:space="preserve">
<g>
	<path fill="#DDDDDD" d="M0.851,0.014c0.201,0,0.402,0.071,0.564,0.215l6.268,5.568c0.175,0.155,0.278,0.377,0.285,0.611
		C7.976,6.641,7.885,6.868,7.72,7.033l-5.904,5.904c-0.166,0.166-0.384,0.249-0.601,0.249s-0.435-0.083-0.601-0.249
		c-0.332-0.332-0.332-0.871,0-1.203L5.88,6.469L0.286,1.5C-0.065,1.188-0.096,0.65,0.215,0.299C0.383,0.11,0.617,0.014,0.851,0.014"
		/>
</g>
</svg>
