<?xml version="1.0" encoding="utf-8"?>
<!-- Generator: Adobe Illustrator 17.0.0, SVG Export Plug-In . SVG Version: 6.00 Build 0)  -->
<!DOCTYPE svg PUBLIC "-//W3C//DTD SVG 1.0//EN" "http://www.w3.org/TR/2001/REC-SVG-20010904/DTD/svg10.dtd">
<svg version="1.0" id="Layer_1" xmlns="http://www.w3.org/2000/svg" xmlns:xlink="http://www.w3.org/1999/xlink" x="0px" y="0px"
	 width="29.664px" height="30px" viewBox="0 0 29.664 30" enable-background="new 0 0 29.664 30" xml:space="preserve">
<g>
	<path fill="#0071BC" d="M23.112,18.638c1.019-1.792,1.604-3.86,1.604-6.065c0-6.788-5.522-12.31-12.31-12.31
		s-12.31,5.522-12.31,12.31s5.522,12.31,12.31,12.31c2.204,0,4.272-0.585,6.063-1.603l5.495,5.495
		c0.62,0.62,1.444,0.961,2.321,0.961s1.701-0.341,2.321-0.961c0.62-0.62,0.961-1.444,0.961-2.321c0-0.877-0.342-1.701-0.961-2.321
		L23.112,18.638z M12.406,1.905c5.882,0,10.668,4.786,10.668,10.668s-4.786,10.668-10.668,10.668S1.738,18.456,1.738,12.573
		S6.524,1.905,12.406,1.905z M27.446,27.614c-0.31,0.31-0.722,0.481-1.161,0.481c-0.439,0-0.851-0.171-1.16-0.481l-5.259-5.259
		c0.873-0.667,1.654-1.448,2.321-2.321l5.258,5.259c0.31,0.31,0.481,0.722,0.481,1.16C27.927,26.892,27.756,27.304,27.446,27.614z"
		/>
	<path fill="#0071BC" d="M12.406,21.6c4.978,0,9.027-4.049,9.027-9.027s-4.049-9.027-9.027-9.027s-9.027,4.049-9.027,9.027
		S7.428,21.6,12.406,21.6z M12.406,5.187c4.073,0,7.386,3.313,7.386,7.386s-3.313,7.386-7.386,7.386S5.02,16.646,5.02,12.573
		S8.333,5.187,12.406,5.187z"/>
	<path fill="#0071BC" d="M7.482,13.394c0.453,0,0.821-0.367,0.821-0.821c0-2.263,1.841-4.103,4.103-4.103
		c0.453,0,0.821-0.367,0.821-0.821c0-0.453-0.367-0.821-0.821-0.821c-3.167,0-5.745,2.577-5.745,5.745
		C6.661,13.027,7.029,13.394,7.482,13.394z"/>
</g>
</svg>
