<?xml version="1.0" encoding="utf-8"?>
<!-- Generator: Adobe Illustrator 17.0.0, SVG Export Plug-In . SVG Version: 6.00 Build 0)  -->
<!DOCTYPE svg PUBLIC "-//W3C//DTD SVG 1.1//EN" "http://www.w3.org/Graphics/SVG/1.1/DTD/svg11.dtd">
<svg version="1.1" id="Layer_1" xmlns="http://www.w3.org/2000/svg" xmlns:xlink="http://www.w3.org/1999/xlink" x="0px" y="0px"
	 width="32.02px" height="32.044px" viewBox="0 0 32.02 32.044" enable-background="new 0 0 32.02 32.044" xml:space="preserve">
<g>
	<path fill="#FF5A00" d="M29.063,28.234c1.366-1.402,1.366-3.271,0-4.636l-3.738-3.738c-0.647-0.683-1.438-1.042-2.3-1.042
		c-0.827,0-1.617,0.359-2.3,1.042l-2.156,2.156c-0.18-0.108-0.359-0.18-0.539-0.288c-0.252-0.108-0.467-0.252-0.683-0.359
		c-2.013-1.258-3.846-2.947-5.571-5.068c-0.863-1.078-1.438-1.977-1.833-2.911c0.539-0.503,1.078-1.042,1.581-1.545
		c0.18-0.18,0.395-0.395,0.575-0.575c0.683-0.683,1.078-1.51,1.078-2.336c0-0.827-0.359-1.617-1.078-2.336l-1.833-1.869
		C10.05,4.513,9.834,4.298,9.655,4.082C9.259,3.651,8.828,3.219,8.397,2.824C7.75,2.177,6.959,1.818,6.133,1.818
		s-1.617,0.359-2.3,1.006L1.496,5.16C0.634,6.023,0.131,7.065,0.023,8.287c-0.144,1.977,0.431,3.81,0.863,5.032
		c1.078,2.947,2.731,5.715,5.175,8.662c2.983,3.558,6.541,6.326,10.602,8.302c1.545,0.755,3.63,1.617,5.966,1.761
		c0.144,0,0.288,0,0.431,0c1.545,0,2.875-0.575,3.882-1.689l0.036-0.036c0.359-0.431,0.755-0.827,1.186-1.222
		C28.488,28.845,28.775,28.558,29.063,28.234z M26.942,27.839c-0.431,0.431-0.899,0.863-1.294,1.366
		c-0.683,0.755-1.51,1.078-2.552,1.078c-0.108,0-0.216,0-0.323,0c-2.013-0.18-3.882-0.934-5.319-1.617
		c-3.846-1.869-7.188-4.493-9.991-7.835c-2.3-2.767-3.846-5.355-4.888-8.123C1.928,11.019,1.712,9.689,1.82,8.467
		c0.072-0.791,0.395-1.438,0.934-2.013l2.3-2.3C5.378,3.83,5.737,3.651,6.097,3.651c0.431,0,0.791,0.252,1.042,0.503
		C7.57,4.549,7.93,4.945,8.361,5.376c0.216,0.216,0.431,0.431,0.647,0.647l1.833,1.833C11.2,8.215,11.38,8.575,11.38,8.934
		s-0.18,0.719-0.539,1.078c-0.18,0.18-0.395,0.395-0.575,0.575c-0.575,0.575-1.114,1.114-1.689,1.653l-0.036,0.036
		c-0.575,0.575-0.467,1.15-0.359,1.51l0.036,0.072c0.467,1.15,1.15,2.264,2.192,3.558c1.869,2.3,3.846,4.097,6.002,5.463
		c0.288,0.18,0.575,0.323,0.827,0.467c0.252,0.108,0.467,0.252,0.683,0.359l0.072,0.036c0.216,0.108,0.431,0.18,0.647,0.18
		c0.539,0,0.899-0.359,1.006-0.467l2.336-2.336c0.216-0.216,0.611-0.503,1.042-0.503c0.431,0,0.755,0.288,1.006,0.503l3.738,3.738
		c0.863,0.863,0.467,1.653-0.036,2.156C27.517,27.3,27.23,27.551,26.942,27.839z M16.591,6.526c0.072-0.503,0.539-0.827,1.042-0.719
		c2.156,0.359,4.097,1.366,5.643,2.947s2.552,3.522,2.947,5.643c0.072,0.503-0.252,0.97-0.719,1.042h-0.144
		c-0.431,0-0.827-0.323-0.899-0.755c-0.288-1.761-1.15-3.414-2.444-4.672c-1.294-1.294-2.911-2.12-4.672-2.444
		C16.807,7.496,16.483,7.029,16.591,6.526z M30.249,14.433C29.71,11.27,28.2,8.395,25.936,6.095c-2.3-2.3-5.175-3.774-8.338-4.313
		c-0.503-0.072-0.827-0.539-0.719-1.042c0.108-0.503,0.539-0.827,1.042-0.719c3.486,0.575,6.721,2.228,9.273,4.78
		s4.241,5.786,4.816,9.309c0.072,0.503-0.252,0.97-0.719,1.042h-0.144C30.716,15.188,30.321,14.864,30.249,14.433z"/>
</g>
</svg>
