<?xml version="1.0" encoding="utf-8"?>
<!-- Generator: Adobe Illustrator 17.0.0, SVG Export Plug-In . SVG Version: 6.00 Build 0)  -->
<!DOCTYPE svg PUBLIC "-//W3C//DTD SVG 1.1//EN" "http://www.w3.org/Graphics/SVG/1.1/DTD/svg11.dtd">
<svg version="1.1" id="Layer_1" xmlns="http://www.w3.org/2000/svg" xmlns:xlink="http://www.w3.org/1999/xlink" x="0px" y="0px"
	 width="7.97px" height="13.2px" viewBox="0 0 7.97 13.2" enable-background="new 0 0 7.97 13.2" xml:space="preserve">
<g>
	<path fill="#DDDDDD" d="M7.119,0.014c-0.201,0-0.402,0.071-0.564,0.215L0.286,5.796C0.112,5.952,0.008,6.174,0.001,6.407
		C-0.006,6.641,0.085,6.868,0.25,7.033l5.904,5.904c0.166,0.166,0.384,0.249,0.601,0.249s0.435-0.083,0.601-0.249
		c0.332-0.332,0.332-0.871,0-1.203L2.09,6.469L7.684,1.5C8.035,1.188,8.067,0.65,7.755,0.299C7.587,0.11,7.353,0.014,7.119,0.014"/>
</g>
</svg>
