<?xml version="1.0" encoding="utf-8"?>
<!-- Generator: Adobe Illustrator 17.0.0, SVG Export Plug-In . SVG Version: 6.00 Build 0)  -->
<!DOCTYPE svg PUBLIC "-//W3C//DTD SVG 1.1//EN" "http://www.w3.org/Graphics/SVG/1.1/DTD/svg11.dtd">
<svg version="1.1" id="Layer_1" xmlns="http://www.w3.org/2000/svg" xmlns:xlink="http://www.w3.org/1999/xlink" x="0px" y="0px"
	 width="18px" height="18px" viewBox="0 0 18 18" enable-background="new 0 0 18 18" xml:space="preserve">
<g>
	<path fill="#FFFFFF" d="M13.478,17.956c-1.058,0-1.919-0.861-1.919-1.919c0-1.058,0.861-1.919,1.919-1.919s1.919,0.861,1.919,1.919
		C15.397,17.095,14.536,17.956,13.478,17.956z M13.478,15.397c-0.352,0-0.64,0.288-0.64,0.64c0,0.352,0.288,0.64,0.64,0.64
		c0.352,0,0.64-0.288,0.64-0.64C14.118,15.685,13.83,15.397,13.478,15.397z"/>
	<path fill="#FFFFFF" d="M7.081,17.956c-1.058,0-1.919-0.861-1.919-1.919c0-1.058,0.861-1.919,1.919-1.919S9,14.979,9,16.037
		C9,17.095,8.139,17.956,7.081,17.956z M7.081,15.397c-0.353,0-0.64,0.288-0.64,0.64c0,0.352,0.287,0.64,0.64,0.64
		c0.353,0,0.64-0.288,0.64-0.64C7.72,15.685,7.434,15.397,7.081,15.397z"/>
	<path fill="#FFFFFF" d="M7.081,10.279c-0.235,0-0.461-0.13-0.573-0.353l-4.3-8.603H0.684c-0.353,0-0.64-0.287-0.64-0.64
		s0.287-0.64,0.64-0.64h1.919c0.242,0,0.463,0.137,0.572,0.353l4.478,8.956c0.159,0.316,0.029,0.7-0.287,0.858
		C7.275,10.258,7.178,10.279,7.081,10.279z"/>
	<path fill="#FFFFFF" d="M14.757,12.838H7.081c-1.058,0-1.919-0.861-1.919-1.919S6.023,9,7.081,9h6.035l3.651-6.086
		c0.183-0.304,0.577-0.399,0.878-0.219c0.303,0.182,0.402,0.574,0.22,0.878L14.027,9.97c-0.115,0.192-0.324,0.31-0.549,0.31H7.081
		c-0.353,0-0.64,0.288-0.64,0.64c0,0.352,0.287,0.64,0.64,0.64h7.676c0.353,0,0.64,0.287,0.64,0.64
		C15.397,12.552,15.11,12.838,14.757,12.838z"/>
	<path fill="#FFFFFF" d="M13.478,3.882H8.36c-0.353,0-0.64-0.287-0.64-0.64s0.287-0.64,0.64-0.64h5.118
		c0.353,0,0.64,0.287,0.64,0.64S13.831,3.882,13.478,3.882z"/>
	<path fill="#FFFFFF" d="M10.919,6.441c-0.353,0-0.64-0.287-0.64-0.64V0.684c0-0.353,0.287-0.64,0.64-0.64
		c0.353,0,0.64,0.287,0.64,0.64v5.118C11.559,6.155,11.272,6.441,10.919,6.441z"/>
</g>
</svg>
