<?xml version="1.0" encoding="utf-8"?>
<!-- Generator: Adobe Illustrator 17.0.0, SVG Export Plug-In . SVG Version: 6.00 Build 0)  -->
<!DOCTYPE svg PUBLIC "-//W3C//DTD SVG 1.1//EN" "http://www.w3.org/Graphics/SVG/1.1/DTD/svg11.dtd">
<svg version="1.1" id="Layer_1" xmlns="http://www.w3.org/2000/svg" xmlns:xlink="http://www.w3.org/1999/xlink" x="0px" y="0px"
	 width="15.36px" height="18.41px" viewBox="0 0 15.36 18.41" enable-background="new 0 0 15.36 18.41" xml:space="preserve">
<g>
	<path d="M6.466,17.556l0.7,0.493l0.514,0.365l0.514-0.365l0.7-0.493c1.314-0.923,2.668-1.876,3.755-2.91
		c1.616-1.543,2.367-2.997,2.367-4.604V2.684L7.68-0.004L0.344,2.684v7.358c0,1.607,0.751,3.061,2.365,4.604
		C3.792,15.679,5.152,16.633,6.466,17.556z M2.123,10.042V3.927L7.68,1.89l5.557,2.036v6.115c0,1.08-0.578,2.134-1.816,3.317
		c-0.985,0.94-2.287,1.847-3.548,2.736L7.68,16.231l-0.191-0.136c-1.26-0.889-2.565-1.801-3.557-2.741
		C2.701,12.176,2.123,11.122,2.123,10.042z"/>
	<polygon points="11.772,6.832 10.532,5.56 6.546,9.446 4.937,7.566 3.587,8.724 6.431,12.043 	"/>
</g>
</svg>
