<?xml version="1.0" encoding="utf-8"?>
<!-- Generator: Adobe Illustrator 17.0.0, SVG Export Plug-In . SVG Version: 6.00 Build 0)  -->
<!DOCTYPE svg PUBLIC "-//W3C//DTD SVG 1.1//EN" "http://www.w3.org/Graphics/SVG/1.1/DTD/svg11.dtd">
<svg version="1.1" id="Layer_1" xmlns="http://www.w3.org/2000/svg" xmlns:xlink="http://www.w3.org/1999/xlink" x="0px" y="0px"
	 width="18.92px" height="16.046px" viewBox="0 0 18.92 16.046" enable-background="new 0 0 18.92 16.046" xml:space="preserve">
<g>
	<path fill="#FFFFFF" d="M17.755,2.932c-0.271,0.699-0.539,1.397-0.81,2.096c-0.431,1.114-0.861,2.227-1.29,3.341
		c-0.099,0.255-0.198,0.512-0.296,0.767c0.19-0.144,0.381-0.29,0.571-0.435c-0.306,0-0.614,0-0.921,0c-0.733,0-1.468,0-2.201,0
		c-0.887,0-1.774,0-2.661,0c-0.767,0-1.533,0-2.3,0c-0.373,0-0.747-0.01-1.12,0H6.712c0.19,0.144,0.381,0.29,0.571,0.435
		c-0.095-0.288-0.19-0.577-0.284-0.867c-0.229-0.693-0.456-1.387-0.686-2.08C6.038,5.352,5.763,4.516,5.487,3.681
		C5.248,2.956,5.009,2.23,4.772,1.505C4.655,1.154,4.546,0.8,4.424,0.45L4.418,0.435C4.335,0.186,4.116,0,3.847,0
		C2.899,0,1.95,0,1.002,0C0.866,0,0.729,0,0.593,0C0.283,0-0.013,0.273,0,0.593c0.014,0.322,0.261,0.593,0.593,0.593
		c0.948,0,1.897,0,2.845,0c0.136,0,0.273,0,0.409,0c-0.19-0.144-0.381-0.29-0.571-0.435c0.095,0.288,0.19,0.577,0.284,0.867
		c0.229,0.693,0.456,1.387,0.686,2.08C4.521,4.534,4.797,5.37,5.072,6.205c0.239,0.725,0.478,1.45,0.715,2.175
		c0.117,0.352,0.225,0.705,0.348,1.055l0.006,0.016C6.224,9.7,6.443,9.886,6.712,9.886c0.306,0,0.614,0,0.921,0
		c0.733,0,1.468,0,2.201,0c0.887,0,1.774,0,2.661,0c0.767,0,1.533,0,2.3,0c0.373,0,0.747,0.012,1.12,0h0.016
		c0.283,0,0.476-0.188,0.571-0.435c0.271-0.699,0.539-1.397,0.81-2.096c0.431-1.114,0.861-2.227,1.29-3.341
		c0.099-0.255,0.198-0.512,0.296-0.767c0.051-0.134,0.01-0.336-0.059-0.456c-0.071-0.122-0.213-0.241-0.354-0.273
		c-0.152-0.034-0.322-0.028-0.456,0.059C17.89,2.667,17.813,2.782,17.755,2.932z"/>
	<path fill="#FFFFFF" d="M6.2,8.993c-0.32,0.571-0.642,1.14-0.962,1.711L5.1,10.951c-0.219,0.389,0.057,0.891,0.512,0.891
		c0.342,0,0.684,0,1.025,0c0.822,0,1.642,0,2.464,0c0.994,0,1.987,0,2.981,0c0.859,0,1.719,0,2.578,0c0.417,0,0.836,0.008,1.255,0
		h0.018c0.31,0,0.607-0.273,0.593-0.593c-0.014-0.322-0.261-0.593-0.593-0.593c-0.342,0-0.684,0-1.025,0c-0.822,0-1.642,0-2.464,0
		c-0.994,0-1.987,0-2.981,0c-0.859,0-1.719,0-2.578,0c-0.417,0-0.838-0.012-1.255,0H5.611c0.17,0.296,0.342,0.595,0.512,0.891
		c0.32-0.571,0.642-1.14,0.962-1.711L7.223,9.59C7.376,9.319,7.296,8.93,7.01,8.78C6.729,8.634,6.362,8.705,6.2,8.993z"/>
	<path fill="#FFFFFF" d="M12.155,14.106c0.004,0.383,0.115,0.78,0.34,1.095c0.249,0.346,0.567,0.587,0.966,0.737
		c0.711,0.267,1.606,0.03,2.09-0.555c0.283-0.342,0.441-0.723,0.476-1.166c0.032-0.377-0.075-0.784-0.271-1.108
		c-0.192-0.314-0.478-0.591-0.816-0.745c-0.405-0.186-0.826-0.237-1.262-0.152C12.793,12.385,12.164,13.223,12.155,14.106
		c-0.004,0.31,0.275,0.607,0.593,0.593c0.324-0.014,0.589-0.261,0.593-0.593l0.014-0.192l-0.022,0.158
		c0.018-0.115,0.047-0.225,0.093-0.332l-0.059,0.142l0.117-0.217l0.038-0.053l-0.045,0.059l0.087-0.095l0.085-0.079
		c0.038-0.034,0.095-0.049-0.049,0.038l0.041-0.03l0.229-0.124l-0.142,0.059c0.107-0.043,0.217-0.075,0.332-0.093l-0.158,0.022
		c0.128-0.018,0.255-0.018,0.383,0l-0.158-0.022c0.115,0.018,0.225,0.047,0.332,0.093l-0.142-0.059l0.217,0.117l0.053,0.038
		l-0.059-0.045l0.095,0.087l0.079,0.085c0.034,0.038,0.049,0.095-0.038-0.049l0.03,0.041l0.124,0.229l-0.059-0.142
		c0.043,0.107,0.075,0.217,0.093,0.332l-0.022-0.158c0.018,0.128,0.018,0.255,0,0.383l0.022-0.158
		c-0.018,0.115-0.047,0.225-0.093,0.332l0.059-0.142l-0.117,0.217L14.662,14.6l0.045-0.059l-0.087,0.095l-0.085,0.079
		c-0.038,0.034-0.095,0.049,0.049-0.038l-0.041,0.03l-0.229,0.124l0.142-0.059c-0.107,0.043-0.217,0.075-0.332,0.093l0.158-0.022
		c-0.128,0.018-0.255,0.018-0.383,0l0.158,0.022c-0.115-0.018-0.225-0.047-0.332-0.093l0.142,0.059l-0.217-0.117l-0.053-0.038
		l0.059,0.045l-0.095-0.087l-0.079-0.085c-0.034-0.038-0.049-0.095,0.038,0.049l-0.03-0.041l-0.124-0.229l0.059,0.142
		c-0.043-0.107-0.075-0.217-0.093-0.332l0.022,0.158l-0.014-0.192c-0.004-0.31-0.271-0.607-0.593-0.593
		C12.429,13.527,12.151,13.772,12.155,14.106z"/>
	<path fill="#FFFFFF" d="M5.345,14.106c0.004,0.383,0.115,0.78,0.34,1.095c0.249,0.346,0.567,0.587,0.966,0.737
		c0.711,0.267,1.606,0.03,2.09-0.555c0.283-0.342,0.441-0.723,0.476-1.166c0.032-0.377-0.075-0.784-0.271-1.108
		c-0.192-0.314-0.478-0.591-0.816-0.745c-0.405-0.186-0.826-0.237-1.262-0.152C5.981,12.385,5.352,13.223,5.345,14.106
		c-0.004,0.31,0.275,0.607,0.593,0.593c0.324-0.014,0.589-0.261,0.593-0.593l0.014-0.192l-0.022,0.158
		c0.018-0.115,0.047-0.225,0.093-0.332l-0.059,0.142l0.117-0.217l0.038-0.053l-0.045,0.059l0.087-0.095l0.085-0.079
		c0.038-0.034,0.095-0.049-0.049,0.038l0.041-0.03l0.229-0.124L6.915,13.44c0.107-0.043,0.217-0.075,0.332-0.093l-0.158,0.022
		c0.128-0.018,0.255-0.018,0.383,0l-0.158-0.022c0.115,0.018,0.225,0.047,0.332,0.093l-0.142-0.059l0.217,0.117l0.053,0.038
		L7.715,13.49l0.095,0.087l0.079,0.085c0.034,0.038,0.049,0.095-0.038-0.049l0.03,0.041l0.124,0.229l-0.059-0.142
		c0.043,0.107,0.075,0.217,0.093,0.332l-0.022-0.158c0.018,0.128,0.018,0.255,0,0.383l0.022-0.158
		c-0.018,0.115-0.047,0.225-0.093,0.332l0.059-0.142l-0.117,0.217L7.852,14.6l0.045-0.059L7.81,14.636l-0.085,0.079
		c-0.038,0.034-0.095,0.049,0.049-0.038l-0.041,0.03l-0.229,0.124l0.142-0.059c-0.107,0.043-0.217,0.075-0.332,0.093l0.158-0.022
		c-0.128,0.018-0.255,0.018-0.383,0l0.158,0.022c-0.115-0.018-0.225-0.047-0.332-0.093l0.142,0.059L6.84,14.715l-0.053-0.038
		l0.059,0.045l-0.095-0.087l-0.079-0.085C6.639,14.513,6.623,14.456,6.71,14.6l-0.03-0.041l-0.124-0.229l0.059,0.142
		c-0.043-0.107-0.075-0.217-0.093-0.332l0.022,0.158L6.53,14.106c-0.004-0.31-0.271-0.607-0.593-0.593
		C5.617,13.527,5.341,13.772,5.345,14.106z"/>
	<path fill="#FFFFFF" d="M11.819,5.939c0-0.603,0-1.205,0-1.808c0-0.96,0-1.918,0-2.878c0-0.219,0-0.439,0-0.658
		c0-0.31-0.273-0.607-0.593-0.593c-0.322,0.014-0.593,0.261-0.593,0.593c0,0.603,0,1.205,0,1.808c0,0.96,0,1.918,0,2.879
		c0,0.219,0,0.439,0,0.658c0,0.31,0.273,0.607,0.593,0.593C11.548,6.516,11.819,6.271,11.819,5.939z"/>
	<path fill="#FFFFFF" d="M13.897,2.673c-0.603,0-1.205,0-1.808,0c-0.96,0-1.918,0-2.878,0c-0.219,0-0.439,0-0.658,0
		c-0.31,0-0.607,0.273-0.593,0.593c0.014,0.322,0.261,0.593,0.593,0.593c0.603,0,1.205,0,1.808,0c0.96,0,1.918,0,2.878,0
		c0.219,0,0.439,0,0.658,0c0.31,0,0.607-0.273,0.593-0.593C14.476,2.946,14.229,2.673,13.897,2.673z"/>
</g>
</svg>
