<?xml version="1.0" encoding="utf-8"?>
<!-- Generator: Adobe Illustrator 17.0.0, SVG Export Plug-In . SVG Version: 6.00 Build 0)  -->
<!DOCTYPE svg PUBLIC "-//W3C//DTD SVG 1.1//EN" "http://www.w3.org/Graphics/SVG/1.1/DTD/svg11.dtd">
<svg version="1.1" id="Layer_1" xmlns="http://www.w3.org/2000/svg" xmlns:xlink="http://www.w3.org/1999/xlink" x="0px" y="0px"
	 width="27px" height="27px" viewBox="0 0 27 27" enable-background="new 0 0 27 27" xml:space="preserve">
<g>
	<path fill="#FFFFFF" d="M12.406,0.4v11.688c0,0.175-0.142,0.317-0.317,0.317h0H0.4c-0.175,0-0.317-0.142-0.317-0.317v0V0.4
		c0-0.175,0.142-0.317,0.317-0.317h11.688C12.264,0.083,12.406,0.225,12.406,0.4L12.406,0.4z M26.6,0.083H14.911
		c-0.175,0-0.317,0.142-0.317,0.317v0v11.688c0,0.175,0.142,0.317,0.317,0.317h0H26.6c0.175,0,0.317-0.142,0.317-0.317v0V0.4
		C26.917,0.225,26.775,0.083,26.6,0.083z M0.4,26.917h11.688c0.175,0,0.317-0.142,0.317-0.317v0V14.911
		c0-0.175-0.142-0.317-0.317-0.317h0H0.4c-0.175,0-0.317,0.142-0.317,0.317v0V26.6C0.083,26.775,0.225,26.917,0.4,26.917z
		 M26.6,14.594H14.911c-0.175,0-0.317,0.142-0.317,0.317v0V26.6c0,0.175,0.142,0.317,0.317,0.317h0H26.6
		c0.175,0,0.317-0.142,0.317-0.317V14.911C26.917,14.736,26.775,14.594,26.6,14.594L26.6,14.594z"/>
</g>
</svg>
