<?xml version="1.0" encoding="utf-8"?>
<!-- Generator: Adobe Illustrator 17.0.0, SVG Export Plug-In . SVG Version: 6.00 Build 0)  -->
<!DOCTYPE svg PUBLIC "-//W3C//DTD SVG 1.1//EN" "http://www.w3.org/Graphics/SVG/1.1/DTD/svg11.dtd">
<svg version="1.1" id="Layer_1" xmlns="http://www.w3.org/2000/svg" xmlns:xlink="http://www.w3.org/1999/xlink" x="0px" y="0px"
	 width="20px" height="20px" viewBox="0 0 20 20" enable-background="new 0 0 20 20" xml:space="preserve">
<g>
	<polygon fill="#D9D9D9" points="19.5,19.5 19.5,19 1,19 1,1 19,1 19,19.5 19.5,19.5 19.5,19 19.5,19.5 20,19.5 20,0 0,0 0,20 
		20,20 20,19.5 	"/>
	<path fill="#FF5A00" d="M5.644,9.468l3.38,3.878c0.094,0.108,0.229,0.17,0.372,0.171s0.279-0.058,0.375-0.163l4.524-4.971
		c0.186-0.204,0.171-0.52-0.033-0.706c-0.204-0.186-0.52-0.171-0.706,0.033l-4.146,4.556L6.397,8.811
		C6.216,8.603,5.9,8.581,5.692,8.763C5.484,8.944,5.462,9.26,5.644,9.468L5.644,9.468z"/>
</g>
</svg>
