<?xml version="1.0" encoding="utf-8"?>
<!-- Generator: Adobe Illustrator 17.0.0, SVG Export Plug-In . SVG Version: 6.00 Build 0)  -->
<!DOCTYPE svg PUBLIC "-//W3C//DTD SVG 1.1//EN" "http://www.w3.org/Graphics/SVG/1.1/DTD/svg11.dtd">
<svg version="1.1" id="Layer_1" xmlns="http://www.w3.org/2000/svg" xmlns:xlink="http://www.w3.org/1999/xlink" x="0px" y="0px"
	 width="30.349px" height="31.79px" viewBox="0 0 30.349 31.79" enable-background="new 0 0 30.349 31.79" xml:space="preserve">
<g>
	<path fill="#FF5A00" d="M22.209-0.001c-4.483,0-8.141,3.636-8.141,8.107v0.011c0.041,2.347,1.292,4.534,2.823,6.549
		c1.531,2.015,3.378,3.873,4.765,5.487c0.26,0.302,0.717,0.336,1.019,0.076l0.076-0.076c1.386-1.614,3.242-3.472,4.776-5.487
		c1.534-2.015,2.782-4.201,2.823-6.549V8.105C30.349,3.633,26.691-0.001,22.209-0.001z M22.209,1.444
		c3.701,0,6.689,2.969,6.695,6.65v0.011c-0.036,1.832-1.079,3.774-2.529,5.679c-1.284,1.686-2.824,3.307-4.166,4.821
		c-1.343-1.515-2.884-3.133-4.166-4.821c-1.447-1.905-2.493-3.847-2.529-5.679V8.094C15.519,4.412,18.508,1.444,22.209,1.444z
		 M22.209,6.028c-1.157,0-2.089,0.934-2.089,2.089c0,1.154,0.931,2.089,2.089,2.089c1.157,0,2.1-0.934,2.1-2.089
		C24.309,6.962,23.366,6.028,22.209,6.028z M9.089,6.062L8.874,6.096L0.508,8.681C0.206,8.775,0.001,9.054,0,9.37V31.07
		c0.001,0.399,0.325,0.722,0.724,0.721l0.213-0.033l8.152-2.518l8.152,2.518c0.14,0.043,0.289,0.043,0.429,0l8.366-2.586
		c0.302-0.094,0.507-0.373,0.508-0.689v-7.711c0.006-0.399-0.313-0.727-0.712-0.733c-0.399-0.006-0.727,0.313-0.733,0.712v0.02
		v7.181l-6.921,2.123V18.041c0.009-0.399-0.308-0.729-0.707-0.738l-0.095,0.004c-0.372,0.041-0.652,0.359-0.644,0.734v12.036
		l-6.921-2.123V9.912C9.82,9.513,9.504,9.182,9.105,9.174L9.01,9.178C8.638,9.219,8.358,9.537,8.366,9.912v18.042l-6.921,2.123
		V9.901l7.644-2.36l2.777,0.858c0.373,0.141,0.79-0.047,0.932-0.42c0.141-0.373-0.047-0.79-0.42-0.932l-0.083-0.026L9.303,6.096
		L9.089,6.062z"/>
</g>
</svg>
