<?xml version="1.0" encoding="utf-8"?>
<!-- Generator: Adobe Illustrator 17.0.0, SVG Export Plug-In . SVG Version: 6.00 Build 0)  -->
<!DOCTYPE svg PUBLIC "-//W3C//DTD SVG 1.1//EN" "http://www.w3.org/Graphics/SVG/1.1/DTD/svg11.dtd">
<svg version="1.1" id="Layer_1" xmlns="http://www.w3.org/2000/svg" xmlns:xlink="http://www.w3.org/1999/xlink" x="0px" y="0px"
	 width="17.28px" height="13.98px" viewBox="0 0 17.28 13.98" enable-background="new 0 0 17.28 13.98" xml:space="preserve">
<g>
	<path d="M14.275,6.839c-0.011,0.118,0.007,0.232,0.052,0.341l0.091,0.149c0.108,0.149,0.288,0.227,0.464,0.251
		c0.165,0.024,0.363-0.045,0.491-0.146c0.123-0.098,0.254-0.3,0.251-0.464c-0.003-0.184-0.009-0.369-0.022-0.554
		c-0.091-1.211-0.526-2.379-1.203-3.383c-0.686-1.016-1.656-1.813-2.752-2.35c-0.5-0.246-1.024-0.408-1.565-0.529
		c-0.478-0.105-0.969-0.157-1.46-0.15c-0.539,0.007-1.075,0.059-1.6,0.188C6.495,0.322,5.978,0.501,5.493,0.748
		c-0.997,0.508-1.864,1.243-2.522,2.15C2.864,3.048,2.831,3.225,2.853,3.404c0.02,0.18,0.135,0.334,0.272,0.442
		C3.257,3.951,3.466,3.992,3.63,3.965c0.173-0.028,0.34-0.13,0.442-0.272C4.24,3.461,4.424,3.24,4.621,3.031L4.495,3.163
		c0.38-0.397,0.81-0.745,1.279-1.032L5.625,2.223C6.09,1.939,6.589,1.717,7.11,1.562L6.944,1.611
		c0.524-0.156,1.066-0.242,1.613-0.26L8.384,1.356c0.544-0.014,1.088,0.038,1.618,0.16L9.831,1.477
		c0.536,0.125,1.053,0.319,1.538,0.577l-0.161-0.086c0.504,0.271,0.971,0.608,1.388,1.002l-0.133-0.125
		c0.401,0.382,0.749,0.814,1.038,1.287l-0.091-0.149c0.28,0.462,0.499,0.96,0.655,1.478l-0.049-0.166
		c0.155,0.523,0.243,1.063,0.261,1.607l-0.005-0.173L14.275,6.839z"/>
	<path d="M13.308,5c-0.149-0.108-0.326-0.141-0.505-0.119c-0.18,0.02-0.334,0.135-0.442,0.272c-0.105,0.133-0.146,0.341-0.119,0.505
		c0.027,0.172,0.132,0.341,0.272,0.442l0.265,0.192c0.384,0.277,0.769,0.555,1.154,0.833c0.241,0.174,0.483,0.349,0.724,0.523
		c0.298,0.215,0.733,0.144,0.947-0.153l0.192-0.265c0.277-0.384,0.555-0.769,0.833-1.154c0.174-0.241,0.349-0.483,0.523-0.724
		c0.108-0.149,0.141-0.326,0.119-0.505c-0.02-0.18-0.135-0.334-0.272-0.442c-0.133-0.105-0.341-0.146-0.505-0.119
		c-0.172,0.027-0.341,0.132-0.442,0.272l-0.192,0.265c-0.277,0.384-0.555,0.769-0.833,1.154c-0.174,0.241-0.349,0.483-0.523,0.724
		c0.316-0.051,0.632-0.102,0.947-0.153l-0.265-0.192c-0.384-0.277-0.769-0.555-1.154-0.833C13.791,5.349,13.549,5.174,13.308,5z"/>
	<path d="M3.005,7.142C3.016,7.024,2.997,6.91,2.954,6.801L2.863,6.651C2.754,6.502,2.574,6.424,2.399,6.4
		C2.234,6.376,2.035,6.444,1.908,6.546c-0.123,0.098-0.254,0.3-0.251,0.464C1.66,7.194,1.666,7.379,1.679,7.564
		c0.091,1.211,0.526,2.379,1.203,3.383c0.686,1.016,1.656,1.813,2.752,2.35c0.5,0.246,1.024,0.408,1.565,0.529
		c0.478,0.105,0.969,0.157,1.46,0.15c0.539-0.007,1.075-0.059,1.6-0.188c0.527-0.129,1.043-0.309,1.528-0.556
		c0.997-0.508,1.864-1.243,2.522-2.15c0.108-0.149,0.141-0.326,0.119-0.505c-0.02-0.18-0.135-0.334-0.272-0.442
		c-0.133-0.105-0.341-0.146-0.505-0.119c-0.173,0.028-0.34,0.13-0.442,0.272c-0.168,0.232-0.351,0.453-0.549,0.662l0.125-0.133
		c-0.38,0.397-0.81,0.745-1.279,1.032l0.149-0.091c-0.465,0.284-0.964,0.506-1.485,0.661l0.166-0.049
		c-0.525,0.155-1.068,0.243-1.614,0.262l0.173-0.005c-0.544,0.014-1.088-0.038-1.618-0.16l0.171,0.039
		c-0.536-0.125-1.053-0.319-1.538-0.577l0.161,0.086c-0.504-0.271-0.971-0.608-1.388-1.002l0.133,0.125
		c-0.401-0.382-0.749-0.814-1.038-1.287L3.869,10c-0.28-0.462-0.499-0.96-0.655-1.478l0.049,0.166
		C3.108,8.166,3.02,7.626,3.002,7.081l0.005,0.173L3.005,7.142z"/>
	<path d="M3.972,8.981C4.121,9.089,4.299,9.122,4.478,9.1c0.18-0.02,0.334-0.135,0.442-0.272c0.105-0.133,0.146-0.341,0.119-0.505
		C5.012,8.151,4.907,7.982,4.767,7.881L4.501,7.689C4.118,7.412,3.732,7.134,3.347,6.856C3.106,6.682,2.864,6.507,2.623,6.333
		C2.325,6.118,1.891,6.189,1.676,6.486L1.485,6.752C1.207,7.135,0.929,7.521,0.651,7.906C0.477,8.147,0.303,8.389,0.129,8.629
		C0.021,8.779-0.012,8.956,0.009,9.135c0.02,0.18,0.135,0.334,0.272,0.442c0.133,0.105,0.341,0.146,0.505,0.119
		C0.959,9.67,1.128,9.565,1.229,9.424l0.192-0.265C1.698,8.775,1.976,8.39,2.254,8.004c0.174-0.241,0.349-0.483,0.523-0.724
		C2.461,7.332,2.145,7.383,1.829,7.434l0.265,0.192C2.478,7.902,2.863,8.18,3.249,8.458C3.489,8.632,3.731,8.807,3.972,8.981z"/>
</g>
</svg>
