<?xml version="1.0" encoding="utf-8"?>
<!-- Generator: Adobe Illustrator 17.0.0, SVG Export Plug-In . SVG Version: 6.00 Build 0)  -->
<!DOCTYPE svg PUBLIC "-//W3C//DTD SVG 1.1//EN" "http://www.w3.org/Graphics/SVG/1.1/DTD/svg11.dtd">
<svg version="1.1" id="Layer_1" xmlns="http://www.w3.org/2000/svg" xmlns:xlink="http://www.w3.org/1999/xlink" x="0px" y="0px"
	 width="15.36px" height="18.41px" viewBox="0 0 15.36 18.41" enable-background="new 0 0 15.36 18.41" xml:space="preserve">
<g>
	<path d="M14.126,18.409H1.234c-0.678,0-1.23-0.527-1.23-1.174V1.175c0-0.647,0.552-1.174,1.23-1.174h12.892
		c0.678,0,1.23,0.526,1.23,1.174v16.06C15.356,17.882,14.804,18.409,14.126,18.409z M1.234,0.828c-0.222,0-0.404,0.156-0.404,0.347
		v16.06c0,0.192,0.182,0.347,0.404,0.347h12.892c0.223,0,0.403-0.156,0.403-0.347V1.175c0-0.192-0.18-0.347-0.403-0.347H1.234z"/>
	<path d="M11.127,3.456H2.742c-0.228,0-0.413-0.185-0.413-0.413c0-0.228,0.185-0.413,0.413-0.413h8.385
		c0.229,0,0.413,0.185,0.413,0.413C11.54,3.271,11.356,3.456,11.127,3.456z"/>
	<path d="M7.95,5.62H2.742c-0.228,0-0.413-0.185-0.413-0.413s0.185-0.413,0.413-0.413H7.95c0.228,0,0.414,0.185,0.414,0.413
		S8.178,5.62,7.95,5.62z"/>
	<path d="M11.127,7.784H2.742c-0.228,0-0.413-0.185-0.413-0.413c0-0.228,0.185-0.413,0.413-0.413h8.385
		c0.229,0,0.413,0.185,0.413,0.413C11.54,7.599,11.356,7.784,11.127,7.784z"/>
	<path d="M6.375,9.948H2.742c-0.228,0-0.413-0.184-0.413-0.413c0-0.228,0.185-0.413,0.413-0.413h3.633
		c0.228,0,0.413,0.185,0.413,0.413C6.788,9.764,6.603,9.948,6.375,9.948z"/>
	<path d="M7.221,16.667c-0.094,0-0.187-0.032-0.261-0.093l-3.699-3.02c-0.09-0.073-0.145-0.182-0.151-0.298
		c-0.007-0.116,0.037-0.23,0.119-0.312l0.828-0.837c0.148-0.15,0.387-0.164,0.55-0.032l2.283,1.815l4.654-4.646
		c0.152-0.151,0.393-0.162,0.557-0.025c0.164,0.137,0.197,0.376,0.076,0.552l-4.616,6.718c-0.066,0.095-0.168,0.159-0.282,0.175
		L7.221,16.667z M4.136,13.202l2.999,2.448l1.829-2.662l-1.75,1.747c-0.149,0.148-0.385,0.162-0.548,0.031l-2.282-1.814
		L4.136,13.202z"/>
</g>
</svg>
