<?xml version="1.0" encoding="utf-8"?>
<!-- Generator: Adobe Illustrator 17.0.0, SVG Export Plug-In . SVG Version: 6.00 Build 0)  -->
<!DOCTYPE svg PUBLIC "-//W3C//DTD SVG 1.1//EN" "http://www.w3.org/Graphics/SVG/1.1/DTD/svg11.dtd">
<svg version="1.1" id="Layer_1" xmlns="http://www.w3.org/2000/svg" xmlns:xlink="http://www.w3.org/1999/xlink" x="0px" y="0px"
	 width="20px" height="20px" viewBox="0 0 20 20" enable-background="new 0 0 20 20" xml:space="preserve">
<g>
	<path fill="#FFFFFF" d="M6.265,3.936c-0.323,2.337-0.222,2.641,1.958,6.17c0.524,0.849,0.124,1.594-0.76,2.185
		c-0.294,0.197-0.642,0.385-1.164,0.643c-0.149,0.074-0.843,0.41-0.648,0.315c-0.267,0.13-0.466,0.229-0.66,0.328
		c-1.767,0.906-2.58,1.683-2.58,2.616c0,1.902,3.852,2.992,7.588,2.992s7.588-1.09,7.588-2.992c0-0.933-0.813-1.71-2.58-2.616
		c-0.194-0.099-0.392-0.198-0.66-0.328c0.195,0.095-0.499-0.242-0.648-0.315c-0.522-0.258-0.87-0.446-1.164-0.643
		c-0.884-0.591-1.284-1.337-0.76-2.185c2.18-3.529,2.281-3.832,1.958-6.17c-0.254-1.839-2.093-3.122-3.7-3.122
		C8.408,0.814,6.518,2.107,6.265,3.936z M5.474,3.827c0.366-2.65,3.073-3.811,4.561-3.811c1.488,0,4.125,1.161,4.491,3.811
		c0.375,2.716,0.042,3.281-2.07,6.699c-0.991,1.604,5.931,2.316,5.931,5.668c0,3.32-6.668,3.791-8.387,3.791
		s-8.387-0.471-8.387-3.791c0-3.352,6.922-4.064,5.931-5.668C5.432,7.108,5.099,6.543,5.474,3.827z"/>
</g>
</svg>
