<?xml version="1.0" encoding="utf-8"?>
<!-- Generator: Adobe Illustrator 17.0.0, SVG Export Plug-In . SVG Version: 6.00 Build 0)  -->
<!DOCTYPE svg PUBLIC "-//W3C//DTD SVG 1.1//EN" "http://www.w3.org/Graphics/SVG/1.1/DTD/svg11.dtd">
<svg version="1.1" id="Layer_1" xmlns="http://www.w3.org/2000/svg" xmlns:xlink="http://www.w3.org/1999/xlink" x="0px" y="0px"
	 width="14.19px" height="14.19px" viewBox="0 0 14.19 14.19" enable-background="new 0 0 14.19 14.19" xml:space="preserve">
<g>
	<path fill="#FFFFFF" d="M7.095,0C3.177,0,0,3.177,0,7.095s3.177,7.095,7.095,7.095s7.095-3.177,7.095-7.095S11.013,0,7.095,0z
		 M5.033,10.726H3.305V5.527h1.728V10.726z M4.169,4.817H4.158c-0.58,0-0.955-0.399-0.955-0.898c0-0.51,0.386-0.898,0.978-0.898
		s0.955,0.388,0.966,0.898C5.147,4.418,4.772,4.817,4.169,4.817z M11.264,10.726H9.536V7.945c0-0.699-0.25-1.176-0.875-1.176
		c-0.477,0-0.762,0.322-0.887,0.632C7.729,7.512,7.717,7.667,7.717,7.823v2.903H5.99c0,0,0.023-4.711,0-5.199h1.728v0.736
		c0.23-0.354,0.64-0.858,1.557-0.858c1.137,0,1.989,0.743,1.989,2.34V10.726z"/>
</g>
</svg>
