<?xml version="1.0" encoding="utf-8"?>
<!-- Generator: Adobe Illustrator 17.0.0, SVG Export Plug-In . SVG Version: 6.00 Build 0)  -->
<!DOCTYPE svg PUBLIC "-//W3C//DTD SVG 1.1//EN" "http://www.w3.org/Graphics/SVG/1.1/DTD/svg11.dtd">
<svg version="1.1" id="Layer_1" xmlns="http://www.w3.org/2000/svg" xmlns:xlink="http://www.w3.org/1999/xlink" x="0px" y="0px"
	 width="17.33px" height="14.8px" viewBox="0 0 17.33 14.8" enable-background="new 0 0 17.33 14.8" xml:space="preserve">
<g>
	<path fill="#FFFFFF" d="M15.549,3.872c0.705-0.5,1.297-1.125,1.78-1.844V2.027c-0.645,0.282-1.331,0.47-2.047,0.561
		c0.736-0.44,1.299-1.131,1.563-1.963c-0.687,0.409-1.445,0.698-2.253,0.86c-0.652-0.695-1.581-1.124-2.595-1.124
		c-1.967,0-3.55,1.596-3.55,3.553c0,0.282,0.024,0.552,0.082,0.81c-2.953-0.144-5.567-1.56-7.323-3.716
		C0.901,1.54,0.721,2.148,0.721,2.803c0,1.23,0.633,2.321,1.578,2.952C1.728,5.744,1.168,5.578,0.694,5.318v0.039
		c0,1.726,1.231,3.16,2.846,3.491c-0.29,0.079-0.604,0.117-0.931,0.117c-0.227,0-0.457-0.013-0.672-0.061
		c0.46,1.406,1.767,2.441,3.319,2.475c-1.209,0.945-2.744,1.515-4.405,1.515c-0.291,0-0.57-0.013-0.85-0.048
		c1.574,1.014,3.438,1.594,5.45,1.594C11.72,14.439,15.806,9.209,15.549,3.872L15.549,3.872z"/>
</g>
</svg>
