<svg version="1" id="Layer_1" xmlns="http://www.w3.org/2000/svg" x="0" y="0" width="40" height="35" viewBox="0 0 40 35" xml:space="preserve"><path d="M12.398 29.446a.978.978 0 0 0 .977-.977v-6.142a.978.978 0 0 0-1.954 0v6.142c0 .54.438.977.977.977zm5.068 0a.978.978 0 0 0 .977-.977v-6.142a.978.978 0 0 0-1.954 0v6.142c0 .54.437.977.977.977zm5.068 0a.978.978 0 0 0 .977-.977v-6.142a.978.978 0 0 0-1.954 0v6.142c0 .54.437.977.977.977zm5.067 0a.978.978 0 0 0 .977-.977v-6.142a.978.978 0 0 0-1.954 0v6.142c0 .54.437.977.977.977z"/><path d="M38.749 12.642h-8.43l-2.694-9.249A4.48 4.48 0 0 0 23.348.184h-6.697a4.477 4.477 0 0 0-4.277 3.209L9.68 12.642H1.251a.978.978 0 0 0-.977.977v4.517c0 .539.438.977.977.977h2.236l3.449 11.841a5.39 5.39 0 0 0 5.148 3.862h15.833a5.392 5.392 0 0 0 5.148-3.862l3.449-11.841h2.236a.978.978 0 0 0 .977-.977v-4.517a.978.978 0 0 0-.978-.977zM14.25 3.94a2.513 2.513 0 0 1 2.401-1.802h6.697c1.104 0 2.092.741 2.401 1.802l2.535 8.701H11.715L14.25 3.94zm16.938 26.466a3.424 3.424 0 0 1-3.271 2.455H12.083a3.423 3.423 0 0 1-3.271-2.455l-3.29-11.293h28.956l-3.29 11.293zm6.584-13.247H2.228v-2.563h35.545l-.001 2.563z"/></svg>