<svg version="1" id="Layer_1" xmlns="http://www.w3.org/2000/svg" x="0" y="0" width="10" height="10" viewBox="0 0 10 10" xml:space="preserve"><path fill="#FFF" d="M7.322 4.154l2.345-2.345c.389-.389.452-1.01.105-1.43A1.044 1.044 0 0 0 8.226.305L5.84 2.682a1.18 1.18 0 0 1-1.672 0L1.822.337C1.433-.052.812-.115.392.232a1.037 1.037 0 0 0-.084 1.546l2.377 2.377a1.18 1.18 0 0 1 0 1.672L.308 8.214a1.048 1.048 0 0 0 .736 1.788c.263 0 .536-.105.736-.305L4.167 7.31a1.18 1.18 0 0 1 1.672 0l2.377 2.377c.2.2.473.305.736.305.252 0 .515-.095.715-.284.431-.41.41-1.115-.011-1.535L7.322 5.837a1.195 1.195 0 0 1 0-1.683z"/></svg>