<svg version="1" id="Layer_1" xmlns="http://www.w3.org/2000/svg" x="0" y="0" width="24.33" height="24.33" viewBox="0 0 24.33 24.33" xml:space="preserve"><path fill="#FFF" d="M23.152 17.988l-3.533-2.468a2.728 2.728 0 0 0-3.797.675l-.82 1.175c-1.374-.922-2.908-2.209-4.37-3.671-1.462-1.462-2.749-2.995-3.67-4.37l1.175-.82a2.705 2.705 0 0 0 1.126-1.758 2.712 2.712 0 0 0-.451-2.039L6.344 1.179A2.73 2.73 0 0 0 4.116 0c-.304 0-.603.054-.888.159A4.885 4.885 0 0 0 2.31.61l-.488.343a3.599 3.599 0 0 0-.344.308C.883 1.855.46 2.608.222 3.499-.795 7.311 1.724 13.075 6.49 17.841c4.002 4.002 8.811 6.489 12.548 6.489a6.97 6.97 0 0 0 1.794-.222c.89-.238 1.643-.66 2.239-1.256.108-.108.211-.222.322-.365l.344-.49c.168-.268.314-.569.435-.895.416-1.123-.004-2.404-1.02-3.114zm-.002 2.736a3.812 3.812 0 0 1-.321.67l-.312.445-.217.243c-.458.457-1.046.785-1.749.973a5.893 5.893 0 0 1-1.512.184c-3.459-.001-7.972-2.364-11.778-6.17C2.832 12.639.37 7.175 1.276 3.78c.188-.703.515-1.291.973-1.749l.221-.201.442-.312c.207-.13.441-.243.694-.337.163-.06.335-.091.51-.091.523 0 1.021.267 1.333.713l2.467 3.532c.252.361.348.795.272 1.225-.076.43-.316.804-.675 1.055L5.905 8.737a.544.544 0 0 0-.15.737c.973 1.548 2.431 3.322 4.105 4.996 1.674 1.674 3.449 3.132 4.996 4.106a.546.546 0 0 0 .737-.15l1.122-1.608c.498-.714 1.561-.905 2.279-.405l3.532 2.468c.611.427.867 1.185.624 1.843z"/></svg>