<svg version="1.1" id="Layer_1" xmlns="http://www.w3.org/2000/svg" x="0" y="0" width="60" height="65" viewBox="0 0 60 65" xml:space="preserve"><g fill="#FF5A00"><path d="M43.771 29.344l-.043-.121-.013-.037-6.147-10.197a.604.604 0 0 0-.519-.294H7.018a.604.604 0 0 0-.519.294L.353 29.187l-.013.037-.043.121-.023.112-.009.043v2.381c0 1.866 1.074 3.471 2.625 4.278v25.469c0 .335.271.607.607.607H40.57a.607.607 0 0 0 .607-.607V36.159c1.552-.807 2.625-2.412 2.625-4.278V29.5l-.009-.043-.022-.113zm-1.649-.451h-6.966l-3.249-8.983h4.8l5.415 8.983zm-23.776-8.982l-1.083 8.983H10.2l3.249-8.983h4.897zm12.271 0l3.249 8.983h-7.063l-1.083-8.983h4.897zm-5.036 8.982h-7.097l1.083-8.983h4.931l1.083 8.983zM9.942 30.107h7.251v1.774c0 1.999-1.626 3.626-3.626 3.626s-3.626-1.626-3.626-3.626v-1.774zm8.465 0h7.251v1.774c0 1.999-1.626 3.626-3.626 3.626s-3.626-1.626-3.626-3.626v-1.774zm8.465 0h7.251v1.774c0 1.999-1.626 3.626-3.626 3.626s-3.626-1.626-3.626-3.626v-1.774zM7.361 19.911h4.799l-3.25 8.982H1.945l5.416-8.982zm-5.882 11.97v-1.774h7.25v1.774a3.63 3.63 0 0 1-3.624 3.626 3.63 3.63 0 0 1-3.626-3.626zm8.463 29.14V49.413h7.866v11.608H9.942zm30.021 0H19.022V48.806a.607.607 0 0 0-.607-.607h-9.08a.607.607 0 0 0-.607.607v12.215H4.104V36.614c.323.068.657.107 1 .107 1.832 0 3.41-1.036 4.231-2.542.821 1.506 2.4 2.542 4.232 2.542 1.832 0 3.411-1.036 4.232-2.542.821 1.506 2.4 2.542 4.232 2.542 1.832 0 3.411-1.036 4.232-2.542.821 1.506 2.4 2.542 4.232 2.542s3.411-1.036 4.232-2.542c.821 1.506 2.4 2.542 4.232 2.542.343 0 .677-.039 1-.107v24.407zm2.625-29.14a3.63 3.63 0 0 1-3.626 3.626 3.63 3.63 0 0 1-3.626-3.626v-1.774h7.251v1.774z"/><path d="M35.726 39.769H23.021a.607.607 0 0 0-.607.607v7.494c0 .335.271.607.607.607h12.704a.607.607 0 0 0 .607-.607v-7.494a.605.605 0 0 0-.606-.607zm-.607 7.494H23.628v-6.281h11.491v6.281zM50.733 2.765c-4.963 0-9.001 4.038-9.001 9.001 0 6.924 8.209 15.748 8.559 16.12a.603.603 0 0 0 .884 0c.35-.372 8.56-9.195 8.56-16.12 0-4.963-4.038-9.001-9.002-9.001zm0 23.799c-1.71-1.94-7.787-9.229-7.787-14.799 0-4.294 3.493-7.787 7.787-7.787s7.788 3.493 7.788 7.787c0 5.566-6.078 12.858-7.788 14.799z"/><path d="M50.733 7.639c-2.276 0-4.127 1.851-4.127 4.127s1.851 4.127 4.127 4.127 4.127-1.851 4.127-4.127-1.851-4.127-4.127-4.127zm0 7.04c-1.606 0-2.913-1.307-2.913-2.913s1.307-2.913 2.913-2.913 2.913 1.307 2.913 2.913-1.307 2.913-2.913 2.913z"/></g></svg>