<svg version="1.1" id="Layer_1" xmlns="http://www.w3.org/2000/svg" x="0" y="0" width="15.36" height="15.36" viewBox="0 0 15.36 15.36" xml:space="preserve"><path d="M.004 7.699l3.015-3.015 2.968 3.015-2.968 2.968L.004 7.699zm7.699 1.67l2.968 3.015-2.968 2.968-3.015-2.968 3.015-3.015zM4.688 3.015L7.703 0l2.968 3.015-2.968 2.968-3.015-2.968zm7.7 1.669l2.968 3.015-2.968 2.968-3.015-2.968 3.015-3.015z"/><path d="M.004 7.699l3.015-3.015 2.968 3.015-2.968 2.968L.004 7.699zm7.699 1.67l2.968 3.015-2.968 2.968-3.015-2.968 3.015-3.015zM4.688 3.015L7.703 0l2.968 3.015-2.968 2.968-3.015-2.968zm7.7 1.669l2.968 3.015-2.968 2.968-3.015-2.968 3.015-3.015z"/></svg>