<svg version="1" id="Layer_1" xmlns="http://www.w3.org/2000/svg" x="0" y="0" width="24.42" height="24.42" viewBox="0 0 24.42 24.42" xml:space="preserve"><path fill="none" stroke="#FFF" stroke-width=".526" stroke-miterlimit="10" d="M17.894.188H6.526C3.04.188.188 3.101.188 6.661V17.76c0 3.56 2.852 6.473 6.338 6.473h11.369c3.486 0 6.338-2.913 6.338-6.473V6.66C24.232 3.101 21.38.188 17.894.188z"/><path fill="#FFF" d="M18.595 7.775a4.992 4.992 0 0 1-1.615.631 2.505 2.505 0 0 0-1.854-.822c-1.402 0-2.54 1.167-2.54 2.605 0 .204.022.403.065.593-2.111-.108-3.983-1.144-5.237-2.722a2.66 2.66 0 0 0-.343 1.311c0 .903.449 1.701 1.13 2.168a2.493 2.493 0 0 1-1.151-.325v.032c0 1.263.876 2.316 2.039 2.555a2.507 2.507 0 0 1-1.148.046c.323 1.035 1.261 1.788 2.373 1.808a5.019 5.019 0 0 1-3.762 1.08 7.077 7.077 0 0 0 3.895 1.17c4.674 0 7.229-3.969 7.229-7.413a7.56 7.56 0 0 0-.007-.338 5.23 5.23 0 0 0 1.267-1.348 4.981 4.981 0 0 1-1.459.41 2.594 2.594 0 0 0 1.118-1.441z"/></svg>