<svg version="1.1" id="Layer_1" xmlns="http://www.w3.org/2000/svg" x="0" y="0" width="60" height="65" viewBox="0 0 60 65" xml:space="preserve"><g fill="#FF5A00"><path d="M26.373 27.826v.5h8.822l-4.818-9.485-4.819 9.485h.815v-.5l.445.227 3.559-7.004 3.188 6.277h-7.192v.5l.445.227zm-3.737-10.918v.5a1.297 1.297 0 1 0-.002-2.594 1.297 1.297 0 0 0 .002 2.594v-1a.299.299 0 0 1-.298-.296c0-.161.134-.296.298-.296.162 0 .295.134.296.296a.299.299 0 0 1-.296.296v.5zm2.512 4.835l-.463-.191-2.787 6.774h3.581l1.611-3.173-1.942-4.725-.463 1.124.463.191-.463.19 1.306 3.176-1.125 2.217h-1.475l2.219-5.393-.462-.19-.463.19zm9.132 3.52l-.446.226 1.439 2.837h3.367l-3.245-6.341-1.676 3.277.115.227.446-.226.445.228.67-1.31 1.61 3.145h-1.118l-1.161-2.289-.446.226.445.228z"/><path d="M38.742 1.184l-.453-.212C36.644 4.473 33.52 6.583 30 6.59h.001C26.48 6.583 23.356 4.473 21.71.971l-.246-.525-.483.32C14.768 4.884 11.523 7.182 9.22 9.725c-2.304 2.548-3.59 5.272-5.903 10.142a394.51 394.51 0 0 1-3.052 6.32l-.21.423 10.224 5.805 4.219-11.095.032-.022h.005l.003.001h-.003l.029.032c.216 3.576.321 7.433.321 11.407 0 10.088-.677 20.937-1.924 29.891l-.067.479.477.082a94.711 94.711 0 0 0 16.08 1.363l.547-.002-.003-.5-.003.5.549.001c5.448 0 10.856-.458 16.083-1.362l.477-.082-.067-.479c-1.247-8.955-1.924-19.805-1.924-29.893 0-3.974.105-7.83.321-11.406l.03-.032.01-.002-.01.002h.005l.033.023 4.219 11.095 10.224-5.804-.21-.424a394.51 394.51 0 0 1-3.052-6.32c-2.313-4.869-3.599-7.593-5.903-10.142-2.303-2.543-5.548-4.841-11.762-8.958l-.483-.32-.246.525.456.211-.276.417c6.21 4.111 9.395 6.385 11.572 8.795 2.177 2.405 3.423 5.015 5.741 9.9a398.762 398.762 0 0 0 3.059 6.336l.448-.222-.247-.435-8.799 4.995-3.805-10.005a1.037 1.037 0 0 0-.967-.667l-.156.012a1.036 1.036 0 0 0-.877.96 191.456 191.456 0 0 0-.323 11.466c0 10.133.679 21.016 1.934 30.031l.495-.069-.085-.493a93.617 93.617 0 0 1-15.913 1.348l-.544-.001h-.006l-.541.002a93.616 93.616 0 0 1-15.91-1.348l-.085.493.495.069c1.255-9.014 1.934-19.896 1.934-30.029 0-3.992-.105-7.868-.323-11.468a1.034 1.034 0 0 0-.877-.96l-.156-.012c-.424 0-.812.26-.967.667L9.759 30.969.96 25.974l-.247.435.448.222a386.224 386.224 0 0 0 3.059-6.336c2.318-4.885 3.564-7.495 5.741-9.9 2.178-2.41 5.362-4.684 11.572-8.795l-.276-.417-.453.212C22.583 5.202 26.065 7.588 30 7.59h.002c3.934-.003 7.416-2.388 9.194-6.194l-.454-.212-.276.417.276-.417zM22.636 14.246v.5a1.371 1.371 0 0 1 1.366 1.366 1.371 1.371 0 0 1-1.366 1.366 1.371 1.371 0 0 1-1.368-1.366 1.373 1.373 0 0 1 1.368-1.366v-1a2.369 2.369 0 0 0-2.368 2.366 2.368 2.368 0 0 0 4.734 0 2.368 2.368 0 0 0-2.366-2.366v.5zM38.7 28.896v-.5H21.845l-.029-.015-.006-.02.003-.013 3.302-8.025.032-.022.032.021 1.952 4.75 3.214-6.324.031-.019.031.019.002.005 3.268 6.434 1.685-3.295.031-.019.031.019 3.291 6.43.013.02.005.019-.033.035v1a1.034 1.034 0 0 0 .872-1.593l-.421.269.445-.228-3.28-6.408a1.034 1.034 0 0 0-1.842.001l-.791 1.548-2.383-4.69a1.034 1.034 0 0 0-1.846 0l-2.226 4.381-1.123-2.733a1.035 1.035 0 0 0-1.914-.001l-3.302 8.025a1.04 1.04 0 0 0 .097.97c.192.287.514.459.86.459H38.7v-.5z"/></g></svg>