<svg version="1.1" id="Layer_1" xmlns="http://www.w3.org/2000/svg" x="0" y="0" width="20" height="20" viewBox="0 0 20 20" xml:space="preserve"><path fill="#FF5A00" d="M16.261 17.743h3.252c.243 0 .442.199.442.442s-.199.442-.442.442h-4.425a.443.443 0 0 1-.442-.442V13.76c0-.243.199-.442.442-.442s.442.199.442.442v3.429a9.056 9.056 0 0 0 3.54-7.19C19.07 5 15 .93 10 .93S.93 5 .93 10 5 19.07 10 19.07a.443.443 0 0 1 0 .885C4.513 19.955.045 15.486.045 10 .045 4.513 4.514.045 10 .045c5.487 0 9.955 4.469 9.955 9.955a9.983 9.983 0 0 1-3.694 7.743z"/></svg>