<svg version="1.1" id="Layer_1" xmlns="http://www.w3.org/2000/svg" x="0" y="0" width="60" height="65" viewBox="0 0 60 65" xml:space="preserve"><g fill="#FF5A00"><path d="M50.775 26.351a.521.521 0 0 0-.423-.357l-13.745-1.938-6.144-12.083c-.178-.349-.75-.349-.927 0l-6.144 12.083-13.745 1.938a.521.521 0 0 0-.285.893l9.936 9.401-2.345 13.27a.519.519 0 0 0 .749.553l8.821-4.501a.521.521 0 0 0-.473-.927l-7.891 4.026 2.212-12.518a.52.52 0 0 0-.155-.468l-9.356-8.851 12.944-1.825a.522.522 0 0 0 .391-.279L30 13.356l5.803 11.413a.52.52 0 0 0 .391.279l12.944 1.825-9.356 8.851a.52.52 0 0 0-.155.468l2.212 12.518-11.603-5.92a.52.52 0 0 0-.473 0l-1.726.881a.521.521 0 0 0 .473.927l1.49-.76 12.297 6.275.236.057a.523.523 0 0 0 .512-.61L40.7 36.29l9.936-9.401a.52.52 0 0 0 .139-.538z"/><path d="M26.305 37.938A7.003 7.003 0 0 0 30 38.988c3.32 0 6.213-2.358 6.877-5.606a.52.52 0 1 0-1.019-.209 5.997 5.997 0 0 1-5.859 4.774 5.963 5.963 0 0 1-3.147-.894.518.518 0 0 0-.716.168.523.523 0 0 0 .169.717zM30 25.989a5.999 5.999 0 0 1 5.859 4.774.52.52 0 1 0 1.019-.209c-.664-3.248-3.557-5.606-6.877-5.606a7.028 7.028 0 0 0-7.02 7.02c0 1.361.39 2.681 1.128 3.818a.518.518 0 0 0 .72.153.52.52 0 0 0 .153-.719 5.96 5.96 0 0 1-.961-3.252A5.985 5.985 0 0 1 30 25.989zm-13.552-6.837a.518.518 0 0 0 .736 0 .52.52 0 0 0 0-.735l-1.891-1.891a.52.52 0 1 0-.735.735l1.89 1.891zm2.519 2.519a.518.518 0 0 0 .736 0 .52.52 0 0 0 0-.735l-1.338-1.338a.52.52 0 1 0-.735.735l1.337 1.338zm-6.359 16.764l-2.568 1.039a.52.52 0 0 0 .195 1.002l.195-.038 2.568-1.039a.52.52 0 0 0-.39-.964zm3.214-1.301l-1.268.513a.52.52 0 0 0 .195 1.002l.195-.038 1.268-.513a.52.52 0 0 0-.39-.964zM30 46.529a.52.52 0 0 0-.52.52v1.213a.52.52 0 0 0 1.04 0v-1.213a.52.52 0 0 0-.52-.52zm0 2.946a.52.52 0 0 0-.52.52v2.773a.52.52 0 0 0 1.04 0v-2.773a.52.52 0 0 0-.52-.52zm16.285-11.488l-2.107-.853a.52.52 0 0 0-.39.964l2.107.853.195.038a.52.52 0 0 0 .195-1.002zm3.675 1.487l-1.926-.779a.52.52 0 1 0-.39.964l1.926.779.195.038a.52.52 0 0 0 .195-1.002zm-9.295-17.65a.522.522 0 0 0 .368-.152l1.831-1.831a.52.52 0 1 0-.735-.735l-1.831 1.831a.52.52 0 0 0 .367.887zm3.318-3.318a.522.522 0 0 0 .368-.152l1.092-1.092a.52.52 0 1 0-.735-.735l-1.092 1.092a.52.52 0 0 0 .367.887z"/></g></svg>