<svg version="1" id="Layer_1" xmlns="http://www.w3.org/2000/svg" x="0" y="0" viewBox="0 0 22.12 24.332" xml:space="preserve"><path d="M11.06 0C7.811 0 5.161 2.65 5.161 5.899s2.65 5.899 5.899 5.899 5.899-2.65 5.899-5.899A5.91 5.91 0 0 0 11.06 0zm0 1.475a4.413 4.413 0 0 1 4.424 4.424c0 2.452-1.972 4.424-4.424 4.424S6.636 8.351 6.636 5.899a4.413 4.413 0 0 1 4.424-4.424zm0 11.06C4.958 12.535 0 17.32 0 23.272v1.06h1.475v-1.06c0-5.135 4.25-9.263 9.585-9.263s9.585 4.127 9.585 9.263v1.06h1.475v-1.06c0-5.952-4.958-10.737-11.06-10.737z"/></svg>