<svg version="1.1" id="Layer_1" xmlns="http://www.w3.org/2000/svg" x="0" y="0" width="24.3" height="16.6" viewBox="0 0 24.3 16.6" xml:space="preserve"><g fill="#FF5A00"><path d="M2.062.444v.443h20.177a1.176 1.176 0 0 1 1.175 1.175v12.476a1.176 1.176 0 0 1-1.175 1.175H2.062a1.176 1.176 0 0 1-1.175-1.175V2.062A1.176 1.176 0 0 1 2.062.887V.001A2.062 2.062 0 0 0 0 2.062v12.476a2.06 2.06 0 0 0 2.061 2.061h20.177a2.06 2.06 0 0 0 2.061-2.061V2.062A2.06 2.06 0 0 0 22.238.001H2.062v.443z"/><path d="M22.407 1.233L13.35 10.29a1.695 1.695 0 0 1-2.399 0L1.859 1.199l-.626.626 9.091 9.091a2.58 2.58 0 0 0 3.653-.001l9.057-9.057-.627-.625z"/><path d="M15.764 8.613l6.643 6.644.627-.626-6.644-6.644M1.859 15.223l6.61-6.61-.627-.626-6.609 6.61"/></g></svg>