<svg version="1.1" id="Layer_1" xmlns="http://www.w3.org/2000/svg" x="0" y="0" width="60" height="65" viewBox="0 0 60 65" xml:space="preserve"><g fill="#FF5A00"><path d="M8.279 24.014H21.51v1.628H8.279zm-2.92 3.287h14.122v1.628H5.359zm7.061 3.287h11.727v1.628H12.42zM.354 33.875h26.913v1.628H.354zm29.955-7.083v5.428h3.876v-1.627h-2.248v-3.801z"/><path d="M24.85 36.796a8.258 8.258 0 0 0 6.273 2.89c4.565 0 8.28-3.714 8.28-8.28s-3.714-8.28-8.28-8.28v1.628c3.668 0 6.652 2.984 6.652 6.652s-2.984 6.653-6.652 6.653a6.606 6.606 0 0 1-3.884-1.263H24.85z"/><path d="M59.823 29.052l-9.216-10.724H15.824v2.224h1.628v-.596H49.86l8.335 9.699v11.564h-1.618a3.67 3.67 0 0 0-3.565-2.81 3.667 3.667 0 0 0-3.564 2.81H26.143a3.668 3.668 0 0 0-3.565-2.81 3.668 3.668 0 0 0-3.564 2.81h-1.562v-2.628h1.404v-1.628H7.53v1.628h8.295v4.256h3.167a3.67 3.67 0 0 0 7.175 0h23.258a3.67 3.67 0 0 0 7.175 0h3.223V29.052zM22.579 44.381a2.303 2.303 0 1 1 0-4.606 2.303 2.303 0 0 1 0 4.606zm30.434 0a2.303 2.303 0 1 1 0-4.606 2.303 2.303 0 0 1 0 4.606z"/><path d="M45.634 21.419v8.447h8.448v-1.578h-6.87v-6.869z"/></g></svg>