<svg version="1.1" id="Layer_1" xmlns="http://www.w3.org/2000/svg" x="0" y="0" width="15.36" height="11.3" viewBox="0 0 15.36 11.3" xml:space="preserve"><path d="M9.524 11.3h-7.74c-.982 0-1.78-.798-1.78-1.78V1.78C.004.798.803 0 1.784 0h7.74c.913 0 2.138.564 2.732 1.257l2.629 3.067c.627.731.627 1.921 0 2.653l-2.629 3.067c-.593.693-1.819 1.256-2.732 1.256zM1.784.464c-.726 0-1.316.59-1.316 1.316v7.74c0 .726.59 1.316 1.316 1.316h7.74c.781 0 1.871-.501 2.379-1.094l2.629-3.067c.476-.555.476-1.493 0-2.048L11.903 1.56C11.395.967 10.305.466 9.524.466L1.784.464z"/><path d="M9.524 6.98H3.332a.232.232 0 0 1 0-.464h6.192a.232.232 0 0 1 0 .464zm0-2.195H3.332a.232.232 0 0 1 0-.465h6.192a.232.232 0 0 1 0 .465z"/><path d="M7.526 8.978a.232.232 0 0 1-.232-.232V2.554a.232.232 0 0 1 .464 0v6.192a.232.232 0 0 1-.232.232zm-2.195 0a.232.232 0 0 1-.232-.232V2.554a.232.232 0 0 1 .464 0v6.192a.232.232 0 0 1-.232.232z"/><circle cx="12.638" cy="5.65" r=".677"/></svg>