<svg version="1" id="Layer_1" xmlns="http://www.w3.org/2000/svg" x="0" y="0" width="24.42" height="24.42" viewBox="0 0 24.42 24.42" xml:space="preserve"><path fill="none" stroke="#FFF" stroke-width=".524" stroke-miterlimit="10" d="M17.86.214H6.56C3.095.214.26 3.12.26 6.672v11.074c0 3.552 2.835 6.458 6.3 6.458h11.3c3.465 0 6.3-2.906 6.3-6.458V6.673c0-3.552-2.835-6.459-6.3-6.459z"/><path fill="#FFF" d="M13.569 8.118h1.812V5.391h-2.086c-2.954 0-2.884 2.39-2.884 2.747v1.8H9.04v2.728h1.371v6.365h2.705v-6.365h1.812l.453-2.728h-2.264V8.573c-.001-.298.169-.455.452-.455z"/></svg>