<svg version="1.1" id="Layer_1" xmlns="http://www.w3.org/2000/svg" x="0" y="0" width="13.3" height="18.41" viewBox="0 0 13.3 18.41" xml:space="preserve"><path d="M1.636 6.577a1.627 1.627 0 1 1 0 3.254 1.627 1.627 0 0 1 0-3.254zm5.014 0a1.627 1.627 0 1 1 0 3.254 1.627 1.627 0 0 1 0-3.254zm5.014 0a1.627 1.627 0 1 1 0 3.254 1.627 1.627 0 0 1 0-3.254zm-10.028.498a1.129 1.129 0 1 0 0 2.258 1.129 1.129 0 0 0 0-2.258zm5.014 0a1.129 1.129 0 1 0 0 2.258 1.129 1.129 0 0 0 0-2.258zm5.014 0a1.129 1.129 0 1 0 0 2.258 1.129 1.129 0 0 0 0-2.258z"/></svg>