<svg version="1.1" id="Layer_1" xmlns="http://www.w3.org/2000/svg" x="0" y="0" width="32.02" height="32.044" viewBox="0 0 32.02 32.044" xml:space="preserve"><path fill="#FF5A00" d="M29.063 28.234c1.366-1.402 1.366-3.271 0-4.636l-3.738-3.738c-.647-.683-1.438-1.042-2.3-1.042-.827 0-1.617.359-2.3 1.042l-2.156 2.156c-.18-.108-.359-.18-.539-.288-.252-.108-.467-.252-.683-.359-2.013-1.258-3.846-2.947-5.571-5.068-.863-1.078-1.438-1.977-1.833-2.911.539-.503 1.078-1.042 1.581-1.545l.575-.575c.683-.683 1.078-1.51 1.078-2.336 0-.827-.359-1.617-1.078-2.336l-1.833-1.869c-.216-.216-.432-.431-.611-.647a21.024 21.024 0 0 0-1.258-1.258c-.647-.647-1.438-1.006-2.264-1.006s-1.617.359-2.3 1.006L1.496 5.16C.634 6.023.131 7.065.023 8.287c-.144 1.977.431 3.81.863 5.032 1.078 2.947 2.731 5.715 5.175 8.662 2.983 3.558 6.541 6.326 10.602 8.302 1.545.755 3.63 1.617 5.966 1.761h.431c1.545 0 2.875-.575 3.882-1.689l.036-.036a12.61 12.61 0 0 1 1.186-1.222c.324-.252.611-.539.899-.863zm-2.121-.395c-.431.431-.899.863-1.294 1.366-.683.755-1.51 1.078-2.552 1.078h-.323c-2.013-.18-3.882-.934-5.319-1.617-3.846-1.869-7.188-4.493-9.991-7.835-2.3-2.767-3.846-5.355-4.888-8.123-.647-1.689-.863-3.019-.755-4.241.072-.791.395-1.438.934-2.013l2.3-2.3c.324-.324.683-.503 1.043-.503.431 0 .791.252 1.042.503.431.395.791.791 1.222 1.222l.647.647 1.833 1.833c.359.359.539.719.539 1.078s-.18.719-.539 1.078l-.575.575a72.36 72.36 0 0 1-1.689 1.653l-.036.036c-.575.575-.467 1.15-.359 1.51l.036.072c.467 1.15 1.15 2.264 2.192 3.558 1.869 2.3 3.846 4.097 6.002 5.463.288.18.575.323.827.467.252.108.467.252.683.359l.072.036c.216.108.431.18.647.18.539 0 .899-.359 1.006-.467l2.336-2.336c.216-.216.611-.503 1.042-.503.431 0 .755.288 1.006.503l3.738 3.738c.863.863.467 1.653-.036 2.156-.216.288-.503.539-.791.827zM16.591 6.526a.855.855 0 0 1 1.042-.719c2.156.359 4.097 1.366 5.643 2.947s2.552 3.522 2.947 5.643c.072.503-.252.97-.719 1.042h-.144a.923.923 0 0 1-.899-.755 8.451 8.451 0 0 0-2.444-4.672 8.814 8.814 0 0 0-4.672-2.444c-.538-.072-.862-.539-.754-1.042zm13.658 7.907c-.539-3.163-2.049-6.038-4.313-8.338a15.35 15.35 0 0 0-8.338-4.313.855.855 0 0 1-.719-1.042c.108-.503.539-.827 1.042-.719 3.486.575 6.721 2.228 9.273 4.78s4.241 5.786 4.816 9.309c.072.503-.252.97-.719 1.042h-.144c-.431.036-.826-.288-.898-.719z"/></svg>