<svg version="1" id="Layer_1" xmlns="http://www.w3.org/2000/svg" x="0" y="0" width="29.664" height="30" viewBox="0 0 29.664 30" xml:space="preserve"><g fill="#0071BC"><path d="M23.112 18.638a12.23 12.23 0 0 0 1.604-6.065c0-6.788-5.522-12.31-12.31-12.31S.096 5.785.096 12.573s5.522 12.31 12.31 12.31c2.204 0 4.272-.585 6.063-1.603l5.495 5.495c.62.62 1.444.961 2.321.961s1.701-.341 2.321-.961a3.26 3.26 0 0 0 .961-2.321c0-.877-.342-1.701-.961-2.321l-5.494-5.495zM12.406 1.905c5.882 0 10.668 4.786 10.668 10.668s-4.786 10.668-10.668 10.668S1.738 18.456 1.738 12.573 6.524 1.905 12.406 1.905zm15.04 25.709a1.63 1.63 0 0 1-1.161.481c-.439 0-.851-.171-1.16-.481l-5.259-5.259a12.382 12.382 0 0 0 2.321-2.321l5.258 5.259c.31.31.481.722.481 1.16.001.439-.17.851-.48 1.161z"/><path d="M12.406 21.6c4.978 0 9.027-4.049 9.027-9.027s-4.049-9.027-9.027-9.027-9.027 4.049-9.027 9.027S7.428 21.6 12.406 21.6zm0-16.413c4.073 0 7.386 3.313 7.386 7.386s-3.313 7.386-7.386 7.386-7.386-3.313-7.386-7.386 3.313-7.386 7.386-7.386z"/><path d="M7.482 13.394a.82.82 0 0 0 .821-.821 4.108 4.108 0 0 1 4.103-4.103.82.82 0 1 0 0-1.642 5.752 5.752 0 0 0-5.745 5.745.82.82 0 0 0 .821.821z"/></g></svg>