<svg version="1.1" id="Layer_1" xmlns="http://www.w3.org/2000/svg" x="0" y="0" width="30.349" height="31.79" viewBox="0 0 30.349 31.79" xml:space="preserve"><path fill="#FF5A00" d="M22.209-.001c-4.483 0-8.141 3.636-8.141 8.107v.011c.041 2.347 1.292 4.534 2.823 6.549 1.531 2.015 3.378 3.873 4.765 5.487a.723.723 0 0 0 1.019.076l.076-.076c1.386-1.614 3.242-3.472 4.776-5.487 1.534-2.015 2.782-4.201 2.823-6.549v-.012c-.001-4.472-3.659-8.106-8.141-8.106zm0 1.445c3.701 0 6.689 2.969 6.695 6.65v.011c-.036 1.832-1.079 3.774-2.529 5.679-1.284 1.686-2.824 3.307-4.166 4.821-1.343-1.515-2.884-3.133-4.166-4.821-1.447-1.905-2.493-3.847-2.529-5.679v-.011c.005-3.682 2.994-6.65 6.695-6.65zm0 4.584a2.086 2.086 0 0 0-2.089 2.089c0 1.154.931 2.089 2.089 2.089 1.157 0 2.1-.934 2.1-2.089a2.095 2.095 0 0 0-2.1-2.089zm-13.12.034l-.215.034L.508 8.681A.723.723 0 0 0 0 9.37v21.7a.723.723 0 0 0 .724.721l.213-.033 8.152-2.518 8.152 2.518a.73.73 0 0 0 .429 0l8.366-2.586a.723.723 0 0 0 .508-.689v-7.711a.723.723 0 0 0-1.445-.021v7.201l-6.921 2.123V18.041a.723.723 0 0 0-.707-.738l-.095.004a.723.723 0 0 0-.644.734v12.036l-6.921-2.123V9.912a.721.721 0 0 0-.706-.738l-.095.004a.723.723 0 0 0-.644.734v18.042l-6.921 2.123V9.901l7.644-2.36 2.777.858a.724.724 0 0 0 .512-1.352l-.083-.026-2.992-.925-.214-.034z"/></svg>