<svg version="1.1" id="Layer_1" xmlns="http://www.w3.org/2000/svg" x="0" y="0" width="27" height="27" viewBox="0 0 27 27" xml:space="preserve"><path fill="#FFF" d="M12.406.4v11.688a.317.317 0 0 1-.317.317H.4a.317.317 0 0 1-.317-.317V.4C.083.225.225.083.4.083h11.688c.176 0 .318.142.318.317zM26.6.083H14.911a.317.317 0 0 0-.317.317v11.688c0 .175.142.317.317.317H26.6a.317.317 0 0 0 .317-.317V.4A.317.317 0 0 0 26.6.083zM.4 26.917h11.688a.317.317 0 0 0 .317-.317V14.911a.317.317 0 0 0-.317-.317H.4a.317.317 0 0 0-.317.317V26.6c0 .175.142.317.317.317zm26.2-12.323H14.911a.317.317 0 0 0-.317.317V26.6c0 .175.142.317.317.317H26.6a.317.317 0 0 0 .317-.317V14.911a.317.317 0 0 0-.317-.317z"/></svg>