<svg version="1.1" id="Layer_1" xmlns="http://www.w3.org/2000/svg" x="0" y="0" width="15.36" height="18.41" viewBox="0 0 15.36 18.41" xml:space="preserve"><path d="M14.126 18.409H1.234c-.678 0-1.23-.527-1.23-1.174V1.175C.004.528.556.001 1.234.001h12.892c.678 0 1.23.526 1.23 1.174v16.06c0 .647-.552 1.174-1.23 1.174zM1.234.828c-.222 0-.404.156-.404.347v16.06c0 .192.182.347.404.347h12.892c.223 0 .403-.156.403-.347V1.175c0-.192-.18-.347-.403-.347H1.234z"/><path d="M11.127 3.456H2.742a.413.413 0 0 1 0-.826h8.385a.412.412 0 1 1 0 .826zM7.95 5.62H2.742a.413.413 0 0 1 0-.826H7.95a.414.414 0 1 1 0 .826zm3.177 2.164H2.742a.413.413 0 0 1 0-.826h8.385a.412.412 0 1 1 0 .826zM6.375 9.948H2.742a.412.412 0 1 1 0-.826h3.633a.413.413 0 0 1 0 .826zm.846 6.719a.41.41 0 0 1-.261-.093l-3.699-3.02a.412.412 0 0 1-.032-.61l.828-.837a.411.411 0 0 1 .55-.032L6.89 13.89l4.654-4.646a.414.414 0 0 1 .633.527l-4.616 6.718a.415.415 0 0 1-.282.175l-.058.003zm-3.085-3.465l2.999 2.448 1.829-2.662-1.75 1.747a.412.412 0 0 1-.548.031l-2.282-1.814-.248.25z"/></svg>