<svg version="1.1" id="Layer_1" xmlns="http://www.w3.org/2000/svg" x="0" y="0" width="20" height="20" viewBox="0 0 20 20" xml:space="preserve"><path fill="#FFF" d="M6.265 3.936c-.323 2.337-.222 2.641 1.958 6.17.524.849.124 1.594-.76 2.185-.294.197-.642.385-1.164.643-.149.074-.843.41-.648.315-.267.13-.466.229-.66.328-1.767.906-2.58 1.683-2.58 2.616 0 1.902 3.852 2.992 7.588 2.992s7.588-1.09 7.588-2.992c0-.933-.813-1.71-2.58-2.616a34.775 34.775 0 0 0-.66-.328l-.648-.315c-.522-.258-.87-.446-1.164-.643-.884-.591-1.284-1.337-.76-2.185 2.18-3.529 2.281-3.832 1.958-6.17-.254-1.839-2.093-3.122-3.7-3.122-1.625 0-3.515 1.293-3.768 3.122zm-.791-.109C5.84 1.177 8.547.016 10.035.016s4.125 1.161 4.491 3.811c.375 2.716.042 3.281-2.07 6.699-.991 1.604 5.931 2.316 5.931 5.668 0 3.32-6.668 3.791-8.387 3.791s-8.387-.471-8.387-3.791c0-3.352 6.922-4.064 5.931-5.668-2.112-3.418-2.445-3.983-2.07-6.699z"/></svg>