<svg version="1.1" id="Layer_1" xmlns="http://www.w3.org/2000/svg" x="0" y="0" width="18" height="18" viewBox="0 0 18 18" xml:space="preserve"><g fill="#FFF"><path d="M13.478 17.956a1.921 1.921 0 0 1-1.919-1.919c0-1.058.861-1.919 1.919-1.919s1.919.861 1.919 1.919a1.921 1.921 0 0 1-1.919 1.919zm0-2.559a.642.642 0 0 0-.64.64c0 .352.288.64.64.64.352 0 .64-.288.64-.64a.642.642 0 0 0-.64-.64zm-6.397 2.559a1.921 1.921 0 0 1-1.919-1.919c0-1.058.861-1.919 1.919-1.919S9 14.979 9 16.037a1.921 1.921 0 0 1-1.919 1.919zm0-2.559a.641.641 0 0 0 0 1.28.641.641 0 0 0 0-1.28zm0-5.118a.641.641 0 0 1-.573-.353l-4.3-8.603H.684a.64.64 0 0 1 0-1.28h1.919c.242 0 .463.137.572.353l4.478 8.956a.639.639 0 0 1-.572.927z"/><path d="M14.757 12.838H7.081c-1.058 0-1.919-.861-1.919-1.919S6.023 9 7.081 9h6.035l3.651-6.086a.641.641 0 0 1 1.098.659L14.027 9.97a.64.64 0 0 1-.549.31H7.081a.641.641 0 0 0 0 1.28h7.676a.64.64 0 0 1 0 1.278zm-1.279-8.956H8.36a.64.64 0 0 1 0-1.28h5.118a.64.64 0 0 1 0 1.28z"/><path d="M10.919 6.441a.64.64 0 0 1-.64-.64V.684a.64.64 0 0 1 1.28 0v5.118a.64.64 0 0 1-.64.639z"/></g></svg>