<svg version="1.1" id="Layer_1" xmlns="http://www.w3.org/2000/svg" x="0" y="0" width="15.36" height="18.41" viewBox="0 0 15.36 18.41" xml:space="preserve"><path d="M6.466 17.556l.7.493.514.365.514-.365.7-.493c1.314-.923 2.668-1.876 3.755-2.91 1.616-1.543 2.367-2.997 2.367-4.604V2.684L7.68-.004.344 2.684v7.358c0 1.607.751 3.061 2.365 4.604 1.083 1.033 2.443 1.987 3.757 2.91zm-4.343-7.514V3.927L7.68 1.89l5.557 2.036v6.115c0 1.08-.578 2.134-1.816 3.317-.985.94-2.287 1.847-3.548 2.736l-.193.137-.191-.136c-1.26-.889-2.565-1.801-3.557-2.741-1.231-1.178-1.809-2.232-1.809-3.312z"/><path d="M11.772 6.832l-1.24-1.272-3.986 3.886-1.609-1.88-1.35 1.158 2.844 3.319z"/></svg>