<svg version="1.1" id="Layer_1" xmlns="http://www.w3.org/2000/svg" x="0" y="0" width="17.28" height="13.98" viewBox="0 0 17.28 13.98" xml:space="preserve"><path d="M14.275 6.839a.71.71 0 0 0 .052.341l.091.149c.108.149.288.227.464.251a.695.695 0 0 0 .491-.146c.123-.098.254-.3.251-.464a10.297 10.297 0 0 0-.022-.554c-.091-1.211-.526-2.379-1.203-3.383-.686-1.016-1.656-1.813-2.752-2.35a6.94 6.94 0 0 0-1.565-.529 6.39 6.39 0 0 0-1.46-.15 7.068 7.068 0 0 0-1.6.188 7.121 7.121 0 0 0-1.529.556 7.09 7.09 0 0 0-2.522 2.15.705.705 0 0 0-.118.506c.02.18.135.334.272.442a.686.686 0 0 0 .505.119.694.694 0 0 0 .442-.272 6.67 6.67 0 0 1 .549-.662l-.126.132a6.39 6.39 0 0 1 1.279-1.032l-.149.092a6.29 6.29 0 0 1 1.485-.661l-.166.049a6.386 6.386 0 0 1 1.613-.26l-.173.005a6.47 6.47 0 0 1 1.618.16l-.171-.039a6.341 6.341 0 0 1 1.538.577l-.161-.086c.504.271.971.608 1.388 1.002l-.133-.125c.401.382.749.814 1.038 1.287l-.091-.149c.28.462.499.96.655 1.478l-.049-.166a6.4 6.4 0 0 1 .261 1.607l-.005-.173.003.11z"/><path d="M13.308 5a.698.698 0 0 0-.505-.119c-.18.02-.334.135-.442.272a.687.687 0 0 0-.119.505.698.698 0 0 0 .272.442l.265.192 1.154.833.724.523a.688.688 0 0 0 .947-.153l.192-.265.833-1.154.523-.724a.698.698 0 0 0 .119-.505c-.02-.18-.135-.334-.272-.442a.687.687 0 0 0-.505-.119.698.698 0 0 0-.442.272l-.192.265-.833 1.154-.523.724.947-.153-.265-.192-1.154-.833L13.308 5zM3.005 7.142a.734.734 0 0 0-.051-.341l-.091-.15a.683.683 0 0 0-.955-.105c-.123.098-.254.3-.251.464.003.184.009.369.022.554.091 1.211.526 2.379 1.203 3.383.686 1.016 1.656 1.813 2.752 2.35a6.94 6.94 0 0 0 1.565.529 6.39 6.39 0 0 0 1.46.15 7.068 7.068 0 0 0 1.6-.188 7.06 7.06 0 0 0 1.528-.556 7.09 7.09 0 0 0 2.522-2.15.698.698 0 0 0 .119-.505c-.02-.18-.135-.334-.272-.442a.687.687 0 0 0-.505-.119.694.694 0 0 0-.442.272 6.534 6.534 0 0 1-.549.662l.125-.133a6.39 6.39 0 0 1-1.279 1.032l.149-.091a6.29 6.29 0 0 1-1.485.661l.166-.049a6.502 6.502 0 0 1-1.614.262l.173-.005a6.47 6.47 0 0 1-1.618-.16l.171.039a6.341 6.341 0 0 1-1.538-.577l.161.086a6.512 6.512 0 0 1-1.388-1.002l.133.125a6.342 6.342 0 0 1-1.038-1.287l.091.149a6.429 6.429 0 0 1-.655-1.478l.049.166a6.386 6.386 0 0 1-.261-1.607l.005.173-.002-.112z"/><path d="M3.972 8.981a.7.7 0 0 0 .506.119c.18-.02.334-.135.442-.272a.687.687 0 0 0 .119-.505.698.698 0 0 0-.272-.442l-.266-.192-1.154-.833-.724-.523a.689.689 0 0 0-.947.153l-.191.266-.834 1.154-.522.723a.707.707 0 0 0-.12.506c.02.18.135.334.272.442a.687.687 0 0 0 .505.119.69.69 0 0 0 .443-.272l.192-.265.833-1.155.523-.724-.948.154.265.192 1.155.832.723.523z"/></svg>