<svg version="1.1" id="Layer_1" xmlns="http://www.w3.org/2000/svg" x="0" y="0" width="14.19" height="14.19" viewBox="0 0 14.19 14.19" xml:space="preserve"><path fill="#FFF" d="M7.095 0a7.096 7.096 0 1 0 .001 14.191A7.096 7.096 0 0 0 7.095 0zM5.033 10.726H3.305V5.527h1.728v5.199zm-.864-5.909h-.011c-.58 0-.955-.399-.955-.898 0-.51.386-.898.978-.898s.955.388.966.898c0 .499-.375.898-.978.898zm7.095 5.909H9.536V7.945c0-.699-.25-1.176-.875-1.176-.477 0-.762.322-.887.632a1.198 1.198 0 0 0-.057.422v2.903H5.99s.023-4.711 0-5.199h1.728v.736c.23-.354.64-.858 1.557-.858 1.137 0 1.989.743 1.989 2.34v2.981z"/></svg>