<svg xmlns="http://www.w3.org/2000/svg" viewBox="0 0 31.5 27.78"><defs><style>.cls-1,.cls-2{fill:#fff}.cls-2{stroke:#fff;stroke-linecap:round;stroke-miterlimit:10;stroke-width:1.5px}</style></defs><title>Asset 5</title><g id="Layer_2" data-name="Layer 2"><g id="Layer_1-2" data-name="Layer 1"><path class="cls-1" d="M4.8 16.57h1.81a2 2 0 0 1 2 2v8.55H2.8v-8.55a2 2 0 0 1 2-2zm10.05-9.04h1.81a2 2 0 0 1 2 2v17.59h-5.81V9.53a2 2 0 0 1 2-2zM24.89 0h1.81a2 2 0 0 1 2 2v25.12h-5.81V2a2 2 0 0 1 2-2z"/><path class="cls-2" d="M.75 27.03h30"/></g></g></svg>