<svg version="1.1" id="Layer_1" xmlns="http://www.w3.org/2000/svg" x="0" y="0" width="17.33" height="14.8" viewBox="0 0 17.33 14.8" xml:space="preserve"><path fill="#FFF" d="M15.549 3.872a7.08 7.08 0 0 0 1.78-1.844v-.001a7.436 7.436 0 0 1-2.047.561A3.536 3.536 0 0 0 16.845.625a7.128 7.128 0 0 1-2.253.86 3.55 3.55 0 0 0-6.145 2.429c0 .282.024.552.082.81a10.06 10.06 0 0 1-7.323-3.716 3.555 3.555 0 0 0 1.093 4.747 3.52 3.52 0 0 1-1.605-.437v.039A3.57 3.57 0 0 0 3.54 8.848a3.55 3.55 0 0 1-.931.117c-.227 0-.457-.013-.672-.061a3.588 3.588 0 0 0 3.319 2.475 7.143 7.143 0 0 1-4.405 1.515 6.8 6.8 0 0 1-.85-.048 10.007 10.007 0 0 0 5.45 1.594c6.269-.001 10.355-5.231 10.098-10.568z"/></svg>