<svg version="1.1" id="Layer_1" xmlns="http://www.w3.org/2000/svg" x="0" y="0" width="48.722" height="43.826" viewBox="-2.861 0 48.722 43.826" xml:space="preserve"><g fill="#ED1C24"><path d="M14.522 17.026c0 .246.199.446.446.446h15.073l-.902 5.349H12.293a.446.446 0 1 0 0 .892h16.695l-.731 4.339-.006.074c0 .472-.398.936-.803.936H10.065c-.443 0-.641-.547-.641-.936l-.01-.097L4.862 7.53a.44.44 0 0 0-.431-.34l-2.347-.783a.446.446 0 1 0-.282.846l2.253.751 4.479 20.173c.021.882.591 1.775 1.532 1.775h17.383c.89 0 1.673-.83 1.694-1.787L31.008 17.1a.444.444 0 0 0-.44-.52h-15.6c-.247 0-.446.2-.446.446zm-.446 15.878c0-1.045-.85-1.895-1.895-1.895s-1.895.85-1.895 1.895.85 1.895 1.895 1.895 1.895-.85 1.895-1.895zm-2.899 0a1.005 1.005 0 1 1 2.01.001 1.005 1.005 0 0 1-2.01-.001zm15.604 0c0-1.045-.85-1.895-1.895-1.895s-1.895.85-1.895 1.895.85 1.895 1.895 1.895 1.895-.85 1.895-1.895zm-2.899 0a1.005 1.005 0 1 1 2.01.001 1.005 1.005 0 0 1-2.01-.001zM3.825 15.689a.446.446 0 0 0-.446-.446h-5.794a.446.446 0 1 0 0 .892h5.794c.246 0 .446-.2.446-.446zm-5.349 2.229h5.349a.446.446 0 1 0 0-.892h-5.349a.446.446 0 1 0 0 .892zm5.794.891H-.633a.446.446 0 1 0 0 .891H4.27a.446.446 0 1 0 0-.891z"/><path d="M36.98 4.314C33.088 1.439 28.528 0 23.965 0c-4.561 0-9.123 1.438-13.015 4.314a.525.525 0 1 0 .625.847c7.412-5.476 17.371-5.476 24.78 0 9.247 6.833 11.211 19.913 4.38 29.16-6.832 9.248-19.913 11.213-29.162 4.381a.527.527 0 0 0-.625.847c9.714 7.175 23.456 5.113 30.635-4.602S46.696 11.49 36.98 4.314z"/></g></svg>