<svg version="1.2" baseProfile="tiny" id="Layer_1" xmlns="http://www.w3.org/2000/svg" x="0" y="0" width="28" height="19.77" viewBox="0 0 28 19.77" overflow="scroll" xml:space="preserve"><path d="M11.561 6.762h.054l.006.001.006.001.006.001.006.001.006.001.006.001.006.001.006.001.006.001.006.001.006.001.006.001.006.001.006.002.006.002.006.002.006.002.006.002.006.002.001.003.006.002.006.002.006.002.006.002.005.002.006.002.006.002.005.003.006.003.005.003.005.003.005.003.005.003.005.003.005.003.005.003.005.003.005.003.005.003.005.003.005.003.005.003.005.004.005.004.005.004.005.004.005.004.005.004.005.004.005.004.005.004.008.003.005.004.005.004.005.004.005.004 4.625 4.447.005.005.005.005.005.005.005.005.004.005.004.005.004.005.004.005.004.005.004.005.004.005.004.005.004.005.004.005.004.005.004.005.004.005.004.005.004.005.003.005.003.005.003.005.003.006.003.006.003.006.003.006.003.006.003.006.003.006.003.006.003.006.003.006.002.006.002.006.002.006.002.006.002.006.002.006.002.006.002.006.002.006.002.006.002.006.002.006.002.006.001.006.001.006.001.006.001.006.001.006.001.006.001.006.001.006.001.006.001.006.001.006.001.006.001.006.001.006v.084l-.004.009-.001.006-.001.006-.001.006-.001.006-.001.006-.001.006-.001.006-.001.006-.001.006-.001.006-.001.006-.001.006-.002.006-.002.006-.002.006-.002.006-.002.006-.002.006-.002.006-.002.006-.002.006-.002.006-.002.006-.002.006-.002.006-.003.006-.003.006-.003.006-.003.006-.003.006-.003.006-.003.006-.003.006-.003.006-.003.006-.002.004-.003.005-.003.006-.003.005-.004.005-.004.005-.004.005-.004.005-.004.005-.004.005-.004.005-.004.005-.004.005-.004.005-.004.005-.004.005-.004.005-.004.005-.005.005-.005.005-.005.005-.005.005-.005.005-.005.004-.005.004-.005.004-.005.004-.005.004-.005.004-.005.004-.005.004-.005.004-.005.004-.005.004-.005.004-.005.004-.005.004-.005.004-.005.003-.005.003-.005.003-.006.003-.005.003-.006.003-.006.003-.006.003-.006.003-.006.003-.006.003-.006.003-.006.003-.006.002-.006.002-.006.002-.006.002-.006.002-.006.002-.006.002-.006.002-.003.004-.006.002-.006.002-.006.002-.006.002-.006.002-.006.001-.006.001-.006.001-.006.001-.006.001-.006.001-.006.001-.006.001-.006.001-.006.001-.006.001-.006.001-.006.001h-.084l-.006-.001-.006-.001-.006-.001-.006-.001-.006-.001-.006-.001-.006-.001-.006-.001-.006-.001-.006-.001-.006-.001-.006-.001-.006-.001-.006-.002-.006-.002-.006-.002-.006-.002-.006-.002-.006-.002-.006-.002-.006-.002-.006-.002-.006-.002-.01-.003-.006-.002-.006-.002-.005-.003-.006-.003-.006-.003-.006-.003-.006-.003-.006-.003-.006-.003-.006-.003-.006-.003-.005-.003-.006-.003-.005-.003-.005-.003-.005-.004-.005-.004-.004-.002-.005-.004-.005-.004-.005-.004-.005-.004-.005-.004-.005-.004-.005-.004-.005-.004-.005-.004-.005-.004-.005-.004-.005-.005-.006-.005-4.275-4.111-3.114 2.964-.005.005-.005.005-.005.005-.005.004-.005.004-.005.004-.005.004-.005.004-.005.004-.005.004L8.39 11l-.006.004-.006.004-.006.004-.006.004-.008.004-.006.004-.006.003-.005.003-.006.003-.006.003-.006.003-.006.003-.006.003-.006.003-.006.003-.006.003-.006.003-.006.002-.006.002-.006.002-.006.002-.006.002-.007.002-.006.002-.006.002-.006.002-.006.002-.006.002-.007.001-.006.001-.007.002-.006.001-.006.001-.006.001-.006.001-.006.001-.008.002-.006.001-.006.001-.006.001-.006.001h-.072l-.011-.001h-.006l-.006-.001-.006-.001-.012-.001H8.02l-.006-.001-.006-.001-.006-.001-.006-.001-.005-.001-.006-.001-.005-.001-.006-.001-.004-.001-.005-.001-.005-.001-.005-.001-.005-.002-.005-.002-.005-.002-.008-.002-.005-.002-.005-.002-.005-.002-.005-.002-.005-.002-.007-.001-.005-.002-.005-.003-.005-.002-.006-.002-.005-.002-.005-.002-.005-.002-.006-.004-.005-.003-.005-.003-.005-.003-.005-.003-.005-.003-.005-.003-.005-.002-.005-.003-.005-.003-.005-.003-.005-.003-.005-.003-.005-.003-.005-.003-.005-.004-.003-.004-.005-.004-.005-.004-.004-.003-.005-.004-.005-.004-.005-.004-.004-.004-.004-.004-.004-.004-.004-.004-.005-.004-1.37-1.342-2.611 2.495-.005.005-.005.004-.005.004-.005.004-.005.004-.005.004-.005.004-.005.004-.005.006-.005.004-.005.004-.005.004-.005.004-.005.004-.005.004-.005.004-.005.003-.005.003-.009.001-.006.003-.006.003-.006.003-.006.003-.004.003-.006.003-.006.003-.006.003-.006.003-.006.003-.006.002-.006.002-.004.001-.006.002-.006.002-.006.002-.006.002-.005.002-.006.002-.006.002-.006.002-.006.002-.006.001-.006.001-.006.001-.006.001-.006.001-.006.001-.007.002-.006.001-.006.001-.006.001-.006.001H3.45l-.006.001h-.092l-.006-.001h-.007l-.006-.001-.006-.001-.006-.001-.006-.001-.006-.001-.006-.001-.006-.001-.007-.001-.006-.001-.006-.001-.006-.001-.006-.002-.006-.002-.006-.002-.006-.002-.006-.001-.006-.002-.006-.002-.006-.002-.006-.002-.005-.002-.006-.002-.006-.002-.006-.002-.005-.004-.006-.003-.006-.003-.006-.003-.006-.003-.006-.003-.006-.003-.004-.001-.005-.003-.006-.003-.005-.003-.005-.003-.005-.003-.005-.003-.005-.004-.005-.004-.007-.005-.005-.004-.005-.004-.005-.004-.005-.004-.005-.004-.005-.004-.005-.004-.005-.004-.005-.004-.006-.004-.005-.004-.005-.005-.005-.005-.005-.005-.005-.005-.005-.005-.004-.005-.004-.005-.004-.005-.004-.005-.004-.005-.004-.005-.004-.005-.004-.005-.004-.005-.004-.005-.004-.005-.004-.005-.003-.006-.004-.005-.004-.005L2.959 12l-.003-.005-.003-.005-.003-.006-.003-.006-.003-.006-.004-.006-.003-.006-.003-.006-.003-.006-.003-.006-.003-.006-.003-.006-.003-.006v-.004l-.002-.006-.002-.006-.002-.006-.003-.006-.002-.006-.002-.006-.002-.006-.002-.006-.002-.006-.001-.006-.002-.006-.002-.006-.001-.006-.001-.006-.001-.006-.001-.006-.001-.006-.001-.006-.001-.006-.001-.006-.001-.006-.001-.006-.001-.006-.001-.006-.001-.006v-.084l.001-.006.001-.006.001-.006.001-.006.001-.006.001-.006.001-.006.001-.006.001-.006.001-.006.001-.006.001-.006.001-.006.001-.006.004-.012.002-.006.002-.006.002-.006.002-.006.002-.006.002-.006.002-.006.002-.006.002-.006.002-.006.002-.006.002-.006.003-.006.003-.006.003-.006.003-.006.003-.006.003-.006.003-.006.003-.006.003-.005.003-.006.003-.005.003-.005.003-.005.004-.005.004-.005.004-.005.004-.005.004-.005.004-.005.004-.005.004-.005.004-.005.004-.005.004-.005.004-.005.004-.005.004-.005.004-.005.005-.005.005-.005.005-.005.005-.005L5.994 8.53l.005-.005.005-.005.005-.004.005-.004.005-.004.005-.004.006-.005.005-.004.005-.004.005-.004.005-.004.005-.004.005-.004.005-.004.005-.004.006-.004.006-.003.006-.003.006-.003.006-.003.006-.003.006-.003.006-.003.005-.002.006-.003.006-.003.006-.003.006-.003.006-.003.006-.002.006-.002.005-.002.006-.002.006-.002.006-.002.006-.002.006-.002.006-.002.006-.002.006-.002.006-.002.006-.001h.007l.006-.001.006-.001.006-.001.006-.001.006-.001.006-.001.007-.002.006-.001.006-.001h.007l.006-.001h.114l.011.001.006.001.006.001.006.001.006.001.006.001.006.001.006.001h.008l.006.001.006.002.006.001.006.001.006.002.006.002.006.002.006.002.006.002.006.002.006.002.006.002.006.002.006.002.006.002.006.002.006.002.006.003.006.003.006.003.006.003.006.003.006.003.006.003.006.003.006.003.004.003.006.003.006.003.006.004.005.004.005.004.005.004.005.004.005.004.005.004.005.004.005.004.005.004.007.003.005.004.005.005.005.004.005.005.005.005.005.004 1.356 1.328 3.108-2.959.005-.004.005-.004.005-.004.005-.004.005-.004.005-.004.005-.004.005-.004.005-.004.005-.004.005-.004.005-.004.005-.004.005-.004.005-.004.005-.003.005-.003.005-.003.005-.003.005-.003.005-.003.006-.003.006-.003.006-.003.006-.003.007-.003.006-.003.006-.003.006-.002.005-.002.006-.002.006-.002.006-.002.006-.002.006-.002.006-.002.006-.002.006-.002.006-.002.006-.002.006-.002.006-.002.006-.001.006-.001.006-.001.006-.001.006-.001.006-.001.006-.001.006-.001.006-.001.006-.001.005-.001.006-.001.006-.001h.042l.007-.001zM5.417 9.805l-.011-.011-.027-.028-.025-.025-.006-.006.069.07zm8.822-.073l-.033.033-.022.022-.003.003.065-.065-.007.007z"/><path d="M21.558.502h.09l.015.001.015.001.015.001.015.001.015.001.015.001.015.001.015.001.015.001.015.001.015.002.015.002.015.002.015.002.015.002.015.002.015.002.014.002.015.002.014.002.014.002.014.003.014.003.012.003.014.003.014.003.014.003.014.003.014.003.014.003.014.003.014.003.014.003.014.004.014.004.014.004.014.004.014.004.014.004.014.004.014.004.014.004.014.004.014.004.014.004.014.005.014.005.013.005.013.005.013.005.013.005.013.005.013.005.013.005.013.005.013.005.013.005.013.006.013.006.013.006.013.006.013.006.013.006.013.006.013.006.013.006.013.006.013.006.013.006.013.006.013.006.013.007.012.007.012.007.012.007.012.007.012.007.012.007.012.007.012.007.012.007.012.007.012.007.012.007.012.008.012.008.012.008.012.008.012.008.011.007.012.008.011.008.011.008.011.008.011.008.011.008.011.008.011.008.011.008.011.008.011.009.011.009.011.009.011.009.011.009.011.009.011.009.011.009.011.009.011.009.011.009.011.009.01.009.01.009.01.009.01.009.01.01.01.01.01.01.01.01.01.01.01.01.01.01.01.01.01.01.01.01.01.01.01.01.009.01.009.01.009.01.009.01.009.011.009.011.009.011.009.011.009.011.009.011.009.011.009.011.009.011.009.011.009.011.009.011.008.011.008.011.008.011.008.011.008.011.008.011.008.011.008.011.008.011.008.012.011.014.008.012.008.012.008.012.008.012.006.011.007.012.007.012.007.012.007.012.007.012.007.012.007.012.007.012.007.012.007.012.007.012.007.012.007.013.006.012.006.013.006.013.006.013.006.013.006.013.006.013.006.013.006.013.006.013.006.014.006.013.006.013.006.013.005.013.005.013.005.013.005.013.005.013.005.013.005.013.005.013.005.013.005.013.005.014.005.014.004.014.004.014.004.014.004.014.004.014.004.014.004.014.004.014.004.014.004.014.004.014.004.014.003.014.003.014.003.014.003.014.003.014.003.014.003.014.003.014.003.014.003.014.003.014.003.014.002.014.002.014.002.015.002.014.002.015.002.015.002.015.002.015.002.015.002.015.002.015.001.015.001.015.001.015.001.015.001.015.001.015.001.015.001.015.001.015.001.015.001.015v7.003h-3.001l-.007.001-.007.001-.007.001-.007.001-.007.001-.007.001-.007.001-.007.002-.007.002-.006.002-.007.002-.007.002-.006.004-.006.003-.006.003-.006.003-.006.003-.006.003-.006.004-.006.004-.008.003-.006.004-.006.004-.006.004-.006.004-.005.005-.005.005-.005.005-.005.005-.005.005-.005.005-.005.005-.005.005-.004.006-.004.006-.004.006-.004.006-.004.006-.004.006-.004.006-.003.006-.002.006-.003.007-.003.006-.003.007-.003.007-.002.007-.002.007-.002.007-.002.007-.002.005-.002.007-.001.007-.002.006-.001.007-.001.007-.001.007-.001.007V13.6h-1.12l-.005.001-.005.001-.005.001-.005.001-.005.001-.005.001-.005.001-.005.001-.005.001-.005.001-.005.001-.005.002-.005.002-.007.005-.005.002-.005.002-.005.002-.005.002-.005.002-.005.002-.005.002-.004.002-.004.003-.004.003-.004.003-.004.003-.004.003-.004.003-.004.003-.004.003-.004.003-.004.003-.004.003-.004.003-.004.003-.004.004-.004.004-.004.004-.004.004-.004.004-.003.004-.003.004-.003.004-.003.004-.003.004-.003.004-.003.004-.003.004-.003.004-.003.004-.003.004-.003.004-.003.005-.003.005-.003.005-.002.005-.002.005-.002.005-.002.005-.002.005-.002.005-.002.005-.002.005-.002.005-.002.005-.001.005-.001.005-.001.005-.001.005-.001.005-.001.005-.001.005-.001.005-.001.005-.001.005v.06l.001.005.001.005.001.005.001.005.001.005.001.005.001.005.001.005.001.005.001.005.001.005.002.005.002.005.002.005.002.005.002.005.002.005.002.005.002.005.002.005.002.005.002.005.002.005.003.004.003.004.003.004.003.004.003.004.003.004.003.003.003.004.003.004.003.004.003.004.004.004 1.816 2.036H2.242l-.015-.001-.015-.001-.015-.001-.015-.001-.015-.001-.015-.001-.015-.001-.015-.001-.015-.001-.015-.001-.015-.002-.015-.002-.013-.002-.015-.002-.014-.002-.015-.002-.015-.002-.013-.002-.014-.002-.014-.002-.014-.002-.016-.004-.014-.003-.015-.002-.014-.003-.014-.002-.014-.003-.014-.003-.015-.004-.014-.003-.014-.003-.014-.004-.014-.003-.014-.004-.014-.003-.014-.004-.014-.004-.014-.004-.013-.004-.014-.004-.014-.004-.014-.004-.014-.004-.014-.004L1.596 16l-.014-.005-.012-.005-.014-.005-.013-.005-.013-.005-.013-.005-.013-.005-.014-.005-.013-.005-.013-.005-.014-.005-.013-.005-.013-.005-.013-.006-.013-.006-.013-.006-.013-.006-.013-.006-.013-.006-.013-.006-.013-.006-.013-.006-.013-.006-.013-.006-.011-.007-.013-.006-.012-.007-.012-.007-.013-.007-.012-.007-.012-.007-.012-.007-.012-.007-.012-.007-.012-.007-.012-.007-.012-.007-.012-.007-.012-.007-.012-.008-.013-.007-.012-.008-.012-.008-.011-.008-.012-.008-.012-.008-.012-.008-.011-.008-.011-.008-.011-.008-.012-.008-.011-.008-.011-.008-.011-.008-.011-.009-.011-.009-.012-.008-.011-.009-.011-.009-.011-.009-.011-.009-.011-.009-.011-.009-.011-.009-.011-.009-.011-.009-.008-.009-.01-.009-.01-.009-.01-.009-.01-.009-.01-.01-.01-.01-.01-.01-.01-.01-.01-.01-.01-.01-.01-.01-.01-.01-.01-.01-.01-.01-.01-.01-.01-.01-.009-.01-.009-.01-.009-.01-.009-.01-.009-.011-.009-.011-.012-.012-.009-.01-.009-.011-.009-.011-.009-.011-.009-.011-.009-.011-.009-.011-.009-.011-.007-.01-.008-.011-.009-.012-.008-.011-.008-.011-.008-.011-.009-.012-.008-.011-.008-.012-.008-.012-.008-.012-.008-.011-.008-.012-.008-.012-.008-.012-.006-.011-.008-.012-.007-.012-.007-.012-.008-.012-.007-.012-.007-.012-.007-.012-.007-.012-.007-.012-.007-.012-.007-.012-.007-.012-.007-.012-.007-.012-.006-.013-.006-.013-.006-.013-.006-.013-.006-.014-.006-.013-.006-.013-.006-.013-.006-.013-.006-.012-.006-.013-.006-.013-.006-.013-.004-.013-.005-.013-.005-.013-.006-.014-.005-.013-.005-.013-.006-.014-.005-.013-.005-.013-.004-.014-.005-.013-.005-.014-.004-.014-.004-.014-.004-.014-.004-.014-.004-.014-.004-.014-.004-.014-.004-.014-.005-.011-.004-.014-.004-.014-.004-.014-.003-.014-.004-.014-.003-.014-.003-.014-.003-.014-.003-.014-.004-.015-.003-.014-.003-.014-.003-.014-.003-.014-.003-.014-.002-.014-.002-.014-.002-.014-.002-.017-.002-.015-.002-.015-.002-.015-.002-.015-.002-.015-.002-.015-.002-.015-.002-.015-.001-.015-.001-.015-.001-.015-.001-.015-.001-.01-.001-.015-.001-.015-.001-.015-.001-.015-.001-.015v-.06L0 13.8V2.758l.001-.015.001-.015.001-.015.001-.015.001-.015.001-.015.001-.015.001-.015.001-.015.002-.013.001-.015.002-.015.002-.015.002-.015.002-.015.002-.015.002-.015.002-.015.002-.014.002-.015.001-.011.002-.014.002-.014.003-.014.003-.014.003-.014.003-.014.003-.017.003-.014.003-.014.004-.014.003-.014.003-.014.004-.014.004-.014.004-.014.004-.014.004-.014.004-.014.004-.014.004-.014.004-.014.003-.013.004-.014.004-.014.004-.014.004-.014.005-.014.005-.013.005-.013.005-.013.005-.013.005-.013.005-.013.005-.013.005-.013.005-.013.005-.013.005-.013.006-.013.007-.014.006-.013.006-.013.006-.013.006-.013.006-.013.006-.012.006-.013.006-.013.006-.013.006-.013.006-.012.007-.013.007-.012.007-.012.007-.012.007-.012.007-.012.007-.012.007-.012.007-.012.007-.013.007-.012.007-.012.008-.013.008-.011.008-.012.008-.012.008-.012.006-.011.008-.012.008-.012.008-.011.008-.011.008-.012.008-.011.008-.011.009-.012.008-.011.008-.011.009-.012.009-.011.009-.011.009-.011.009-.011.009-.011.007-.011.009-.01.009-.011.009-.011.009-.011.009-.011.009-.011.009-.01.009-.01.009-.01.009-.01.01-.01.01-.01.01-.01.01-.01.01-.01.01-.01.01-.01.01-.01.01-.01.01-.01.01-.01.01-.01.01-.009.01-.009.01-.009.01-.009.013-.009.011-.01.011-.009.011-.009.011-.009.011-.009.011-.009.009-.008.011-.009.011-.009L.903.99.914.981.925.973.936.965.947.957.958.949.971.94.982.932.993.924l.011-.008.012-.008L1.028.9 1.04.892l.012-.008.012-.008.012-.008.012-.008L1.1.852l.012-.007.012-.007.012-.007.012-.007.012-.007.012-.007.012-.007.012-.007.012-.006.012-.007.012-.007.013-.006.012-.007.013-.006.013-.007.013-.006.013-.006.013-.006.013-.006.011-.006.013-.006.013-.006.013-.006.013-.006.013-.006.013-.006.013-.006.013-.004.013-.005.013-.005.014-.006.013-.005.013-.005.014-.005.013-.005.013-.005.014-.004.013-.005.014-.004.014-.004.014-.004.014-.004.014-.004L1.667.6 1.68.594 1.693.59l.014-.004.014-.004.014-.004.014-.004.014-.004.014-.003.014-.003.014-.003.014-.003.014-.003.014-.003.014-.003.014-.003.015-.003.014-.003.014-.003.014-.003.014-.002L1.96.53l.014-.002.015-.002.015-.002.016-.002.015-.002.015-.002.015-.002.015-.002.015-.002.015-.001.015-.001h.013l.015-.001.015-.001.015-.001.015-.001.015-.001.015-.001.015-.001h.09L21.558.502zM2.333 1.657h-.092l-.009.004-.007.001h-.008l-.007.001-.007.001-.008.001-.008.001H2.18l-.006.001-.008.001-.007.001-.008.002-.008.001-.006.001-.007.001-.008.001-.007.002-.007.001-.007.001-.008.002-.008.002-.006.001-.007.001-.008.002-.006.002-.007.001-.006.002-.008.002-.008.002-.006.002-.007.002-.008.002-.005.001-.007.002-.007.003-.007.002-.007.002-.007.002-.007.002-.007.003-.007.002-.007.002-.006.003-.006.002-.006.002-.008.003-.007.003-.007.002-.006.003-.007.003-.006.002-.006.003-.007.002-.008.004-.006.003-.005.002-.007.003-.008.004-.005.002-.006.003-.007.004-.006.003-.006.003-.008.003-.006.003-.005.003-.007.004-.006.003-.006.003-.007.004-.006.004-.005.003-.008.004-.005.003-.007.004-.006.004-.006.003-.005.004-.006.003-.006.004-.007.005-.005.003-.007.004-.005.004-.006.004-.006.005-.006.003-.006.005-.005.003-.006.005-.006.004-.005.004-.006.004-.006.005-.006.004-.005.004-.005.004-.006.006-.005.004-.006.004-.006.005-.005.004-.005.005-.006.005-.005.004-.005.004-.006.006-.006.005-.004.004-.005.005-.005.004-.006.006-.005.005-.005.005-.006.005-.005.005-.004.005-.005.005-.005.004-.005.006-.005.006-.005.004-.005.005-.004.006-.005.005-.005.005-.005.006-.004.005-.004.005-.005.006-.005.005-.005.006-.004.005-.005.006-.004.005-.004.006-.005.006-.004.005-.004.005-.004.006-.005.006-.004.006-.004.006-.005.005-.003.006-.005.006-.004.006-.003.005-.004.006-.004.006-.004.006-.004.006-.004.007-.004.005-.003.006-.004.006-.004.006-.003.006-.004.007-.004.006-.003.006-.004.006-.003.007-.003.005-.004.007-.003.006-.003.006-.004.006-.003.007-.003.007-.003.005-.003.007-.004.007-.002.006-.003.006-.004.008-.002.005-.003.007-.003.007-.003.006-.003.006-.002.007-.003.006-.002.007-.003.007-.003.007-.003.007-.002.006-.002.007-.003.006-.002.007-.002.007-.002.006-.003.007-.002.008-.002.006-.002.007-.002.007-.002.007-.002.007-.002.006-.002.008-.002.007-.002.006-.001.007-.002.008-.002.007-.002.007-.001.007-.002.007-.001.007-.002.007-.001.008-.002.007-.001.007-.001.006-.002.008-.001.007-.001.007-.001.008-.001.008-.001.007-.001.007-.001.007-.001.007-.001.008-.001.007-.001.008v.007l-.001.008-.001.008v.022l-.002.008v11.087l.001.009v.015l.001.007.001.008.001.008.001.008.001.008.001.007.001.008.001.007.001.008.001.006.001.007.001.008.001.007.001.007.001.008.001.007.001.006.001.008.001.007.001.007.002.008.001.007.002.008.002.007.002.007.002.007.002.007.002.007.002.007.002.007.002.008.001.005.002.007.002.007.002.006.002.007.002.007.002.007.002.007.002.007.003.007.002.006.002.007.003.008.002.006.002.007.003.007.003.007.003.007.003.007.003.006.002.006.003.006.003.008.003.007.003.006.003.006.003.007.003.006.003.006.003.007.003.006.003.006.003.006.003.007.004.007.003.006.003.006.004.004.004.007.003.006.003.006.004.006.004.007.003.005.003.006.004.007.004.006.004.006.004.006.004.006.004.007.003.005.004.006.004.006.004.005.004.005.004.006.005.007.004.005.004.005.004.006.005.006.004.006.004.005.004.006.005.006.004.005.004.005.004.005.004.005.005.006.005.005.005.005.005.006.005.005.004.004.005.006.005.006.004.004.004.005.006.006.005.005.004.004.005.005.007.008.005.005.005.004.005.005.005.005.005.005.004.004.005.004.007.006.006.005.004.004.005.005.006.005.005.004.004.004.007.006.006.005.004.003.006.005.006.005.006.004.006.004.005.004.006.005.005.004.006.004.006.004.005.004.007.005.005.004.005.004.006.004.006.004.006.004.006.004.006.004.005.003.006.004.007.004.007.004.005.003.005.003.008.007.005.003.006.003.007.004.007.004.006.003.006.003.006.003.006.003.006.004.007.004.006.003.007.003.006.003.006.003.007.003.006.003.006.003.006.003.006.003.007.003.007.003.006.003.006.003.006.003.007.003.008.001.007.003.007.003.007.003.006.002.008.003.007.002.005.002.007.002.007.002.007.002.007.002.007.002.007.002.006.002.007.002.009.002.006.002.007.002.007.002.006.002.007.002.008.002.007.002.008.002.006.001.007.002.008.002.006.001.008.001.008.002.006.001.006.001.008.001.008.001.008.001.006.001.008.001.008.001.005.001.008.001.008.001.007.001.007.001.008.001.008.001.007.001.007.001.007.001.008.001h16.306l-.104-.117-.015-.017-.015-.019-.015-.019-.016-.021-.016-.022-.016-.022-.015-.022-.015-.022-.013-.021-.014-.023-.013-.021-.012-.022-.014-.025-.012-.022-.011-.022-.013-.026-.01-.021-.009-.021-.011-.027-.01-.025-.009-.023-.008-.022-.008-.023-.009-.028-.007-.023-.007-.025-.007-.026-.005-.022-.006-.027-.005-.025-.004-.023-.004-.026-.004-.027-.003-.026-.003-.023-.002-.025-.002-.028-.001-.025-.001-.025v-.075l.001-.025.001-.027.002-.025.002-.026.003-.025.003-.025.004-.028.004-.027.004-.024.004-.023.006-.027.006-.026.006-.025.007-.025.007-.025.008-.026.008-.025.008-.024.009-.024.01-.025.01-.025.011-.024.01-.022.011-.024.012-.024.012-.024.013-.024.013-.023.014-.023.012-.02.015-.023.015-.023.014-.019.016-.022.015-.02.016-.021.017-.021.016-.018.016-.018.018-.02.019-.02.016-.016.018-.018.021-.02.019-.018.017-.015.021-.018.021-.017.019-.015.019-.015.021-.016.02-.014.019-.013.026-.017.022-.014.018-.011.023-.013.023-.013.022-.012.022-.012.023-.012.023-.011.023-.01.023-.01.026-.011.023-.009.023-.009.024-.008.023-.008.027-.008.023-.007.027-.008.024-.006.023-.005.031-.007.023-.004.023-.004.027-.004.023-.003.028-.003.027-.003.027-.002.027-.002h.012v-2.434l.001-.036.002-.035.003-.035.004-.037.005-.035.006-.034.007-.035.007-.034.009-.036.009-.033.01-.034.011-.035.011-.032.013-.035.013-.032.013-.03.015-.033.016-.033.017-.032.017-.03.017-.029.018-.03.021-.032.02-.029.02-.028.022-.029.022-.027.023-.028.024-.027.023-.025.027-.027.026-.025.024-.022.029-.026.027-.022.027-.022.03-.023.027-.019.029-.02.031-.02.036-.02.027-.016.031-.017.035-.018.03-.015.032-.015.033-.014.033-.013.032-.012.033-.011.037-.012.03-.008.033-.009.037-.009.036-.008.034-.006.033-.005.04-.005.033-.004.033-.003.036-.002.036-.001h1.861V2.75l-.001-.008-.001-.007-.003-.008-.001-.008-.001-.007-.001-.007-.001-.008V2.69l-.001-.008-.001-.007-.001-.007-.001-.008-.001-.007-.001-.008-.001-.007-.001-.007-.001-.008-.001-.007-.002-.006-.001-.007-.001-.007-.002-.008-.002-.007-.001-.007-.002-.007-.002-.007-.002-.007-.002-.008-.002-.007-.002-.006-.002-.008-.002-.008-.001-.006-.002-.006-.002-.006-.002-.008-.002-.007-.002-.006-.002-.007-.002-.007-.002-.007-.002-.007-.002-.007-.002-.007-.002-.007-.002-.007-.002-.006-.003-.007-.003-.007-.003-.007-.003-.006-.003-.007-.003-.006-.004-.006-.003-.006-.003-.006-.003-.007-.003-.007-.003-.006-.003-.006-.004-.008-.003-.006-.003-.006-.002-.006-.004-.007-.003-.006-.002-.005-.004-.007-.004-.007-.003-.006-.003-.006-.004-.007-.003-.005-.003-.005-.004-.007-.004-.007-.003-.005-.004-.006-.004-.006-.004-.006-.004-.007-.004-.006-.003-.005-.004-.006-.004-.006-.004-.005-.004-.006-.004-.006-.004-.005-.004-.006-.005-.008-.004-.006-.005-.005-.004-.005-.004-.005-.004-.006-.005-.006-.004-.006-.004-.006-.004-.005-.004-.005-.004-.005-.005-.006-.005-.006-.004-.004-.005-.005-.005-.006-.005-.005-.005-.005-.005-.005-.005-.007-.004-.005-.006-.005-.005-.005-.005-.006-.005-.005-.004-.004-.005-.005-.006-.006-.005-.005-.005-.004-.005-.005-.005-.005-.006-.005-.004-.004-.005-.005-.007-.006-.005-.005-.004-.004-.006-.005-.006-.005-.005-.003-.005-.004-.007-.006-.005-.004-.006-.004-.006-.004-.005-.004-.006-.005-.006-.004-.005-.005-.005-.004-.006-.004-.006-.004-.005-.004-.006-.004-.006-.004-.006-.004-.006-.004-.005-.004-.006-.004-.006-.004-.007-.004-.007-.004-.006-.004-.005-.003-.005-.003-.007-.004-.007-.004-.006-.003-.007-.004-.006-.003-.006-.003-.007-.004-.006-.003-.006-.003-.007-.004-.006-.003-.006-.003-.007-.004-.004-.004-.006-.003-.008-.004-.006-.003-.005-.002-.008-.004-.006-.003-.005-.002-.007-.003-.008-.003-.006-.003-.006-.003-.006-.003-.006-.003-.007-.002-.007-.003-.007-.003-.008-.002-.007-.002-.005-.002-.006-.003-.007-.002-.007-.002-.007-.002-.007-.002-.007-.002-.007-.003-.007-.002-.007-.002-.007-.002-.006-.002-.007-.002-.007-.002-.006-.001-.009-.002-.007-.002-.006-.003-.008-.002-.006-.001-.007-.002-.007-.002-.006-.001-.008-.002-.008-.002-.008-.002-.006-.001-.008-.001h-.007l-.006-.001-.006-.001-.008-.001-.008-.001-.007-.001-.008-.001-.007-.002-.007-.001-.008-.001-.008-.001h-.007l-.007-.001-.008-.001-.007-.001h-.101L2.333 1.657z"/><circle cx="6.003" cy="4.67" r="1.393"/><path fill="#ED1C24" d="M25.215 8.609l.035.001.035.002.035.003.037.004.037.005.033.005.034.006.035.008.033.008.035.009.035.01.034.011.032.011.033.012.033.013.032.014.032.015.031.015.032.016.031.017.031.018.03.019.029.019.03.021.028.02.028.021.028.023.027.023.027.024.025.023.026.025.027.028.023.025.024.027.023.028.022.028.021.028.022.03.02.029.019.029.019.031.017.028.017.031.017.033.016.032.014.031.014.032.013.033.012.032.012.034.011.033.01.033.01.037.008.035.007.033.004.032.006.037.005.037.004.033.003.035.002.036.001.035v2.434l.014.001.028.002.026.002.025.003.026.003.026.004.026.004.026.004.026.005.026.006.025.006.026.006.026.007.023.007.023.007.025.008.026.009.026.009.023.009.023.009.023.01.023.01.025.012.022.011.022.011.025.014.023.013.019.011.021.013.022.014.021.014.02.014.022.015.021.016.021.016.02.016.019.015.018.015.02.017.021.019.019.018.017.017.018.019.018.019.017.019.017.019.017.02.018.022.016.02.014.019.016.022.015.021.014.021.015.023.014.022.013.022.014.024.011.02.012.023.013.026.011.023.012.026.011.025.008.02.01.026.01.027.008.022.009.027.007.024.007.024.007.027.006.025.006.026.006.026.005.025.004.025.004.025.004.026.003.028.003.025.002.023.002.026.001.028.002.026v.075l-.001.026-.002.029-.002.026-.002.023-.003.024-.003.026-.004.026-.004.026-.004.023-.005.026-.006.028-.006.023-.006.023-.007.027-.008.026-.007.023-.008.023-.008.024-.009.025-.01.026-.01.024-.01.023-.01.023-.011.024-.012.023-.011.022-.013.024-.014.024-.013.022-.014.023-.013.021-.014.02-.015.022-.017.023-.016.021-.016.02-.018.022-.017.02-.014.016-3.518 3.944-.021.023-.027.028-.027.027-.028.026-.028.025-.03.025-.031.024-.029.022-.03.022-.032.021-.033.021-.033.019-.032.018-.034.018-.035.017-.032.015-.035.015-.036.014-.035.013-.035.012-.036.011-.038.011-.035.009-.038.009-.038.008-.037.007-.038.006-.036-.002-.037.004-.039.003-.039.001h-.074l-.039-.001-.039-.003-.037-.004-.038-.004-.038-.006-.037-.007-.037-.008-.038-.009-.036-.009-.037-.011-.036-.011-.035-.012-.035-.013-.035-.014-.035-.015-.034-.015-.035-.017-.034-.018-.032-.018-.033-.019-.033-.021-.032-.021-.03-.022-.029-.022-.03-.023-.031-.026-.029-.026-.026-.024-.028-.028-.027-.029-.02-.022-3.518-3.944-.014-.016-.017-.02-.016-.02-.017-.022-.017-.023-.015-.021-.014-.02-.015-.022-.015-.023-.013-.021-.013-.022-.014-.024-.013-.024-.011-.022-.012-.023-.01-.021-.012-.022-.011-.025-.009-.022-.01-.026-.008-.022-.009-.024-.009-.028-.007-.023-.007-.023-.007-.024-.007-.026-.006-.026-.006-.025-.004-.026-.004-.023-.004-.026-.004-.026-.003-.023-.003-.029-.002-.026-.002-.023-.002-.029-.001-.023-.001-.026v-.049l.001-.026.001-.028.002-.023.002-.026.003-.028.003-.025.004-.026.004-.022.004-.026.005-.028.006-.027.006-.026.006-.022.007-.025.008-.027.008-.024.008-.025.01-.027.009-.024.009-.023.01-.025.011-.025.011-.023.011-.023.012-.024.013-.025.013-.023.012-.022.013-.022.014-.022.015-.023.014-.021.014-.019.016-.023.017-.022.016-.02.016-.02.017-.02.017-.019.017-.019.018-.019.018-.019.017-.017.019-.018.019-.018.019-.017.021-.018.019-.015.017-.014.022-.017.021-.016.021-.015.022-.015.019-.012.024-.015.021-.013.019-.011.024-.014.024-.013.021-.011.023-.012.025-.012.023-.01.024-.01.022-.009.023-.009.026-.009.025-.009.026-.008.023-.007.023-.007.025-.007.026-.007.026-.006.026-.005.026-.005.026-.004.026-.004.025-.004.026-.003.026-.003.026-.002.028-.002.014-.001v-2.434l.001-.035.002-.035.003-.035.004-.037.005-.037.005-.033.007-.033.008-.035.008-.033.009-.035.01-.035.011-.035.011-.032.012-.032.013-.033.014-.032.014-.031.016-.032.017-.033.017-.03.016-.028.018-.03.02-.031.021-.03.02-.028.021-.028.023-.028.023-.028.024-.027.023-.025.026-.027.027-.026.025-.023.027-.024.028-.023.028-.023.028-.021.028-.02.03-.021.029-.019.031-.019.03-.017.03-.016.033-.017.031-.015.031-.014.032-.014.033-.013.032-.012.032-.011.035-.011.035-.01.035-.009.033-.008.035-.008.035-.007.033-.005.037-.005.037-.004.035-.003.035-.002.035-.001h4.335zm-4.299 1.154h-.021l-.007.001-.008.002-.007.001-.007.001-.007.001-.007.001-.007.002-.007.002-.007.002-.007.002-.005.002-.007.002-.007.003-.006.003-.006.003-.006.003-.007.003-.006.003-.006.004-.006.004-.006.004-.006.004-.006.004-.006.004-.006.004-.005.005-.005.005-.005.005-.005.005-.005.005-.005.005-.005.005-.005.005-.004.006-.004.006-.004.006-.004.006-.004.006-.004.006-.003.006-.003.006-.003.006-.003.006-.003.006-.003.007-.003.007-.002.007-.002.007-.003.006-.002.007-.002.007-.002.007-.001.007-.001.007-.001.007-.001.007-.001.007-.001.007v3.572h-1.12l-.005.001-.005.001-.005.001-.005.001-.005.001-.005.001-.005.001-.005.001-.005.001-.005.001-.005.001-.005.002-.008.004-.005.002-.005.002-.005.002-.005.002-.005.002-.005.002-.005.002-.005.002-.004.002-.004.003-.004.003-.004.003-.004.003-.004.003-.004.003-.004.003-.004.003-.004.003-.004.003-.004.003-.004.003-.004.003-.004.003-.004.004-.004.004-.004.004-.004.004-.004.004-.003.004-.003.004-.003.004-.003.004-.003.004-.003.004-.002.003-.003.004-.003.004-.003.004-.003.004-.003.005-.003.005-.002.005-.002.005-.002.005-.002.005-.002.005-.002.005-.002.005-.002.005-.002.005-.002.005-.002.005-.001.005-.001.005-.001.005-.001.005-.001.005-.001.005-.001.005-.001.005-.001.005-.001.005v.065l.001.005.001.005.001.005.001.005.001.005.001.005.001.005.001.005.001.005.001.005.002.005.002.005.002.005.002.005.002.005.002.005.002.005.002.005.002.005.002.005.002.005.002.004.003.005.003.004.003.004.003.004.003.004.003.004.003.004.003.004.003.004.003.004.003.004.004.004 3.51 3.934.005.006.005.006.005.005.006.005.006.005.006.005.006.005.006.005.006.004.006.004.006.004.006.004.007.004.007.004.007.003.007.003.007.003.007.003.007.003.007.002.007.002.007.002.007.002.007.002.007.001.007.001.008.001.008.001.008.001h.048l.008-.001.008-.001.008-.001.008-.001.007-.001.007-.002.007-.002.007-.002.007-.002.007-.002.007-.003.007-.003.007-.003.007-.003.007-.003.007-.004.007-.004.007-.004.006-.004.006-.004.006-.004.006-.005.006-.005.006-.005.006-.005.006-.005.005-.005.005-.006.005-.006 3.51-3.934.004-.004.003-.004.003-.004.003-.004.003-.004.003-.004.003-.004.003-.004.003-.004.003-.004.003-.004.003-.005.003-.004.002-.005.002-.005.002-.005.002-.005.002-.005.002-.005.002-.005.002-.005.002-.005.002-.005.001-.005.001-.005.001-.005.001-.005.001-.005.001-.005.001-.005.001-.005.001-.005.001-.005.001-.005.001-.005v-.055l-.001-.005-.001-.005-.001-.005-.001-.005-.001-.005-.001-.005-.001-.005-.001-.005-.001-.005-.001-.005-.001-.005-.002-.005-.002-.005-.002-.005-.002-.005-.002-.005-.002-.005-.002-.005-.002-.005-.002-.005-.002-.005-.002-.005-.003-.005-.003-.005-.003-.004-.003-.003-.003-.004-.003-.004-.003-.004-.003-.004-.003-.004-.003-.004-.003-.004-.003-.004-.003-.004-.003-.004-.004-.004-.004-.004-.004-.004-.004-.004-.004-.003-.004-.003-.004-.003-.004-.003-.004-.003-.004-.003-.004-.003-.004-.003-.004-.003-.004-.003-.004-.003-.004-.003-.006-.003-.004-.003-.004-.002-.004-.002-.005-.002-.005-.002-.005-.002-.005-.002-.005-.002-.005-.002-.005-.002-.005-.002-.005-.002-.005-.001-.005-.001-.005-.001-.005-.001-.005-.001-.005-.001-.005-.001-.005-.001-.005-.001-.005-.001-.005-.001h-1.12v-3.572l-.001-.007-.001-.007-.001-.007-.001-.007-.001-.007-.001-.007-.002-.007-.002-.007-.002-.007-.002-.007-.004-.009-.002-.007-.003-.007-.003-.007-.003-.006-.003-.006-.003-.006-.004-.005-.004-.006-.004-.006-.004-.006-.004-.006-.003-.006-.004-.006-.004-.006-.005-.005-.005-.005-.005-.005-.005-.005-.005-.005-.005-.005-.005-.005-.005-.005-.006-.004-.006-.004-.006-.004-.006-.004-.006-.004-.006-.004-.006-.003-.006-.003-.006-.003-.006-.003-.006-.003-.006-.003-.007-.003-.008-.003-.007-.002-.007-.002-.007-.002-.007-.002-.005-.002-.007-.001-.007-.001-.007-.001-.007-.001-.007-.001-.007-.001h-.021l-4.263-.001z"/></svg>