<svg version="1.2" baseProfile="tiny" id="Layer_1" xmlns="http://www.w3.org/2000/svg" x="0" y="0" width="28" height="32.38" viewBox="0 0 28 32.38" xml:space="preserve"><path d="M16.982 11.166H4.281a.439.439 0 1 0 0 .879h12.701a.439.439 0 1 0 0-.879zm0 2.873h-6.65a.439.439 0 1 0 0 .879h6.65a.439.439 0 1 0 0-.879zm-12.701.88h2a.439.439 0 1 0 0-.879h-2a.439.439 0 1 0 0 .879zm12.701 1.993H4.281a.439.439 0 1 0 0 .879h12.701a.439.439 0 1 0 0-.879z"/><path d="M23.528.002H5.283a.44.44 0 0 0-.44.438v2.043H.44a.44.44 0 0 0-.44.44v24.503c0 .243.197.44.44.44h8.764l10.549-.002h1.073a.44.44 0 0 0 .44-.44V24.94h2.263a.44.44 0 0 0 .44-.44V.441a.442.442 0 0 0-.441-.439zm-3.142 26.983L.88 26.987V3.363h14.164V8.38c0 .243.197.44.44.44h4.905l-.003 18.165zm-.607-19.047H15.92V4.002l3.859 3.936zm3.309 16.12h-1.822V8.294l-.007-.03v-.012l-.01-.029-.004-.012-.012-.026-.006-.012-.013-.022-.009-.016-.012-.017-.013-.017-.012-.014-.014-.016-5.358-5.457-.018-.014-.016-.014-.022-.017-.012-.009-.202-.073H5.723V.882h17.366v23.176z"/><path fill="#ED1C24" d="M25.215 21.718l.035.001.035.002.035.003.037.004.037.005.033.005.034.006.035.008.033.008.035.009.035.01.034.011.032.011.033.012.033.013.032.014.032.015.031.015.032.016.031.017.031.018.03.019.029.019.03.021.028.02.028.021.028.023.027.023.027.024.025.023.026.025.027.028.023.025.024.027.023.028.022.028.021.028.022.03.02.029.019.029.019.031.017.028.017.031.017.033.016.032.014.031.014.032.013.033.012.032.012.034.011.033.01.033.01.037.008.035.007.033.006.033.006.037.005.037.004.033.003.035.002.037.001.035v2.434l.014.001.028.002.026.002.025.003.026.003.026.004.026.004.026.004.026.005.026.006.025.006.026.006.026.007.023.007.023.007.025.008.026.009.026.009.023.009.023.009.023.01.023.01.025.012.022.011.022.011.025.014.023.013.019.011.021.013.022.014.021.014.02.014.022.015.021.016.021.016.02.016.019.015.018.015.02.017.021.019.019.018.017.017.015.018.018.019.017.019.017.019.017.02.018.022.016.02.014.019.016.022.015.021.014.021.015.023.014.022.013.022.014.024.011.02.012.023.013.026.011.023.012.026.011.025.008.02.01.026.01.027.008.022.009.027.007.024.007.024.007.027.006.025.006.026.005.025.005.025.004.025.004.025.004.026.003.028.003.025.002.023.002.026.001.028.004.027v.075l-.001.026-.002.029-.002.026-.002.023-.003.024-.003.026-.004.026-.004.026-.004.023-.005.026-.006.028-.006.023-.006.023-.007.027-.008.026-.007.023-.008.023-.008.024-.009.025-.01.026-.01.024-.01.023-.01.023-.011.024-.012.023-.011.022-.013.024-.014.024-.014.018-.014.023-.013.021-.014.02-.015.022-.017.023-.016.021-.016.02-.018.022-.017.02-.014.016-3.518 3.944-.021.023-.027.028-.027.027-.028.026-.028.025-.03.025-.031.024-.027.02-.03.022-.032.021-.033.021-.033.019-.032.018-.034.018-.035.017-.032.015-.035.015-.036.014-.035.013-.035.012-.036.011-.038.011-.035.009-.038.009-.038.008-.037.007-.038.006-.037.003-.037.004-.039.003-.039.001h-.074l-.039-.001-.039-.003-.037-.004-.038-.004-.038-.006-.037-.007-.037-.008-.038-.009-.036-.009-.037-.011-.036-.011-.035-.012-.035-.013-.035-.014-.035-.015-.034-.015-.035-.017-.034-.018-.032-.018-.033-.019-.033-.021-.032-.021-.03-.022-.029-.022-.03-.023-.031-.026-.029-.026-.026-.024-.028-.028-.027-.029-.02-.022-3.518-3.944-.014-.016-.017-.02-.016-.02-.017-.022-.017-.023-.015-.021-.014-.02-.015-.022-.015-.023-.013-.021-.013-.022-.014-.024-.013-.024-.011-.022-.012-.023-.01-.021-.012-.025-.011-.025-.009-.019-.01-.026-.008-.022-.009-.024-.009-.028-.007-.023-.007-.023-.007-.024-.007-.026-.006-.026-.006-.025-.005-.026-.004-.023-.004-.026-.004-.026-.003-.023-.003-.029-.002-.026-.002-.023-.002-.029-.001-.023-.001-.026v-.052l.001-.026.001-.028.002-.023.002-.026.003-.028.003-.025.004-.026.004-.022.004-.026.005-.028.006-.027.006-.026.006-.022.007-.025.008-.027.008-.024.008-.025.01-.027.009-.024.009-.023.01-.025.011-.025.011-.023.011-.023.012-.024.013-.025.013-.023.012-.022.013-.022.014-.022.015-.023.014-.021.014-.019.016-.023.017-.022.016-.02.016-.02.017-.02.017-.019.017-.019.019-.015.018-.019.017-.017.019-.018.019-.018.019-.017.021-.018.019-.015.017-.014.022-.017.021-.016.021-.015.022-.015.019-.012.024-.015.021-.013.019-.011.024-.014.024-.013.021-.011.023-.012.025-.012.023-.01.024-.01.022-.009.023-.009.026-.009.025-.009.026-.008.023-.007.023-.007.025-.007.026-.007.026-.006.026-.005.026-.005.026-.004.026-.004.025-.004.026-.003.026-.003.026-.002.028-.002.014-.001v-2.434l.001-.035.002-.035.003-.035.004-.037.005-.037.005-.033.007-.035.008-.035.008-.033.009-.035.01-.035.011-.035.011-.032.012-.032.013-.033.014-.032.014-.031.016-.032.017-.033.017-.031.016-.028.018-.03.02-.031.021-.03.02-.028.021-.028.023-.028.023-.028.024-.027.023-.025.026-.027.027-.026.025-.023.027-.024.028-.023.028-.023.028-.021.028-.02.03-.021.029-.019.031-.019.03-.017.03-.016.033-.017.032-.016.031-.014.032-.014.033-.013.032-.012.032-.011.035-.011.035-.01.035-.009.033-.008.035-.008.035-.007.033-.005.037-.005.037-.004.035-.003.035-.002.035-.001h4.307l.027.003zm-4.299 1.155h-.021l-.007.001-.007.001-.007.001-.007.001-.007.001-.007.001-.007.002-.007.002-.007.002-.007.002-.007.002-.007.002-.007.003-.006.003-.005.003-.006.003-.006.003-.006.003-.006.004-.006.004-.006.004-.006.004-.006.004-.006.004-.006.004-.005.005-.005.005-.005.005-.005.005-.005.005-.005.005-.005.005-.005.005-.004.006-.004.006-.004.006-.004.006-.004.006-.004.006-.004.006-.003.006-.003.006-.003.006-.003.006-.003.007-.003.007-.002.007-.002.007-.002.007-.002.007-.002.007-.002.007-.001.007-.001.007-.001.007-.001.007-.001.007-.001.007v3.572h-1.12l-.005.001-.005.001-.005.001-.005.001-.005.001-.005.001-.009.001-.005.001-.005.001-.005.001-.005.001-.005.002-.005.002-.005.002-.005.002-.005.002-.005.002-.005.002-.005.002-.005.002-.005.002-.004.002-.004.003-.004.003-.004.003-.004.003-.004.003-.004.003-.004.003-.004.003-.004.003-.004.003-.004.003-.004.003-.004.003-.004.003-.004.004-.004.004-.002.004-.004.004-.004.004-.003.004-.003.004-.003.004-.003.004-.003.004-.003.004-.004.004-.003.004-.003.004-.003.004-.003.004-.003.005-.003.005-.002.005-.002.005-.002.005-.002.005-.002.005-.002.005-.002.005-.002.005-.002.005-.002.005-.002.005-.001.005-.001.005-.001.005-.001.005-.001.005-.001.005-.001.005-.001.005-.001.005-.001.005v.065l.001.005.001.005.001.005.001.005.001.005.001.005.001.005.001.005.001.005.001.005.002.005.002.005.002.005.002.005.002.005.002.005.002.005.002.005.002.005.002.005.002.005.002.004.003.005.003.004.003.004.003.004.003.004.003.004.003.004.003.004.003.004.003.004.003.004.004.004 3.51 3.934.005.006.005.006.005.005.006.005.006.005.006.005.006.005.006.005.006.004.006.004.006.004.006.004.007.004.007.004.007.003.007.003.007.003.007.003.007.003.007.002.007.002.007.002.007.002.007.002.007.001.007.001.008.001.008.001.008.001h.048l.008-.001.008-.001.008-.001.008-.001.007-.001.007-.002.007-.002.007-.002.007-.002.007-.002.007-.003.007-.003.007-.003.007-.003.007-.003.007-.004.007-.004.007-.004.006-.004.006-.004.006-.004.006-.005.006-.005.006-.005.006-.005.006-.005.005-.005.005-.006.005-.006 3.51-3.934.004-.004.003-.004.003-.004.003-.004.003-.004.003-.004.003-.004.003-.004.003-.004.003-.004.003-.004.003-.005.003-.004.002-.005.002-.005.002-.005.002-.005.002-.005.002-.005.002-.005.002-.005.002-.005.002-.005.001-.005.001-.005.001-.005.001-.005.001-.005.001-.005.001-.005.001-.005.001-.005.001-.005.001-.005.001-.005v-.055l-.001-.005-.001-.005-.001-.005-.001-.005-.001-.005-.001-.005-.001-.005-.001-.005-.001-.005-.001-.005-.001-.005-.002-.005-.002-.005-.002-.005-.002-.005-.002-.005-.002-.005-.002-.005-.002-.005-.002-.005-.002-.005-.002-.005-.003-.005-.003-.005-.003-.004-.003-.003-.003-.004-.003-.004-.003-.004-.003-.004-.003-.004-.003-.004-.003-.004-.003-.004-.003-.004-.003-.004-.006-.005-.004-.004-.004-.004-.004-.004-.004-.003-.004-.003-.004-.003-.004-.003-.004-.003-.002-.003-.004-.003-.004-.003-.004-.003-.004-.003-.004-.003-.004-.003-.006-.002-.004-.003-.004-.002-.004-.002-.005-.002-.005-.002-.005-.002-.005-.002-.005-.002-.005-.002-.005-.002-.005-.002-.005-.002-.005-.001-.005-.001-.005-.001-.005-.001-.005-.001-.005-.001-.005-.001-.005-.001-.005-.001-.005-.001-.005-.001h-1.12v-3.572l-.001-.007-.001-.007-.001-.007-.001-.007-.001-.007-.001-.007-.002-.007-.002-.007-.002-.007-.002-.007-.002-.007-.002-.007-.003-.007-.003-.007-.003-.006-.003-.006-.003-.006-.003-.006-.004-.006-.004-.006-.004-.006-.004-.006-.004-.006-.004-.006-.004-.006-.005-.005-.005-.005-.005-.005-.005-.005-.005-.005-.005-.005-.005-.005-.005-.005-.006-.004-.006-.004-.006-.004-.006-.004-.006-.004-.006-.004-.008-.004-.006-.003-.006-.003-.007-.004-.006-.003-.006-.003-.007-.003-.007-.002-.007-.002-.007-.002-.007-.002-.007-.002-.007-.002-.007-.001-.007-.001-.007-.001-.007-.001-.007-.001-.005-.001h-4.284z"/><path fill="#FFF" d="M20.916 22.873h-.022l-.007.001-.007.001-.007.001-.007.001-.007.001-.007.002-.006.001-.007.002-.007.002-.007.002-.006.003-.007.002-.006.003-.007.002-.006.003-.007.003-.006.004-.006.003-.006.004-.006.003-.006.004-.006.004-.006.004-.005.005-.006.004-.005.005-.006.004-.005.005-.005.005-.005.005-.005.005-.004.006-.005.005-.004.006-.005.005-.004.006-.004.006-.004.006-.003.006-.004.006-.003.006-.004.006-.003.007-.003.006-.002.007-.003.006-.002.007-.003.006-.002.007-.002.007-.002.007-.001.006-.002.007-.001.007-.001.007-.001.007-.001.007-.001.007v3.573h-1.106l-.006.001h-.005l-.005.001h-.005l-.005.001-.006.001-.005.001-.005.001-.005.001-.005.001-.005.001-.005.002-.005.001-.005.002-.005.001-.005.002-.004.002-.005.001-.005.002-.005.002-.004.003-.005.002-.005.002-.004.002-.005.003-.004.002-.005.003-.004.003-.004.002-.004.003-.005.003-.004.003-.004.003-.004.003-.004.003-.004.003-.004.004-.004.003-.003.004-.004.003-.004.004-.003.004-.004.003-.003.004-.004.004-.003.004-.003.004-.004.004-.003.004-.003.004-.003.004-.003.005-.003.004-.002.005-.003.004-.003.005-.002.004-.003.005-.002.005-.002.004-.002.005-.003.005-.002.005-.002.005-.001.005-.002.005-.002.005-.001.005-.002.005-.001.005-.001.005-.002.005-.001.005-.001.005-.001.005v.005l-.001.005-.001.006v.005l-.001.005v.01l-.001.005v.016l.001.005v.01l.001.005v.005l.001.005.001.005.001.005.001.005.001.005.001.005.001.005.001.005.001.005.002.005.001.005.002.005.002.005.002.004.001.005.002.005.002.005.003.004.002.005.002.005.003.004.002.005.003.004.002.005.003.004.003.004.003.005.003.004.003.004.003.005.003.004.004.004.003.004.003.004 3.51 3.934.005.006.006.005.005.006.006.005.005.005.006.005.006.004.006.005.006.004.007.004.006.004.006.004.007.004.007.004.006.003.007.003.007.003.007.003.007.003.007.002.008.002.007.002.007.002.008.002.007.001.007.002.008.001.007.001h.008l.008.001h.03l.008-.001h.008l.007-.001.008-.001.007-.002.008-.001.007-.002.007-.002.008-.002.007-.002.007-.002.007-.003.007-.003.007-.003.007-.003.006-.003.007-.004.007-.004.006-.004.006-.004.007-.004.006-.004.006-.005.006-.004.006-.005.005-.005.006-.005.005-.006.006-.005.005-.006 3.51-3.934.003-.004.004-.004.003-.004.003-.004.003-.005.003-.004.003-.004.003-.005.003-.004.003-.004.003-.005.002-.004.003-.005.002-.004.002-.005.002-.005.003-.004.002-.005.002-.005.002-.005.001-.004.002-.005.002-.005.001-.005.002-.005.001-.005.001-.005.001-.005.002-.005.001-.005v-.005l.001-.005.001-.005.001-.005v-.005l.001-.005v-.01l.001-.005v-.016l-.001-.005v-.01l-.001-.005v-.005l-.001-.006v-.005l-.001-.005-.001-.005-.001-.005-.001-.005-.002-.005-.001-.005-.001-.005-.002-.005-.001-.005-.002-.005-.002-.005-.001-.005-.002-.005-.002-.005-.002-.005-.003-.005-.002-.004-.002-.005-.003-.005-.002-.004-.003-.005-.003-.004-.002-.005-.003-.004-.003-.005-.003-.004-.003-.004-.003-.004-.004-.004-.003-.004-.003-.004-.004-.004-.003-.004-.004-.003-.003-.004-.004-.004-.004-.003-.003-.004-.004-.003-.004-.004-.004-.003-.004-.003-.004-.003-.004-.003-.004-.003-.004-.003-.005-.003-.004-.002-.004-.003-.005-.003-.004-.002-.005-.003-.004-.002-.005-.002-.005-.002-.004-.003-.005-.002-.005-.002-.004-.001-.005-.002-.005-.002-.005-.001-.005-.002-.005-.001-.005-.002-.005-.001-.005-.001-.005-.001-.005-.001-.005-.001-.005-.001-.006-.001h-.005l-.005-.001h-.005l-.005-.001h-1.107v-3.573l-.001-.007-.001-.007-.001-.007-.001-.007-.001-.007-.002-.007-.001-.006-.002-.007-.002-.007-.002-.007-.002-.006-.003-.007-.003-.006-.002-.007-.003-.006-.003-.007-.004-.006-.003-.006-.003-.006-.004-.006-.004-.006-.004-.006-.004-.006-.004-.005-.005-.006-.004-.005-.005-.006-.005-.005-.005-.005-.005-.005-.005-.005-.006-.004-.005-.005-.006-.004-.005-.005-.006-.004-.006-.004-.006-.004-.006-.003-.006-.004-.006-.003-.006-.004-.007-.003-.006-.003-.006-.002-.007-.003-.007-.002-.006-.003-.007-.002-.007-.002-.007-.002-.006-.001-.007-.002-.007-.001-.007-.001-.007-.001-.007-.001-.007-.001h-.022z"/></svg>