<svg version="1.2" baseProfile="tiny" id="Layer_1" xmlns="http://www.w3.org/2000/svg" x="0" y="0" width="22.83" height="22.83" viewBox="0 0 22.83 22.83" xml:space="preserve"><g fill="#FF1D25"><path d="M1.815 1.815h5.76v5.76h-5.76z"/><path d="M21.827 1.003v20.823H1.003V1.003h20.824m1-1H.003v22.823h22.823V.003z"/><path d="M1.815 15.255h5.76v5.76h-5.76zm0-6.72h5.76v5.76h-5.76zm6.72-6.72h5.76v5.76h-5.76zm0 13.44h5.76v5.76h-5.76zm0-6.72h5.76v5.76h-5.76zm6.72-6.72h5.76v5.76h-5.76zm0 13.44h5.76v5.76h-5.76zm0-6.72h5.76v5.76h-5.76z"/></g></svg>