<svg version="1.1" id="Layer_1" xmlns="http://www.w3.org/2000/svg" x="0" y="0" width="27.7" height="34.31" viewBox="0 0 27.7 34.31" xml:space="preserve"><path d="M23 33V10a.5.5 0 0 0-1 0v23a.5.5 0 0 0 1 0m1.621-28.879l2.823 2.823a.628.628 0 0 1 0 .889l-1.232 1.232a.628.628 0 0 1-.889 0L22.5 6.243l-2.823 2.823a.628.628 0 0 1-.889 0l-1.232-1.232a.628.628 0 0 1 0-.889l2.823-2.823L22.5 2l2.121 2.121zM8.23 21.577l1.509 7.504H4.553l3.592-7.504h.085zM1.365 32.949l-.17.191-1.062.063-.127.914h4.187l.128-.914-1.488-.063-.127-.191 1.36-2.849h5.888l.574 2.849-.17.191-1.488.063-.127.914h4.676l.127-.914-1.062-.063-.128-.191L9.57 19.346H8.04L1.365 32.949z" fill="#ED1C24"/></svg>