<svg version="1.1" id="Layer_1" xmlns="http://www.w3.org/2000/svg" x="0" y="0" width="43" height="43.826" viewBox="0 0 43 43.826" xml:space="preserve"><path fill="#ED1C24" d="M16.187 22.008h.5c0-1.337.543-2.531 1.413-3.398a4.773 4.773 0 0 1 3.37-1.396c1.304 0 2.498.53 3.37 1.396a4.767 4.767 0 0 1 1.413 3.398c-.002 2.459-1.791 4.463-4.179 4.737l.057.497v-.5c-.333.006-.513.066-.66.06-.245 0-.359-.001-.539-.045l-.032-.008-.033-.004c-2.381-.268-4.18-2.341-4.179-4.737h-1.001c.001 2.898 2.164 5.397 5.066 5.731l.057-.497-.122.485c.3.076.547.075.782.075.333-.006.513-.066.66-.06h.028l.028-.003c2.895-.328 5.068-2.775 5.066-5.731a5.797 5.797 0 0 0-5.783-5.794 5.797 5.797 0 0 0-5.783 5.794h.501zm19.811 17.987l.496-.067c-.746-5.538-4.468-10.138-9.497-12.129l-.184.465.32.384c1.911-1.597 3.12-4.018 3.121-6.64-.001-4.849-3.944-8.8-8.785-8.802a8.788 8.788 0 0 0-6.205 2.551 8.685 8.685 0 0 0-2.579 6.19 8.722 8.722 0 0 0 3.121 6.7l.32-.384-.184-.465c-5.029 1.991-8.751 6.591-9.497 12.129l.496.067.343-.364A20.767 20.767 0 0 1 .777 24.533c0-5.729 2.315-10.91 6.06-14.664a20.6 20.6 0 0 1 14.632-6.072c2.75 0 5.45.587 7.917 1.588l.188-.463-.434-.247a9.064 9.064 0 0 0-1.206 4.519c.002 4.911 4.005 8.861 8.845 8.862a8.495 8.495 0 0 0 4.526-1.278l-.264-.425-.461.193c1.055 2.527 1.582 5.163 1.582 7.989a20.767 20.767 0 0 1-6.507 15.097l.343.363.496-.067-.496.067.343.364a21.77 21.77 0 0 0 6.821-15.824c0-2.95-.554-5.728-1.66-8.374l-.226-.542-.499.309a7.492 7.492 0 0 1-3.999 1.128 7.823 7.823 0 0 1-5.53-2.298 7.829 7.829 0 0 1-2.314-5.564c0-1.474.395-2.829 1.075-4.024l.283-.496-.53-.214c-2.576-1.045-5.4-1.661-8.292-1.661-11.984 0-21.692 9.73-21.692 21.736a21.765 21.765 0 0 0 6.821 15.824l.709.668.13-.965c.695-5.17 4.177-9.474 8.874-11.333l.782-.31-.646-.539a7.724 7.724 0 0 1-2.762-5.933c0-2.149.873-4.08 2.284-5.48a7.787 7.787 0 0 1 5.501-2.261c2.144 0 4.087.875 5.499 2.29a7.78 7.78 0 0 1 2.285 5.512c.001 2.311-1.072 4.462-2.762 5.873l-.646.539.782.31c4.697 1.859 8.179 6.162 8.874 11.333l.13.965.709-.668-.344-.365z"/><path fill="#1AFF23" d="M36.779 15.21c-3.302 0-5.943-2.647-5.943-5.956s2.702-5.956 5.943-5.956c3.242 0 5.943 2.647 5.943 5.956s-2.642 5.956-5.943 5.956z"/><path fill="#ED1C24" d="M36.779 15.21v-.5a5.424 5.424 0 0 1-5.443-5.456c0-1.517.618-2.877 1.609-3.864a5.432 5.432 0 0 1 3.835-1.591c1.483 0 2.843.605 3.835 1.591a5.433 5.433 0 0 1 1.609 3.864 5.424 5.424 0 0 1-5.443 5.456v1a6.422 6.422 0 0 0 6.444-6.456c-.005-3.588-2.928-6.454-6.446-6.455a6.462 6.462 0 0 0-6.444 6.455 6.422 6.422 0 0 0 6.444 6.456v-.5z"/><path fill="#FFF" d="M40.441 9.194c0 .662-.54 1.203-1.201 1.203h-1.321v1.323c0 .662-.54 1.203-1.201 1.203s-1.201-.541-1.201-1.203v-1.323h-1.261c-.66 0-1.201-.541-1.201-1.203s.54-1.203 1.201-1.203h1.261V6.728c0-.662.54-1.203 1.201-1.203s1.201.541 1.201 1.203v1.263h1.321c.66 0 1.201.541 1.201 1.203z"/><path fill="#ED1C24" d="M40.441 9.194h-.5a.71.71 0 0 1-.701.703h-1.821v1.823a.71.71 0 0 1-.701.703.71.71 0 0 1-.701-.703V9.897h-1.761a.71.71 0 0 1-.701-.703.71.71 0 0 1 .701-.703h1.761V6.728a.71.71 0 0 1 .701-.703.71.71 0 0 1 .701.703v1.763h1.821a.71.71 0 0 1 .701.703h1a1.705 1.705 0 0 0-1.701-1.703h-.821v-.763a1.705 1.705 0 0 0-1.701-1.703 1.705 1.705 0 0 0-1.701 1.703v.763h-.761a1.705 1.705 0 0 0-1.701 1.703 1.705 1.705 0 0 0 1.701 1.703h.761v.824a1.705 1.705 0 0 0 1.701 1.703 1.705 1.705 0 0 0 1.701-1.703v-.824h.821a1.705 1.705 0 0 0 1.701-1.703h-.5z"/></svg>