<svg version="1.1" id="Layer_1" xmlns="http://www.w3.org/2000/svg" x="0" y="0" width="26.629" height="31.94" viewBox="0 0 26.629 31.94" xml:space="preserve"><path d="M21 1v23a.5.5 0 0 0 1 0V1a.5.5 0 0 0-1 0m2.621 28.814l2.823-2.823a.628.628 0 0 0 0-.889l-1.232-1.232a.628.628 0 0 0-.889 0L21.5 27.693l-2.823-2.823a.628.628 0 0 0-.889 0l-1.232 1.232a.628.628 0 0 0 0 .889l2.823 2.823 2.121 2.121 2.121-2.121zm-8.344-15.732a6.94 6.94 0 0 1-9.762-3.939h6.572a.33.33 0 0 0 0-.66H5.33a6.957 6.957 0 0 1 0-3.112h6.758a.33.33 0 0 0 0-.66H5.516a6.94 6.94 0 0 1 9.761-3.939.496.496 0 0 0 .458-.878l-.001-.001A7.93 7.93 0 0 0 4.478 5.711H.331a.33.33 0 0 0 0 .66h3.985a8.027 8.027 0 0 0 0 3.112H.331a.33.33 0 0 0 0 .66h4.147a7.908 7.908 0 0 0 11.255 4.818.495.495 0 0 0-.454-.88l-.002.001z" fill="#ED1C24"/></svg>