<svg version="1.2" baseProfile="tiny" id="Layer_1" xmlns="http://www.w3.org/2000/svg" x="0" y="0" width="39.2" height="25" viewBox="0 0 39.2 25" xml:space="preserve"><path fill="#ED1C24" d="M10.942 9.375c0 .863-.699 1.562-1.562 1.562H1.567c-.863 0-1.562-.7-1.562-1.562V1.562A1.562 1.562 0 0 1 1.567 0H9.38c.863 0 1.562.7 1.562 1.562v7.813zm14.062-7.813C25.004.7 24.305 0 23.442 0H15.63c-.863 0-1.562.7-1.562 1.562v7.812c0 .863.699 1.562 1.562 1.562h7.812c.863 0 1.562-.7 1.562-1.562V1.562zM10.942 15.625c0-.863-.699-1.562-1.562-1.562H1.567c-.863 0-1.562.7-1.562 1.562v7.812A1.561 1.561 0 0 0 1.567 25H9.38c.863 0 1.562-.699 1.562-1.562v-7.813zm14.062 0c0-.863-.699-1.562-1.562-1.562H15.63c-.863 0-1.562.7-1.562 1.562v7.812c0 .863.699 1.562 1.562 1.562h7.812c.863 0 1.562-.699 1.562-1.562v-7.812zm14.192-6.25c0 .863-.699 1.562-1.562 1.562h-7.812c-.863 0-1.562-.7-1.562-1.562V1.562A1.56 1.56 0 0 1 29.821 0h7.812c.863 0 1.562.7 1.562 1.562v7.813zm0 6.25c0-.863-.699-1.562-1.562-1.562h-7.812c-.863 0-1.562.7-1.562 1.562v7.812c0 .863.699 1.562 1.562 1.562h7.812c.863 0 1.562-.699 1.562-1.562v-7.812z"/></svg>