<svg version="1.1" id="Layer_1" xmlns="http://www.w3.org/2000/svg" x="0" y="0" width="33.129" height="31.444" viewBox="0 0 33.129 31.444" xml:space="preserve"><path d="M27.5.5v23a.5.5 0 0 0 1 0V.5a.5.5 0 0 0-1 0m2.621 28.823l2.823-2.823a.628.628 0 0 0 0-.889l-1.232-1.232a.628.628 0 0 0-.889 0L28 27.202l-2.823-2.823a.628.628 0 0 0-.889 0l-1.232 1.232a.628.628 0 0 0 0 .889l2.823 2.823L28 31.444l2.121-2.121zM22.5 1.5H.5a.5.5 0 0 0 0 1h22a.5.5 0 0 0 0-1m0 6h-16a.5.5 0 0 0 0 1h16a.5.5 0 0 0 0-1m0 6h-11a.5.5 0 0 0 0 1h11a.5.5 0 0 0 0-1" fill="#ED1C24"/></svg>