<svg version="1.1" id="Layer_1" xmlns="http://www.w3.org/2000/svg" x="0" y="0" width="53.7" height="25" viewBox="0 0 53.7 25" xml:space="preserve"><path fill="#ED1C24" d="M10.941 9.375c0 .863-.699 1.562-1.562 1.562H1.566c-.863 0-1.562-.7-1.562-1.562V1.562A1.56 1.56 0 0 1 1.566 0h7.812c.863 0 1.562.7 1.562 1.562v7.813zm14.062-7.813C25.003.7 24.304 0 23.441 0h-7.812c-.863 0-1.562.7-1.562 1.562v7.812c0 .863.699 1.562 1.562 1.562h7.812c.863 0 1.562-.7 1.562-1.562V1.562zM10.941 15.625c0-.863-.699-1.562-1.562-1.562H1.566c-.863 0-1.562.7-1.562 1.562v7.812A1.56 1.56 0 0 0 1.566 25h7.812c.863 0 1.562-.699 1.562-1.562v-7.813zm14.062 0c0-.863-.699-1.562-1.562-1.562h-7.812c-.863 0-1.562.7-1.562 1.562v7.812c0 .863.699 1.562 1.562 1.562h7.812c.863 0 1.562-.699 1.562-1.562v-7.812zm14.192-6.25c0 .863-.699 1.562-1.562 1.562H29.82c-.863 0-1.562-.7-1.562-1.562V1.562A1.56 1.56 0 0 1 29.82 0h7.812c.863 0 1.562.7 1.562 1.562v7.813zm0 6.25c0-.863-.699-1.562-1.562-1.562H29.82c-.863 0-1.562.7-1.562 1.562v7.812c0 .863.699 1.562 1.562 1.562h7.812c.863 0 1.562-.699 1.562-1.562v-7.812zm14.502-6.25c0 .863-.699 1.562-1.562 1.562h-7.812c-.863 0-1.562-.7-1.562-1.562V1.562A1.56 1.56 0 0 1 44.322 0h7.812c.863 0 1.562.7 1.562 1.562v7.813zm0 6.25c0-.863-.699-1.562-1.562-1.562h-7.812c-.863 0-1.562.7-1.562 1.562v7.812c0 .863.699 1.562 1.562 1.562h7.812c.863 0 1.562-.699 1.562-1.562v-7.812z"/></svg>