<svg version="1.1" id="Layer_1" xmlns="http://www.w3.org/2000/svg" x="0" y="0" width="33.129" height="31.444" viewBox="0 0 33.129 31.444" xml:space="preserve"><path d="M27.5 30.944a.5.5 0 0 0 1 0v-23a.5.5 0 0 0-1 0v23M28 0l-2.121 2.121-2.823 2.823a.628.628 0 0 0 0 .889l1.232 1.232a.628.628 0 0 0 .889 0L28 4.242l2.823 2.823a.628.628 0 0 0 .889 0l1.232-1.232a.628.628 0 0 0 0-.889l-2.823-2.823L28 0zm-5.5 28.722a.5.5 0 0 0 0-1H.5a.5.5 0 0 0 0 1h22m0-6a.5.5 0 0 0 0-1h-16a.5.5 0 0 0 0 1h16m0-6a.5.5 0 0 0 0-1h-11a.5.5 0 0 0 0 1h11" fill="#ED1C24"/></svg>