<svg version="1.2" baseProfile="tiny" id="Layer_1" xmlns="http://www.w3.org/2000/svg" x="0" y="0" width="24" height="24" viewBox="0 0 24 24" xml:space="preserve"><path fill="#FFF" d="M12 2c5.514 0 10 4.486 10 10 0 5.515-4.486 10-10 10S2 17.515 2 12C2 6.486 6.486 2 12 2zm0-2C5.373 0 0 5.373 0 12s5.373 12 12 12 12-5.373 12-12S18.627 0 12 0zm-2 8c0 .557-.447 1.008-1 1.008-.553.001-1-.45-1-1.008 0-.557.447-1.008 1-1.008.553 0 1 .452 1 1.008zm0 2H8v6h2v-6zm3 0h-2v6h2v-2.861c0-1.722 2.002-1.881 2.002 0V16H17v-3.359c0-3.284-3.128-3.164-4-1.548V10z"/></svg>