<svg version="1.1" id="Layer_1" xmlns="http://www.w3.org/2000/svg" x="0" y="0" width="27.7" height="34.31" viewBox="0 0 27.7 34.31" xml:space="preserve"><path d="M22 3v23a.5.5 0 0 0 1 0V3a.5.5 0 0 0-1 0m2.621 29.188l2.823-2.823a.628.628 0 0 0 0-.889l-1.232-1.232a.628.628 0 0 0-.889 0L22.5 30.067l-2.823-2.823a.628.628 0 0 0-.889 0l-1.232 1.232a.628.628 0 0 0 0 .889l2.823 2.823L22.5 34.31l2.121-2.122zM8.164 5.48l1.509 7.504H4.486L8.079 5.48h.085zM1.298 16.853l-.17.191-1.062.063-.127.914h4.187l.128-.914-1.488-.063-.127-.191 1.36-2.849h5.888l.574 2.849-.17.191-1.488.063-.127.914h4.676l.127-.914-1.062-.063-.128-.191L9.503 3.249h-1.53L1.298 16.853z" fill="#ED1C24"/></svg>