<svg version="1.1" id="Layer_1" xmlns="http://www.w3.org/2000/svg" x="0" y="0" width="43" height="43.826" viewBox="0 0 43 43.826" xml:space="preserve"><g fill="#ED1C24"><path d="M40.367 15.21h-5.688a2.636 2.636 0 0 0-2.633 2.633v3.525H11.222a.527.527 0 0 0 0 1.054h1.992v2.929a.526.526 0 1 0 1.054 0v-2.929h3.652v1.207a.528.528 0 0 0 1.054 0v-1.207H32.05v3.525a2.636 2.636 0 0 0 2.633 2.633h5.686a2.636 2.636 0 0 0 2.633-2.633v-8.104a2.638 2.638 0 0 0-2.635-2.633zm1.58 10.737c0 .87-.71 1.58-1.58 1.58h-5.688c-.87 0-1.58-.71-1.58-1.58v-8.104c0-.871.71-1.58 1.58-1.58h5.688c.87 0 1.58.709 1.58 1.58v8.104z"/><path d="M8.881 39.512c3.892 2.875 8.453 4.314 13.015 4.314 4.561 0 9.123-1.438 13.015-4.314a.525.525 0 1 0-.625-.847c-7.412 5.476-17.371 5.476-24.78 0-9.247-6.833-11.211-19.913-4.38-29.16C11.958.257 25.039-1.708 34.288 5.124a.527.527 0 0 0 .625-.847C25.2-2.897 11.457-.835 4.279 8.879S-.834 32.336 8.881 39.512z"/></g></svg>