<svg version="1.2" baseProfile="tiny" id="Layer_1" xmlns="http://www.w3.org/2000/svg" x="0" y="0" width="29.1" height="22.83" viewBox="0 0 29.1 22.83" xml:space="preserve"><g fill="#FF1D25"><path d="M1.616 1.844h5.76v5.76h-5.76v-5.76zm0 19.2h5.76v-5.76h-5.76v5.76zm0-6.72h5.76v-5.76h-5.76v5.76zm6.72-6.72h5.76v-5.76h-5.76v5.76zm0 13.44h5.76v-5.76h-5.76v5.76zm0-6.72h5.76v-5.76h-5.76v5.76zm6.72-12.48v5.76h5.76v-5.76h-5.76zm0 19.2h5.76v-5.76h-5.76v5.76zm0-6.72h5.76v-5.76h-5.76v5.76zm6.668-12.48v5.76h5.76v-5.76h-5.76zm0 19.2h5.76v-5.76h-5.76v5.76zm0-6.72h5.76v-5.76h-5.76v5.76z"/><path d="M28.095 1.003v20.823H1.005V1.003h27.09m1-1H.005v22.823h29.09V.003z"/></g></svg>