<svg version="1.1" id="Layer_1" xmlns="http://www.w3.org/2000/svg" x="0" y="0" width="20.52" height="20.52" viewBox="0 0 20.52 20.52" xml:space="preserve"><path fill="#ED1C24" d="M14.136 14.686l-.096.094a8.417 8.417 0 0 1-3.011 1.681 8.497 8.497 0 0 1-5.019.033.52.52 0 0 1-.347-.65.523.523 0 0 1 .653-.346 7.444 7.444 0 0 0 4.398-.03 7.363 7.363 0 0 0 3.677-2.586 7.313 7.313 0 0 0 1.429-5.47 7.32 7.32 0 0 0-2.875-4.876 7.4 7.4 0 0 0-5.496-1.423 7.37 7.37 0 0 0-4.898 2.861A7.295 7.295 0 0 0 1.05 8.452a7.41 7.41 0 0 0 1.472 4.394.524.524 0 1 1-.842.624A8.454 8.454 0 0 1 .001 8.459a8.328 8.328 0 0 1 1.715-5.112A8.416 8.416 0 0 1 7.306.082a8.454 8.454 0 0 1 6.272 1.626 8.364 8.364 0 0 1 3.281 5.565 8.357 8.357 0 0 1-1.634 6.243c-.093.125-.19.245-.29.363l5.427 5.684a.567.567 0 1 1-.825.78l-5.401-5.657zm-6.124-.583l-.049-.003a5.74 5.74 0 0 1-2.932-1.128 5.672 5.672 0 0 1-1.788-2.247.516.516 0 0 1 .27-.685.523.523 0 0 1 .689.268 4.668 4.668 0 0 0 3.855 2.754.52.52 0 0 1-.045 1.041z"/></svg>