<svg version="1.2" baseProfile="tiny" id="Layer_1" xmlns="http://www.w3.org/2000/svg" x="0" y="0" width="25" height="25" viewBox="0 0 25 25" xml:space="preserve"><path fill="#ED1C24" d="M10.938 9.375c0 .863-.699 1.562-1.562 1.562H1.562A1.56 1.56 0 0 1 0 9.375V1.562C0 .7.699 0 1.562 0h7.812c.863 0 1.562.7 1.562 1.562v7.813zM25 1.562C25 .7 24.301 0 23.438 0h-7.812c-.863 0-1.562.7-1.562 1.562v7.812c0 .863.699 1.562 1.562 1.562h7.812c.863 0 1.562-.7 1.562-1.562V1.562zM10.938 15.625c0-.863-.699-1.562-1.562-1.562H1.562c-.863 0-1.562.7-1.562 1.562v7.812C0 24.301.699 25 1.562 25h7.812c.863 0 1.562-.699 1.562-1.562v-7.813zm14.062 0c0-.863-.699-1.562-1.562-1.562h-7.812c-.863 0-1.562.7-1.562 1.562v7.812c0 .863.699 1.562 1.562 1.562h7.812A1.56 1.56 0 0 0 25 23.438v-7.813z"/></svg>