<svg version="1.2" baseProfile="tiny" id="Layer_3" xmlns="http://www.w3.org/2000/svg" x="0" y="0" width="30" height="33.16" viewBox="0 0 30 33.16" xml:space="preserve"><g fill="#ED1C24"><path d="M1.017 18.188c0 3.913 1.528 7.463 4.038 10.032a13.784 13.784 0 0 0 9.927 4.16c3.918 0 7.444-1.589 9.982-4.157a14.21 14.21 0 0 0 4.098-10.033C29.06 10.343 22.589 4.001 14.751 4H8a.5.5 0 0 0 0 1h6.751c3.646 0 6.973 1.476 9.391 3.864 2.418 2.389 3.92 5.683 3.921 9.326-.002 7.294-5.795 13.189-13.081 13.19-7.283-.002-12.961-5.892-12.965-13.192a.5.5 0 0 0-1 0z"/><path d="M8.196 7.491L5.239 4.534l2.957-2.957A.5.5 0 0 0 7.489.87L3.824 4.534l3.664 3.664a.5.5 0 0 0 .708-.707zm8.797 10.236l2.823-2.823a.628.628 0 0 0 0-.889l-1.232-1.232a.628.628 0 0 0-.889 0l-2.823 2.823-2.823-2.823a.628.628 0 0 0-.889 0l-1.232 1.232a.628.628 0 0 0 0 .889l2.823 2.823-2.823 2.823a.628.628 0 0 0 0 .889l1.232 1.232a.628.628 0 0 0 .889 0l2.823-2.823 2.823 2.823a.628.628 0 0 0 .889 0l1.232-1.232a.628.628 0 0 0 0-.889l-2.823-2.823z"/></g></svg>