<svg version="1.2" baseProfile="tiny" id="Layer_1" xmlns="http://www.w3.org/2000/svg" x="0" y="0" width="24" height="24" viewBox="0 0 24 24" xml:space="preserve"><path fill="#FFF" d="M12 2c5.514 0 10 4.486 10 10 0 5.515-4.486 10-10 10S2 17.515 2 12C2 6.486 6.486 2 12 2zm0-2C5.373 0 0 5.373 0 12s5.373 12 12 12 12-5.373 12-12S18.627 0 12 0zm6.5 8.778a4.928 4.928 0 0 1-1.414.388 2.468 2.468 0 0 0 1.083-1.362 4.926 4.926 0 0 1-1.564.597 2.465 2.465 0 0 0-4.195 2.246 6.993 6.993 0 0 1-5.074-2.572 2.465 2.465 0 0 0 .762 3.287 2.445 2.445 0 0 1-1.114-.308 2.463 2.463 0 0 0 1.975 2.444 2.467 2.467 0 0 1-1.112.043 2.468 2.468 0 0 0 2.3 1.71A4.967 4.967 0 0 1 6.5 16.27a6.965 6.965 0 0 0 3.773 1.108c4.572 0 7.154-3.862 6.998-7.325A4.983 4.983 0 0 0 18.5 8.778z"/></svg>