<svg version="1.1" id="Layer_1" xmlns="http://www.w3.org/2000/svg" x="0" y="0" width="44" height="44.167" viewBox="0 0 44 44.167" xml:space="preserve"><g fill="#ED1C24"><path d="M23.226 10.413a1.5 1.5 0 0 0-2.104 0L11.03 20.505c-.909.909-.287 2.535 1.052 2.535h1.243v9.996c0 .622.526 1.148 1.148 1.148h4.591a.552.552 0 0 0 .574-.574v-5.357c0-.335.239-.574.574-.574h3.922c.335 0 .574.239.574.574v5.357c0 .335.239.574.574.574h4.591c.622 0 1.148-.526 1.148-1.148V23.04h1.243c1.291 0 1.961-1.578 1.052-2.535l-10.09-10.092z"/><path d="M43.5 22.083H43a20.93 20.93 0 0 1-6.151 14.849A20.936 20.936 0 0 1 22 43.083a20.93 20.93 0 0 1-14.849-6.151A20.929 20.929 0 0 1 1 22.083 20.93 20.93 0 0 1 7.151 7.234 20.93 20.93 0 0 1 22 1.083a20.93 20.93 0 0 1 14.849 6.151A20.932 20.932 0 0 1 43 22.083h1c0-12.15-9.85-22-22-22s-22 9.85-22 22 9.85 22 22 22 22-9.85 22-22h-.5z"/></g></svg>