<svg version="1.1" id="Layer_1" xmlns="http://www.w3.org/2000/svg" xmlns:xlink="http://www.w3.org/1999/xlink" x="0" y="0" width="35.66" height="35.98" viewBox="0 0 35.66 35.98" xml:space="preserve"><defs><path id="SVGID_1_" d="M13.553.789c.786-.136 1.613-.123 2.351-.464-.42.616.331 1.107.743 1.447.945.181 1.905.247 2.857.367-.27.31-.555.606-.826.915.241.104.486.202.727.306-.831.699.553 1.409.669 2.099a1.7 1.7 0 0 1-.578-.414c-.21-.233-.633-.162-.947-.161-.347.001-.636.352-.917.549-.306.214-.621.414-.94.607l.033-.525c-.124.242-.17.521-.489.339l.061.35h-.546c.329.276.55.381.594.814.031.32.382.602.531.899-.209.1-.454.183-.605.369a.554.554 0 0 0-.11.42 39.97 39.97 0 0 0-.457.142c.27.038.589-.035.62.262.025.239.078.475.162.7.207.553.568.9 1.074 1.179.475.262.876.634 1.331.926.229.146.47.271.732.349.164.255.29.532.399.815.364.947.537 2.038 1.279 2.786.449.453 1.023.764 1.455 1.236.442.483 1.161.622 1.799.61.292-.005.583-.044.869-.103.215-.045.537-.214.754-.126.847.342-.108 1.013-.434 1.318.747.886 1.965 1.07 3.002 1.428.91.314 1.89.902 2.721 1.395.457.271.888.597 1.218 1.018.183.235.322.377.234.67a6.32 6.32 0 0 0-.216 1.063 37.762 37.762 0 0 1-.579-.26c-.36-.166-.367-.214-.5-.577a5.263 5.263 0 0 0-.249-.565c-.153-.302-.513-.171-.824-.161-.42.014-.818-.134-1.056-.476-.127-.182-.111-.307-.331-.167a1.755 1.755 0 0 0-.476.449c-.462.632-.536 1.449-.809 2.164-.136.356.649.581.928.693.236.095.472.194.684.338.241.164.186.495.25.769.05.215.105.429.131.648.042.369.046.446-.317.463-.358.017-.789.013-1.043.312-.26.306-.192.621-.124.982.106.566-.199.608-.533.971-.286.309-.406.725-.535 1.114-.106.318-1.028.451-1.16.118a2.231 2.231 0 0 1-.124-.622c-.031-.314.184-.31.358-.552.267-.374.31-.9-.047-1.234.31-.183.673-.275.953-.509.252-.21-.323-1.097-.452-1.397-.427-.998-.833-2.013-1.416-2.933-.285.206-.439.461-.763.262-.359-.22-.711-.452-1.079-.657.333-.401.085-.827-.211-1.157-.291-.327-1.394.202-1.796.31.27-.185.537-.371.809-.55-.239-.242-.396-.598-.73-.416-.343.185-.673.392-1.014.58.174-.253.579-.391.567-.748-.169-.304-.645-1.311-.986-1.219-.478.129-.866-.198-1.368-.033-.335.11-.367-.125-.664-.304-.231-.139-.483-.237-.731-.336a4.778 4.778 0 0 0-1.008-1c-.141-.439-.518-.711-.859-.99-.679-.556-.998-1.555-2.082-1.083.376-.388-.011-1.199-.484-1.312-.44-.105-.137-.21-.365-.503-.143-.184-.428-.176-.636-.158.159-.491.087-1.016-.151-1.469-.253-.48-.319-.863-.433-1.397-.13-.604-.418-.72-.948-.972-.445-.212-.897-.429-1.262-.767-.504-.161-1.008-.323-1.515-.472-.4.354-.782.731-1.106 1.156-.265.35-.418.695-.855.852-.348.125-.722.141-1.078.236.198-.452.433-.887.642-1.334-.632.198-1.253-.04-1.807-.341-.379-.662-.122-1.402.242-2.007a154.18 154.18 0 0 1-.626-.214c-.123-.278-.244-.556-.371-.832.223-.073.447-.147.669-.226.386-.136.437-.162.576-.538.143-.387-.596-1.275-.808-1.66.365-.138.663-.189 1.045-.252.233-.039.462-.102.686-.179.316-.108.503.03.806.153.201-.257.467-.468.622-.76a.853.853 0 0 0 .104-.475c.241-.238.486-.473.739-.699l-.017.664c-.008.268.391.459.594.615.374.287.379.86.826 1.084-.423-.91.806-1.575.496-2.494.178.077.316.212.427.368.132.186.186.545.426.432.208-.097.417-.194.624-.292.225.23.45.459.682.682-.088-.316-.54-1.079-.261-1.328.253-.226.705.081.982.107-.138-.157-.447-.368-.336-.563.104-.185.199-.539.442-.527.257.013.465.193.702.27.428.141.538-.382.763-.66m-1.637 14.529c.275-.374-.386-.522-.612-.334-.671.308.35.736.612.334zM8.761 20.59c-.554.496-1.111.996-1.746 1.388l-.687-.304c.028-.304.089-.603.127-.906-.305.517-.346 1.126-.422 1.706-.046.354.156.21.366.441.135.149.21.343.274.531.14.421.131.638.016 1.063-.096.354-.061.653.358.717-.174.414-.302.845-.431 1.274-.115.383-.026.81-.004 1.208l-.68-.214c.419.291.512.378.617.878a17 17 0 0 1 .412-.518l.096.492c.047.239.228.155.444.17.401.028.54.002.701-.399a.926.926 0 0 0 .053-.51c.128-.038.254-.074.381-.11.342-.094.72.214 1.031.367.137-.834.266-1.671.336-2.514.02-.253.035-.506.044-.759a.906.906 0 0 1-.149-.383c-.041-.323.133-.62.333-.858.229-.271-.043-.731-.096-1.084-.037-.246.047-.416-.182-.502l-.156-.144c-.102-.207.04-.828-.339-.657.135-.371-.449-.32-.697-.373m15.997 9.847l.011.276c-.526-.205-1.019.03-1.492.255-.553.262-1.069.256-1.662.354-.848.14-1.244-.066-1.9-.59-.552.138-.733.373-1.127.786-.109-.191-.223-.379-.334-.569-.235.181-.471.36-.703.543-.036.231-.078.461-.116.692-.056.343.181.443.421.667.211.197.303.115.575.148.942.115 1.531.686 2.329 1.118.401.216.839.369 1.299.366.31-.033.551.131.74.36.292.352.394.592.867.714.429.11.872.151 1.305.244-.139-.524.054-1.02.476-1.35-.288-.459-.727-.93-.679-1.484.096-1.089.86-1.947 1.229-2.942-.417.124-.824.279-1.239.412"/></defs><clipPath id="SVGID_2_"><use xlink:href="#SVGID_1_" overflow="visible"/></clipPath><path clip-path="url(#SVGID_2_)" fill-rule="evenodd" clip-rule="evenodd" fill="#008F3C" d="M2.764 1.273v9.354h32.292V1.273c-.342-1.18-1.873-2.107-3.767-2.259H6.531C4.637-.834 3.086.092 2.764 1.273z"/><path clip-path="url(#SVGID_2_)" fill-rule="evenodd" clip-rule="evenodd" fill="#F7F9F8" d="M2.764 10.626h32.292v11.625H2.764z"/><path clip-path="url(#SVGID_2_)" fill-rule="evenodd" clip-rule="evenodd" fill="#D01C2A" d="M2.764 22.252v9.354c.322 1.18 1.873 2.107 3.767 2.259h24.758c1.894-.152 3.425-1.079 3.767-2.259v-9.354H2.764z"/><path fill="#1A171B" d="M13.576.918C14.345.783 15.185.8 15.959.444l-.055-.119-.108-.074a.77.77 0 0 0-.146.44c.017.557.603.913.914 1.182l.026.021.033.006c.955.183 1.918.249 2.866.368l.016-.13-.099-.086c-.267.307-.552.603-.826.915l-.119.135.165.071c.243.105.488.203.727.306l.052-.12-.084-.1c-.21.174-.312.378-.311.581.006.342.243.622.463.896.225.27.442.536.472.744l.129-.022.053-.12a1.554 1.554 0 0 1-.533-.381c-.178-.193-.432-.214-.657-.215-.14 0-.275.01-.387.011-.439.012-.73.399-.992.573-.303.211-.616.41-.933.603l.068.112.131.008.033-.525.037-.624-.286.556c-.052.103-.09.202-.126.262l-.07.064-.112-.041-.24-.137.047.273.062.351.129-.023v-.131h-.906l.276.231c.17.142.304.236.39.334.085.098.136.196.157.392.052.403.423.682.544.945l.117-.059-.057-.117c-.197.097-.464.18-.65.404a.661.661 0 0 0-.143.424l.005.093.13-.015-.038-.125-.458.142-.552.174.573.081c.152.02.3.013.392.033l.116.113c.026.249.082.496.17.733v.001-.001c.218.585.61.961 1.134 1.248.456.251.855.621 1.324.922.235.151.488.282.765.364l.037-.126-.11.071c.157.245.28.514.387.791.36.927.529 2.041 1.308 2.832.468.47 1.04.781 1.452 1.233.466.506 1.183.652 1.819.653l.079-.001c.302-.006.6-.045.893-.106.197-.044.431-.151.586-.148l.092.015c.227.097.258.175.26.246.006.096-.104.27-.264.429-.158.161-.348.312-.47.426l-.09.085.08.095c.793.933 2.041 1.112 3.06 1.468.891.307 1.866.891 2.697 1.384.449.266.866.582 1.181.986.153.193.236.295.234.422l-.021.13-.001.002.001-.002c-.107.355-.177.72-.22 1.085l.13.015.053-.12a37.61 37.61 0 0 1-.578-.259c-.178-.082-.249-.128-.288-.178-.042-.05-.077-.141-.143-.325a5.371 5.371 0 0 0-.255-.579c-.104-.214-.319-.275-.492-.27-.161.001-.321.033-.454.037l-.05.001c-.369-.001-.694-.136-.893-.421l-.094-.156c-.026-.047-.095-.128-.201-.127l-.215.08a1.885 1.885 0 0 0-.512.483c-.488.673-.559 1.504-.826 2.195l-.024.128a.426.426 0 0 0 .153.307c.247.225.689.349.873.426.235.094.462.191.659.325.079.054.113.132.136.258.022.123.024.277.06.433.05.217.104.427.129.634v-.001c.011.095.019.169.019.218l-.01.067c-.006.008-.073.029-.202.033-.348.02-.824 0-1.136.358a.88.88 0 0 0-.217.599c0 .167.033.329.064.492l.019.182c-.003.157-.044.22-.132.315-.089.092-.233.194-.388.361-.313.341-.435.777-.563 1.162-.007.032-.076.101-.193.147a1.104 1.104 0 0 1-.397.076c-.19.003-.317-.065-.325-.112-.071-.177-.095-.377-.115-.586l-.002-.045.076-.162c.058-.053.164-.123.26-.256.148-.207.235-.456.235-.706a.942.942 0 0 0-.299-.7l-.089.096.067.113c.286-.173.658-.264.97-.522l.11-.268c-.003-.218-.114-.465-.231-.706-.117-.238-.248-.466-.294-.575-.427-.996-.834-2.017-1.426-2.951l-.075-.118-.113.082c-.227.174-.367.321-.466.309l-.152-.053c-.357-.218-.71-.452-1.084-.66l-.064.115.101.084a.765.765 0 0 0 .189-.496c-.003-.326-.202-.605-.403-.832-.107-.117-.259-.149-.41-.149-.502.004-1.228.345-1.518.42l.034.127.074.108c.27-.185.537-.371.807-.549l.133-.088-.112-.114c-.087-.088-.169-.203-.265-.304-.094-.099-.215-.199-.384-.2l-.237.066c-.347.188-.678.395-1.015.581l.063.115.108.074c.064-.096.198-.191.328-.307.127-.114.263-.271.262-.499v-.02l-.001-.032-.015-.028c-.078-.14-.231-.451-.409-.728a2.356 2.356 0 0 0-.287-.375c-.102-.101-.212-.186-.359-.189l-.079.01-.206.026c-.244.003-.504-.108-.824-.111a1.11 1.11 0 0 0-.345.054l-.112.022-.152-.078c-.066-.058-.153-.153-.291-.236-.244-.146-.502-.246-.75-.345l-.049.122.106-.077a4.92 4.92 0 0 0-1.035-1.028l-.078.105.125-.04c-.161-.491-.566-.775-.9-1.051-.26-.212-.475-.508-.718-.763-.24-.252-.528-.473-.925-.473-.175 0-.365.043-.575.134l.052.12.094.091a.701.701 0 0 0 .188-.494c-.008-.448-.313-.923-.736-1.036a.5.5 0 0 1-.16-.057l-.001.001c-.011-.01.026-.207-.132-.4-.151-.188-.379-.216-.563-.217l-.187.009.011.131.125.04c.062-.192.092-.388.092-.583 0-.343-.09-.681-.251-.987-.243-.461-.306-.825-.421-1.363-.067-.319-.188-.534-.365-.689-.177-.155-.391-.248-.654-.374-.445-.212-.884-.424-1.23-.745l-.021-.02-.032-.016a63.58 63.58 0 0 0-1.517-.474l-.069-.02-.054.048c-.404.357-.792.74-1.123 1.175-.278.37-.414.673-.795.808-.324.117-.693.134-1.069.233l.034.127.12.052c.195-.446.429-.879.641-1.331l.126-.27-.284.089a1.471 1.471 0 0 1-.441.067c-.427.001-.859-.177-1.264-.398l-.063.115.114-.065a1.272 1.272 0 0 1-.169-.646c-.001-.412.179-.845.41-1.228l.083-.139-.154-.053-.625-.214-.043.124.12-.053c-.123-.277-.244-.557-.372-.834l-.119.055.041.125c.224-.073.449-.148.672-.227.192-.069.317-.11.425-.205.107-.098.16-.222.23-.411l.026-.158c-.005-.274-.177-.574-.361-.872-.185-.294-.393-.578-.482-.739l-.114.063.046.123c.352-.133.638-.182 1.02-.245.243-.041.478-.107.707-.184l.177-.032c.151-.003.299.083.537.182l.092.037.061-.078c.186-.242.461-.456.635-.78v-.001.001c.076-.144.122-.305.122-.472l-.003-.074-.131.01.092.093c.241-.237.484-.471.734-.694l-.087-.098-.131-.003-.017.664v-.001.011c.004.203.14.34.27.447.134.108.286.196.375.265.153.116.243.308.348.52.105.209.232.443.499.577l.335.167-.157-.34a.774.774 0 0 1-.078-.337c-.002-.266.141-.538.302-.829.158-.291.333-.601.334-.966 0-.113-.018-.229-.058-.348l-.123.042-.052.12a.91.91 0 0 1 .372.323c.043.059.086.169.141.273l.107.152.2.085.141-.034c.208-.097.417-.194.625-.293l-.056-.118-.094.092c.225.23.451.461.685.685l.346.332-.129-.462c-.081-.27-.352-.776-.347-1.051l.046-.145.15-.049c.191-.006.481.159.733.189l.329.031-.219-.247-.226-.227-.101-.163.007-.023c.059-.106.106-.235.164-.329.06-.099.108-.134.152-.132h.005c.197.004.398.169.668.264h.001-.001l.177.03c.229-.001.372-.16.468-.309.099-.152.176-.32.261-.423l-.203-.165c-.115.143-.192.317-.277.444-.088.132-.158.191-.249.19l-.096-.016c-.203-.061-.421-.255-.736-.277h-.017c-.191.002-.306.14-.377.259-.073.123-.124.259-.167.335l-.04.151c.004.15.091.251.171.341l.222.222.098-.086.012-.13c-.155-.008-.461-.185-.758-.191a.472.472 0 0 0-.325.116.44.44 0 0 0-.133.34c.006.395.301.904.356 1.121l.126-.035.091-.094a31.05 31.05 0 0 1-.679-.679l-.065-.067-.084.04-.625.292-.03.009-.018-.012c-.054-.042-.115-.235-.216-.387a1.173 1.173 0 0 0-.482-.413l-.27-.117.094.279.044.264c.001.275-.142.55-.303.841-.158.29-.333.596-.334.955 0 .145.031.296.101.448l.119-.055.059-.117c-.181-.09-.279-.254-.382-.46-.102-.202-.202-.44-.423-.611-.112-.085-.257-.169-.37-.26-.115-.092-.176-.182-.172-.243v-.004l.017-.664.007-.301-.225.2a19.05 19.05 0 0 0-.744.703l-.043.043.005.061.002.053c0 .12-.032.238-.091.35-.137.261-.395.467-.611.741l.103.081.049-.121c-.213-.085-.388-.2-.635-.202l-.262.046a4.366 4.366 0 0 1-.665.173c-.381.063-.692.116-1.07.258l-.141.054.073.132c.105.19.31.467.49.753.181.281.326.58.32.732l-.01.067c-.068.187-.11.264-.16.307-.048.045-.143.085-.337.153-.22.078-.443.152-.666.224l-.14.046.062.134c.127.274.248.552.371.831l.023.052.054.019.625.213.043-.124-.113-.067c-.242.405-.446.875-.447 1.363 0 .26.06.525.204.776l.018.032.033.018c.421.228.889.429 1.389.43.171 0 .345-.024.519-.079l-.039-.125-.119-.056c-.206.444-.442.879-.642 1.338l-.109.25.263-.071c.337-.092.715-.107 1.089-.239.493-.179.662-.567.915-.896A8.061 8.061 0 0 1 7.81 9.649l-.087-.098-.036.126c.505.148 1.007.31 1.51.472l.04-.125-.09.096c.385.355.85.577 1.295.789.267.127.462.217.594.334.131.117.22.262.282.547.113.529.182.932.445 1.43.143.271.221.568.221.865a1.6 1.6 0 0 1-.079.502l-.061.188.197-.017.165-.008c.16-.001.296.034.356.116.088.122.065.147.076.255l.101.189c.065.05.144.077.261.106.257.05.543.457.535.782a.435.435 0 0 1-.114.312l-.459.475.606-.264c.185-.08.338-.112.47-.112.292 0 .507.155.735.392.226.235.446.542.741.784.348.283.695.543.817.929l.013.04.034.025c.372.278.709.601.98.972l.022.03.035.014c.25.1.495.195.713.327.106.064.173.136.252.207a.477.477 0 0 0 .327.145l.194-.035.263-.041c.251-.003.509.108.824.111.088 0 .18-.01.275-.035l.011-.001.173.112c.248.247.531.822.653 1.046l.114-.064-.131.004v.011c0 .118-.063.201-.176.305-.111.102-.261.2-.368.353l-.314.457.485-.268c.345-.19.675-.397 1.013-.58l.001-.001h-.001l.111-.034.194.118c.078.082.163.2.269.308l.093-.092-.072-.109c-.275.181-.543.368-.811.552l-.633.433.74-.198c.328-.091 1.051-.414 1.45-.411.118 0 .187.028.215.061.189.208.34.45.336.657a.499.499 0 0 1-.129.328l-.101.122.138.077c.362.201.713.432 1.074.654.097.06.194.092.289.092.283-.013.423-.226.62-.359l-.077-.106-.111.07c.575.906.978 1.914 1.406 2.914.06.138.187.357.3.588.114.227.207.471.204.591l-.016.067c-.248.211-.602.303-.935.497l-.15.089.128.119a.677.677 0 0 1 .216.508.974.974 0 0 1-.186.553l-.223.215a.449.449 0 0 0-.162.356l.004.07c.021.212.046.438.133.657.101.225.343.274.568.277.169 0 .345-.033.496-.095.149-.063.286-.15.342-.306.129-.394.248-.789.507-1.067.134-.146.266-.238.382-.356a.663.663 0 0 0 .206-.498l-.023-.23c-.031-.165-.06-.313-.059-.444a.617.617 0 0 1 .155-.429c.196-.241.582-.252.949-.266.141-.009.242-.017.337-.078.1-.066.128-.186.125-.283 0-.072-.009-.151-.02-.248v-.001c-.028-.231-.085-.45-.134-.662-.028-.118-.031-.267-.057-.419-.025-.15-.085-.319-.247-.429a3.705 3.705 0 0 0-.708-.352c-.137-.055-.367-.129-.559-.225a.988.988 0 0 1-.233-.15l-.07-.116.007-.035c.279-.74.356-1.542.792-2.133.12-.165.269-.307.44-.416l.064-.035.013-.004-.003-.011v.011h.003l-.003-.011v.011-.05l-.031.04.031.011v-.05l-.031.04.006-.007-.007.006.001.001.006-.007-.007.006c.01.006.047.087.112.183.257.369.677.534 1.108.533l.059-.001c.163-.006.321-.038.445-.037.142.006.201.022.258.126.091.181.174.364.243.551.066.179.101.293.186.4.087.106.2.167.382.251.193.089.388.176.581.261l.162.072.021-.176c.042-.353.109-.703.211-1.041l.032-.205c-.003-.252-.153-.405-.289-.583-.344-.44-.788-.774-1.254-1.05-.832-.492-1.816-1.085-2.745-1.406-1.057-.361-2.243-.55-2.945-1.389l-.1.084.09.095c.108-.102.305-.258.478-.434.17-.178.333-.371.339-.612.002-.208-.154-.386-.424-.489l-.19-.034c-.246.003-.492.126-.639.154-.28.058-.562.095-.844.101l-.074.001c-.599.001-1.242-.145-1.626-.568-.453-.492-1.03-.805-1.459-1.24-.705-.706-.881-1.774-1.249-2.741a4.487 4.487 0 0 0-.411-.838l-.026-.041-.047-.014a2.741 2.741 0 0 1-.698-.333c-.443-.283-.846-.657-1.339-.93-.49-.272-.818-.589-1.015-1.11a2.716 2.716 0 0 1-.155-.668.374.374 0 0 0-.325-.343c-.143-.027-.29-.018-.407-.035l-.018.13.039.125.456-.141.105-.033-.012-.108-.004-.064c0-.1.027-.186.085-.259.117-.148.34-.231.56-.333l.12-.058-.06-.119c-.176-.33-.506-.616-.517-.853a.9.9 0 0 0-.222-.54c-.118-.132-.259-.227-.418-.361l-.084.1v.131h.702l-.027-.154a51.471 51.471 0 0 1-.061-.349l-.129.022-.065.114.242.075c.147.001.246-.104.295-.192l.134-.276-.117-.06-.131-.008-.033.525-.016.251.215-.13c.32-.194.638-.396.947-.612.299-.22.587-.536.842-.525.126 0 .26-.011.387-.011.21-.001.381.033.463.129.173.193.387.342.622.446l.222.098-.04-.24c-.059-.324-.309-.596-.528-.867-.224-.267-.409-.529-.403-.729.002-.118.048-.235.218-.381l.163-.137-.197-.085c-.243-.104-.487-.203-.727-.306l-.052.12.098.086c.268-.306.553-.602.827-.916l.162-.185-.244-.029c-.958-.12-1.915-.186-2.849-.366l-.025.129.083-.101c-.341-.27-.836-.644-.819-.98 0-.089.026-.182.101-.292l.267-.391-.43.199c-.701.326-1.515.316-2.318.454l.046.256zm-1.66 14.4l.106.078.091-.246a.345.345 0 0 0-.195-.298.7.7 0 0 0-.337-.08.567.567 0 0 0-.361.112l.084.101-.055-.119c-.176.081-.296.19-.301.349.005.152.111.244.219.304a.83.83 0 0 0 .388.095c.169 0 .359-.055.47-.223l-.109-.073.106.078-.106-.078-.11-.071c-.041.066-.132.104-.251.104l-.263-.063-.071-.054-.012-.02.017-.026.131-.085.016-.007.013-.011.193-.051.21.048.059.069-.04.091-.002.003-.002.003.112.07zm-3.242 5.175c-.554.496-1.106.99-1.727 1.375l.069.111.053-.12-.687-.304-.053.12.13.012c.027-.294.087-.592.127-.901l.08-.631-.323.548c-.324.553-.362 1.182-.439 1.756l-.008.107.056.203.194.128.157.108c.114.125.185.3.247.485v-.001c.068.207.097.352.097.496 0 .14-.027.287-.083.492-.03.109-.049.217-.049.322 0 .129.031.26.12.365a.621.621 0 0 0 .393.195l.02-.129-.121-.051c-.177.421-.307.856-.436 1.285a1.684 1.684 0 0 0-.063.485c0 .267.041.529.054.768l.131-.007.039-.125-.681-.214-.818-.257.704.49c.42.304.449.308.563.797l.058.279.174-.226c.134-.174.27-.346.409-.514l-.101-.084-.128.024c.031.165.064.329.096.492a.33.33 0 0 0 .139.227l.212.051.16-.004.052.002.194.008c.142.001.275-.02.386-.106.11-.085.181-.21.251-.384a1.03 1.03 0 0 0 .078-.395l-.016-.185-.129.023.037.126c.127-.038.253-.074.379-.109H8.67l.099-.013c.234-.007.553.224.839.371l.158.078.029-.174c.138-.835.267-1.675.337-2.524.02-.254.036-.509.044-.765l.001-.043-.024-.035a.775.775 0 0 1-.128-.328l-.13.018.13-.017-.005-.08c-.002-.235.136-.474.308-.677a.54.54 0 0 0 .121-.359c-.004-.3-.159-.607-.188-.83-.017-.105-.004-.2-.019-.31a.356.356 0 0 0-.246-.295l-.046.123.089-.096-.156-.144-.089.096.117-.058c-.024-.035-.032-.21-.045-.367l-.058-.238a.264.264 0 0 0-.238-.154l-.168.041.054.119.123.045.028-.146a.305.305 0 0 0-.137-.255c-.113-.075-.244-.094-.37-.11-.125-.015-.247-.022-.313-.036l-.054.256c.134.027.308.029.443.056l.145.05.024.039-.011.056-.107.293.284-.129.06-.018v-.006l-.003.004.003.002v-.006l-.003.004.005.007c.02.029.036.139.043.255.01.118.01.239.063.353l.011.022.174.161.019.017.024.009.079.087c.01.057-.001.17.019.311.046.281.189.585.185.791l-.059.19c-.188.224-.368.509-.37.845l.007.113v.002c.022.159.081.307.17.439l.108-.074-.131-.004c-.008.251-.024.502-.043.753-.069.837-.197 1.67-.334 2.503l.129.021.058-.118c-.255-.12-.581-.391-.955-.398l-.168.022c-.127.036-.255.072-.383.111l-.112.033.021.115.012.139a.82.82 0 0 1-.058.3c-.063.158-.118.237-.166.273-.047.035-.105.052-.228.052l-.178-.007-.071-.002-.16.004-.07-.009-.023-.058-.096-.491-.052-.273-.178.213c-.142.171-.28.346-.415.522l.104.08.128-.027c-.096-.51-.252-.68-.67-.958l-.075.108-.039.125.68.214.181.057-.011-.189c-.015-.257-.054-.514-.054-.753 0-.144.014-.282.052-.409.129-.43.256-.856.426-1.261l.065-.155-.166-.025c-.129-.02-.195-.061-.233-.105l-.058-.195.04-.253c.057-.213.092-.385.092-.56a1.8 1.8 0 0 0-.11-.578c-.065-.192-.145-.403-.301-.577-.115-.128-.244-.169-.3-.195l-.032-.018-.007-.05.005-.073c.076-.587.12-1.176.405-1.657l-.113-.066-.13-.017c-.037.296-.099.597-.128.911l-.009.094.086.038c.229.1.457.202.687.304l.063.028.059-.036c.647-.401 1.21-.907 1.764-1.402l-.172-.2zm15.953 9.949l.011.276.131-.005.047-.122a1.267 1.267 0 0 0-.467-.087c-.412.001-.783.183-1.129.346-.521.248-1.019.244-1.627.343a2.726 2.726 0 0 1-.448.041c-.513-.002-.828-.189-1.349-.604l-.051-.04-.063.016c-.585.143-.807.418-1.19.822l.095.09.114-.065c-.11-.193-.224-.382-.335-.571l-.075-.128-.118.091c-.235.18-.471.36-.705.544l-.04.032-.008.051c-.036.229-.077.459-.116.69v.001l-.01.117a.558.558 0 0 0 .17.401c.094.097.201.172.301.266.153.153.316.18.442.174h.046l.161.008c.892.106 1.464.656 2.283 1.103.409.22.863.382 1.346.382h.022l.007-.001.065-.004c.218 0 .399.123.561.317.142.17.24.32.375.453.134.133.307.24.561.304.443.114.888.154 1.31.245l.209.045-.055-.207a1.19 1.19 0 0 1-.04-.302c.001-.353.167-.674.47-.912l.093-.073-.063-.1c-.287-.449-.669-.885-.662-1.331l.003-.072c.086-1.033.836-1.882 1.222-2.908l.092-.247-.253.076c-.423.128-.831.283-1.241.415l.08.25c.419-.134.826-.289 1.238-.413l-.038-.125-.123-.046c-.352.964-1.131 1.831-1.237 2.976l-.004.095c.006.59.443 1.047.703 1.47l.111-.07-.081-.103c-.358.279-.572.679-.571 1.118 0 .121.016.245.049.369l.127-.034.028-.128c-.443-.095-.884-.135-1.3-.242a.892.892 0 0 1-.442-.237c-.108-.105-.206-.252-.357-.434-.185-.224-.437-.411-.762-.411l-.093.005.014.13-.001-.131h-.014c-.424 0-.837-.143-1.222-.35-.778-.417-1.384-1.009-2.375-1.132l-.192-.01h-.046c-.122-.006-.134.007-.263-.103-.116-.108-.223-.185-.29-.255-.067-.073-.095-.123-.098-.22l.007-.075c.038-.229.08-.46.116-.693l-.129-.02.081.103c.231-.182.467-.361.702-.542l-.08-.104-.113.066c.112.191.225.379.333.568l.087.153.121-.127c.405-.421.545-.617 1.064-.749l-.032-.127-.082.102c.522.42.922.663 1.513.661.15 0 .312-.015.49-.044.578-.097 1.112-.089 1.697-.365.346-.165.686-.322 1.017-.321.123 0 .245.02.372.07l.186.073-.019-.475-.264.007z"/></svg>