<svg version="1.1" id="Layer_1" xmlns="http://www.w3.org/2000/svg" xmlns:xlink="http://www.w3.org/1999/xlink" x="0" y="0" width="35.66" height="35.98" viewBox="0 0 35.66 35.98" xml:space="preserve"><defs><path id="SVGID_1_" d="M26.004.534c.268-.134.536-.267.808-.392.342.175.673.372.991.588.279.189.265.479.346.796.122.48.255.616-.178.912-.235.16-.476.309-.721.449-.313.18-.149.654-.099.988.021.147.048.293.081.438-.143.167-.282.337-.421.508-.233.284-.469.566-.731.824-.193-.243-.397-.56-.736-.597-.443-.05-.86-.041-1.301-.15-.44-.109-.873-.251-1.318-.345-.199-.042-.459.036-.436-.208.02-.21.04-.42.058-.63-.408.63-1.026 1.081-1.689 1.414-.281-.207-.636-.663-.977-.55-.436.145-.567.155-.715.585-.092.266-.614.465-.862.588-.325-.054-.628-.209-.959-.235a.69.69 0 0 0-.675.353c.292.311.609.598.912.898l-.482.292c.279.192.563.378.847.564l-.092-.452c.627.45 1.267.902 1.77 1.496-.416.44-.698-.107-.955-.407-.291-.341-1.299-.226-1.152-.769l-.936.447c.161.155.321.311.481.468.158.155.372.133.553.27.381.288.399.84.237 1.251-.427-.332-.742-.779-1.008-1.245-.202-.354-.264-.377-.673-.46-.32-.064-.65-.104-.975-.055.202.937 1.209 1.206 1.758 1.881-.447-.096-.879-.249-1.314-.391-.405-.132-.401-.92-.516-1.319-.71-.368-1.521-.685-1.917-1.434.41-.063.714-.299.534-.739-.373.155-.758.318-1.055.599-.239.225-.235.809-.328 1.139-.106.379-.204.787-.073 1.174.155.46.55.875.805 1.286.229.371.435.759.57 1.174.336.341.676.681.973 1.057.255.322.478.671.632 1.052.122.305-.07.262-.32.379-.262.122-.523.244-.789.357l-.094-.369c.21-.022.421-.041.63-.064.033-.269-.035-.534-.243-.717a1.303 1.303 0 0 0-.56-.263c-.3-.075-.62.374-.834.575.215.153.403.339.568.543.195.243.558.577.256.791-.584.415-1.298.617-2.008.468a16.49 16.49 0 0 0 2.102.71c.209.508.738.522 1.211.482-.018.33-.177.649.191.722.386.079.776.131 1.168.165-.822-.796-1.552-1.862-2.746-2.1.264-.286.572-.533.916-.713.442-.232.611.024.838.432.093.168.159.351.189.541.176.087.346.184.515.283.392.226.794.463 1.242.558.301.063.707-.077.929.184.199.233.384.514.359.801-.04.457.059.919.262 1.328.228.461.891.422 1.34.498l-.1.449c-.069.3.016.465-.328.425a9.018 9.018 0 0 0-1.114-.058c.016-.249.238-.159.459-.165-.378-.48-.7-1-1.023-1.518-.24-.385-.285-.38-.733-.426-.406-.042-.812-.1-1.22-.121.361.264.8.384 1.206.558.174.075.344.16.499.27.253.181.02.48-.014.764-.061.506.029 1.019.198 1.497.075.211.362.558.136.668l-.591.29-.145-.584c-.059-.238-.443-.325-.657-.423a18.208 18.208 0 0 0-.668-.776c-.255.2-.509.401-.771.59.078-.243.152-.488.23-.731-.672.202-1.343.406-2.018.602.182.074.363.146.547.217.297.116.194.42.21.715.028.527.248.593.662.89.056-.329.111-.659.158-.989-.051-.231.032-.317.246-.26l.633-.04c-.121.221-.243.442-.362.663l-.106-.487c-.171.167-.416.307-.38.555l.103.708c.164-.037.328-.078.491-.116-.022.183-.044.368-.069.551-.397.042-.794.117-1.159.282.199.059.4.115.6.172-.476-.052-1.011-.028-.91.602-.24-.14-.152-.602-.473-.812.171-.126.344-.25.522-.367-.563-.275-1.158-.477-1.759-.654.038 1.166.841 2.148 1.181 3.232.097.313.208.62.331.921-.158.146-.267.338-.235.558.068.476.527.79.706 1.217-.555-.192-.85-.296-1.202-.788-.34-.473-.634-.985-1.048-1.4-.278.375-.504.784-.726 1.193-.169.313-.038.64.021.983-.274-.189-.653-.284-.561-.619.064-.235.05-.479-.025-.708-.17-.515-.58-.889-.819-1.363-.177-.353-.495-.672-.827-.258-.325.406-.077.997-.246 1.455a12.45 12.45 0 0 0-.809-.66c-.063-.407-.262-.77-.453-1.126-.172-.323-.246-.522-.005-.837.266-.35.53-.409.372-.876a2.673 2.673 0 0 0-1.307-1.512c-.267-.135-.143-.428-.362-.663-.214-.231-.526-.344-.8-.482.582-.452 1.267-.91 1.403-1.691.295.082.595.152.896.209.316-.259.608-.545.922-.808.293-.246.471.032.77.204.327.189.665.36 1.014.506.54.226 1.192.278 1.669.625.391.285.734.697 1.247.747a39.145 39.145 0 0 0-.451-.72c.484.059.971.099 1.458.125-.08-.522-.521-.7-.987-.78-.233-.041-.47-.063-.699-.123-.282-.073-.517-.554-.694-.781l-.353.418c-.182-.245-.351-.499-.529-.748-.129.926-1.176.398-1.719.228-.504-.157-1.206.131-1.701.267-.468.128-.465.169-.727-.243-.117-.184-.236-.476-.406-.612.16.61-.431.93-.964.849.092-.27.151-.591-.004-.852-.105-.177-.259-.183-.278-.395l-.042-.46c-.182.169-.366.337-.548.507.147-.317.269-.807.038-1.117-.142-.192-.393-.217-.613-.184-.029.247-.052.493-.08.739.296-.018.333-.081.393.219-.375.007-.75.025-1.126.035.195-.554.313-1.411 1.103-1.284a49.76 49.76 0 0 0-.512-1.072c.217.075.432.152.647.231l-.163.4c.467-.021.957.037 1.298.39.08-.267.157-.535.231-.804-.263-.029-.534-.028-.787-.114-.228-.077-.391-.321-.642-.314-.226.007-.427.134-.652.145-.211-.303-.42-.608-.618-.919-.157-.248-.276-.215-.554-.264-.242-.044-.262-.502-.334-.724-.213-.654-.463-1.105-.912-1.613.292.13.695.472.913.197.127-.16.252-.32.377-.481.115-.021.285-.064.326-.196.058-.184-.127-.402-.218-.542-.15-.227-.179-.184.059-.399.204-.184.304-.339.583-.356.491-.032.565-.025.729-.498.152-.435.311-.868.487-1.295.126-.305.369-.294.672-.382.139-.265.491-.483.395-.826-.139-.247-.597-.72-.342-.913.278-.211.617-.298.959-.325.644-.052 1.313.086 1.941-.106.35-.107.514-.283.721-.573.122-.172.242-.346.359-.522.239-.038.476-.081.717-.106.569-.062 2.28.524 2.436-.337.071-.394.076-.609.506-.597.344.01.693.078 1.037.023.341-.055.504-.315.839-.31.478.006.957-.017 1.429-.088a6.24 6.24 0 0 0 1.151-.282c.278-.098.258-.305.479-.418.418 0 .891.106 1.292 0 .289-.076.374-.207.533.085.133.248.166.37.421.506l.423.227c.171-.073.356-.106.541-.086.356.039.665.251.944.459.28.207.461.468.798.325a4.924 4.924 0 0 1 1.315-.333c.555-.07 1.59.143 1.872-.489.214-.48-.043-1.121-.358-1.496m-6.349 5.554c.424.255.572.438 1.047.27.324-.114.142-.522.11-.827-.249-.148-.392-.349-.615-.115a4.996 4.996 0 0 0-.542.672m4.968.979c-.254-.289-.705-.487-.978-.102-.153.496.849.607.978.102zm-2.681 2.395c.01.277.017.555.023.833.223.085.443.179.664.27-.302-1.152.181-.237.524.138.047-.491.225-.962.493-1.373-.497.4-1.134.162-1.704.132m-21.84.925c.585.771.86 2.151 2.067 2.109-.225-.179-.469-.333-.708-.495-.263-.179-.281-.451-.357-.751-.1-.394-.083-.337.106-.645a.54.54 0 0 0 .055-.437c-.387.075-.775.146-1.163.219m21.85 1.758c.108-.342 0-.447-.324-.32-.111.339-.002.445.324.32zm4.776.508c-.24.377-.676.493-1.076.62-.354.112-.584.428-.21.72.309.241.59.336.852.046.213-.235.456-.5.808-.419-.303.251-.599.508-.891.77.693.322 1.622.786 2.236.065-.276-.421-.706-.839-.891-1.298-.146-.356-.434-.573-.828-.504m-24.4.936c.108-.315-.005-.435-.341-.363-.106.313.007.436.341.363zm13.339.419c.144-.337.047-.447-.287-.332-.139.332-.042.442.287.332zm1.15.338c.174-.367-.39-.776-.71-.621-.137.341.379.882.71.621zm2.826.44c-.035.329-.144.539.108.775.175.164.521.688.782.391.215-.244-.778-1.062-.89-1.166m4.804 2.118c-.198-.347-.386-.34-.563.024.208.331.396.324.563-.024zm.645.118c.305.301 1.082.83.634 1.24-.256.235-.415.268-.194.556.077.1.179.228.312.255.346.069.641-.543.689-.801.073-.396-.006-.802-.054-1.196.208.082.417.16.626.24-.368-.203-.752-.376-1.126-.568-.297.091-.595.175-.887.274M4.385 18.096c.089-.277-.078-.842-.417-.83-.192.273.078.845.417.83zm-.771-.895c-.038.299-.076.599-.117.898-.175-.081-.352-.16-.527-.242a8.26 8.26 0 0 0-.191 1.178c.141-.232.285-.462.426-.693.03.256.061.513.096.769.148.019.295.042.442.067.368.065.731.149 1.099.213a4.054 4.054 0 0 0-.767-1.025c-.287-.281-.31-.789-.461-1.165m16.85 2.997c.495.661 1.132 1.198 1.649 1.841.152.19.359.436.632.407.415-.043.235-.402-.009-.556-.243-.154-.536-.193-.797-.305-.181-.077-.14-.574-.23-.787-.204-.486-.716-.962-1.245-.6M4.538 21.581c.234-.196.472-.387.718-.569-.406-.325-.837-.618-1.254-.929-.403.578.214 1.073.536 1.498m23.662-.125c.461-.102.908.06 1.27.346.35-.235.719-.449 1.025-.743-.761-.129-1.882-.547-2.295.397m-1.329.311c-.538-.104-.918.305-1.051.787.674-.211 1.521-.374 1.759-1.147-.24.113-.475.233-.708.36m-7.458-.111c-.413-.329-.851.625-.404.792.316-.07.549-.496.404-.792zm2.215.833c-.369-.028-.593.668-.219.809.443.079.618-.651.219-.809zm1.06.458c.141.304.232.179.533.098.237-.065.476-.166.539-.429-.397-.172-.736.181-1.072.331m-3.082.449c.275-.195.058-.877-.283-.555-.235.191-.058.882.283.555zm-3.716-.115c-.271-.191-.439-.122-.512.202.27.191.44.125.512-.202zm3.863 1.3c.309-.172.311-.334.012-.486-.312.164-.317.327-.012.486zm3.546.13c.168.283.342.563.527.834-.059.229-.118.458-.172.689.19-.457.15-.561.63-.458a39.907 39.907 0 0 0-.404-.315c.315-.099.398-.416.478-.697.102-.359-.018-.421-.252-.712-.271.217-.54.437-.807.659m5.879-.774c.267.49.665.941.71 1.521.215-.078.429-.158.642-.24-.283-.23-.63-.427-.807-.745-.127-.227-.297-.435-.545-.536m-6.923 1.138c-.107.003-.214.004-.322.005l.012.315c.41-.217.464-.243.889-.058.088-.306.166-.614.243-.922-.396.063-.802.191-.822.66m-1.408.518c.242-.24-.099-.767-.409-.576-.235.239.093.773.409.576zm5.544-.188c-.571.195-1.032.601-1.523.937.672.034 1.117-.479 1.523-.937zm3.323 1.223c.338.166.569-.243.853-.386.384-.193.808-.296 1.185-.503-.779-.64-1.534.396-2.038.889m-9.718-.748c-.058.621-.866.597-1.062 1.129.334-.042.675-.056 1.004-.139.003-.227.007-.455.014-.682.135.126.341.457.529.277-.162-.195-.321-.392-.485-.585m3.59 1.057c.196-.329-.324-.881-.639-.613-.174.331.312.861.639.613zm-1.218.128c.332-.174.341-.324.031-.456-.322.171-.332.324-.031.456zm5.388-.154c-.218.139-.438.274-.656.412.132.166.262.333.39.501l.113-.563.485.019c-.111-.123-.222-.245-.332-.369m6.111.504c.296-.212-.033-.786-.35-.546-.29.214.03.743.35.546zm-10.803.717c.205-.043.411-.082.616-.127l-.132.823c.277-.153.479-.446.353-.766-.184-.471-.52-.107-.837.07m9.023.122c.164-.31-.327-.696-.594-.482-.148.294.328.68.594.482zm1.169 1.133c.042.476.089.951.119 1.428 1.163-.454 1.826-1.895 2.114-3.019a3.075 3.075 0 0 0-2.233 1.591m-19.533.285c.42-.559-.052-1.013-.44-1.392-.31.483-.172 1.237.44 1.392zm17.045 3.525c.199-.096.4-.191.602-.282l-.274-.597c-.155-.338.107-.945.112-1.353-.365.682-.669 1.455-.44 2.232M16.494 32.01c.022.366.038.732.048 1.098-.206-.217-.409-.437-.614-.653-.038.408-.096.814-.151 1.221-.062.462-.099.54.405.593.678.071 1.355.119 2.034.193.595.064 1.229.081 1.758.397.267.16.532.139.845.157.033.279.062.558.087.838 1.434.015 2.83-.375 4.253-.484.589-.045 1.422.177 1.921-.106.308-.175.265-.265.289-.622.021-.316.043-.631.068-.947-.215.258-.433.515-.645.776l-.409-.315a8.2 8.2 0 0 1-1.272.802c-.128-.431-.071-.883-.029-1.321-.623.097-1.181.22-1.816.147-.59-.067-1.143-.298-1.721-.418-.677-.14-1.104.106-1.752.209-.3.048-.604.066-.907.085-.018-.182-.034-.366-.054-.548l-.63.075c.097-.18.453-.45.359-.685-.119-.298-.576.18-.782.242a2.282 2.282 0 0 1-.698.076c-.265-.005-.184-.088-.194-.319-.02-.433.043-.491-.393-.491m13.77 1.215c-.338-.097-.482.014-.431.336.332.087.476-.026.431-.336z"/></defs><clipPath id="SVGID_2_"><use xlink:href="#SVGID_1_" overflow="visible"/></clipPath><path clip-path="url(#SVGID_2_)" fill-rule="evenodd" clip-rule="evenodd" fill="#1A1E72" d="M5.106 36.404H60.84a5.108 5.108 0 0 0 4.128-4.174H.978a5.108 5.108 0 0 0 4.128 4.174z"/><path clip-path="url(#SVGID_2_)" fill-rule="evenodd" clip-rule="evenodd" fill="#FEFEFE" d="M.978 32.23h63.99l.047-.163v-3.965H.955v3.965z"/><path clip-path="url(#SVGID_2_)" fill-rule="evenodd" clip-rule="evenodd" fill="#1A1E72" d="M.955 23.951h64.059v4.151H.955z"/><path clip-path="url(#SVGID_2_)" fill-rule="evenodd" clip-rule="evenodd" fill="#FEFEFE" d="M.955 19.777h64.059v4.174H.955z"/><path clip-path="url(#SVGID_2_)" fill-rule="evenodd" clip-rule="evenodd" fill="#1A1E72" d="M.955 15.626h64.059v4.151H.955z"/><path clip-path="url(#SVGID_2_)" fill-rule="evenodd" clip-rule="evenodd" fill="#FEFEFE" d="M.955 11.475h64.059v4.151H.955z"/><path clip-path="url(#SVGID_2_)" fill-rule="evenodd" clip-rule="evenodd" fill="#1A1E72" d="M.955 7.324h64.059v4.151H.955z"/><path clip-path="url(#SVGID_2_)" fill-rule="evenodd" clip-rule="evenodd" fill="#FEFEFE" d="M.955 7.324h64.06V3.383l-.047-.21H.978l-.023.21z"/><path clip-path="url(#SVGID_2_)" fill-rule="evenodd" clip-rule="evenodd" fill="#1A1E72" d="M.978 3.173h63.99c-.35-2.099-2.029-3.778-4.128-4.151H5.106C3.007-.604 1.351 1.075.978 3.173z"/><path clip-path="url(#SVGID_2_)" fill-rule="evenodd" clip-rule="evenodd" fill="#1A1E72" d="M.955 19.777H21.71V-.978H5.106C2.937-.581 1.235 1.168.955 3.383v16.394z"/><path clip-path="url(#SVGID_2_)" fill-rule="evenodd" clip-rule="evenodd" fill="#FEFEFE" d="M.955 7.324H21.71v4.151H.955z"/><path clip-path="url(#SVGID_2_)" fill-rule="evenodd" clip-rule="evenodd" fill="#FEFEFE" d="M9.257-.978h4.151v20.755H9.257z"/><path fill="#1A171B" d="M26.06.646c.267-.134.535-.266.805-.391l-.052-.114-.057.111c.337.173.664.367.978.58.112.078.16.162.198.283.037.12.054.271.097.441.062.237.118.391.115.478-.003.085-.026.147-.243.3-.231.158-.47.305-.713.444-.195.11-.252.318-.249.499.001.219.064.445.089.616.022.149.049.299.082.448l.122-.028-.095-.081c-.144.169-.284.34-.423.511-.233.283-.466.562-.722.815l.088.089.098-.078c-.188-.23-.403-.591-.82-.644-.454-.05-.864-.042-1.285-.147-.435-.108-.868-.25-1.323-.346-.119-.024-.232-.016-.296-.027l-.042-.012-.005.006.008-.003-.002-.003-.005.006.008-.003-.002-.02.001-.017c.02-.211.04-.421.058-.631l.044-.5-.277.419c-.391.604-.989 1.044-1.64 1.37l.056.112.074-.101c-.113-.083-.254-.225-.408-.35-.155-.123-.325-.24-.533-.243l-.149.025c-.214.072-.364.11-.498.202-.135.095-.22.238-.295.461-.02.074-.15.189-.316.28-.165.094-.353.173-.483.237l.055.112.02-.123c-.3-.047-.606-.205-.97-.237l-.077-.003a.816.816 0 0 0-.715.416l-.049.081.065.069c.297.315.615.604.915.901l.088-.089-.065-.107-.482.292-.165.1.159.109c.281.193.566.38.849.566l.252.165-.061-.295c-.031-.151-.062-.301-.091-.451l-.123.024-.073.102c.628.451 1.259.897 1.748 1.475l.095-.081-.091-.086c-.099.103-.167.125-.217.126-.067.003-.159-.054-.258-.163-.098-.106-.194-.247-.294-.365-.188-.209-.495-.255-.746-.332a1.169 1.169 0 0 1-.303-.119l-.088-.136.01-.068.071-.262-.245.117c-.313.149-.624.297-.937.448l-.162.078.129.125c.161.155.32.311.48.468.102.1.22.14.317.171.099.032.18.057.248.109.198.149.283.387.284.647 0 .157-.032.318-.088.458l.116.046.077-.099c-.407-.316-.714-.749-.976-1.208-.102-.178-.177-.293-.299-.374-.122-.079-.254-.104-.459-.146a3.492 3.492 0 0 0-.692-.079c-.107 0-.215.007-.324.024l-.131.02.028.13c.11.511.443.838.795 1.111.354.274.734.507.989.822l.097-.079.026-.122c-.437-.094-.865-.245-1.301-.387-.126-.034-.224-.214-.284-.47-.062-.252-.089-.546-.151-.764l-.015-.052-.048-.025c-.722-.371-1.499-.685-1.864-1.382l-.11.058.019.124c.178-.028.344-.084.474-.185a.539.539 0 0 0 .219-.436.768.768 0 0 0-.062-.289l-.048-.116-.116.048c-.373.155-.773.322-1.093.623-.157.153-.212.376-.256.598-.041.222-.065.451-.107.598-.07.251-.14.523-.14.804 0 .146.02.296.07.443.17.498.574.916.818 1.312.226.366.427.745.558 1.147l.009.028.021.021c.337.342.673.678.964 1.047.25.315.466.654.614 1.021l.029.106v.005l.016.006-.014-.011-.003.005.016.006-.013-.011-.013.008c-.037.022-.148.047-.275.105a25.98 25.98 0 0 1-.785.355l.049.115.121-.031-.094-.37-.121.032.013.124c.209-.022.42-.041.631-.064l.099-.011.012-.098.009-.142a.887.887 0 0 0-.294-.684 1.435 1.435 0 0 0-.612-.291h.001l-.099-.012c-.202.004-.359.128-.499.256-.139.13-.263.278-.353.362l-.111.104.124.089c.204.146.384.323.543.52.075.093.166.192.236.286.071.094.111.183.108.228l-.063.097c-.436.31-.944.494-1.463.494-.148 0-.298-.015-.447-.046l-.074.238c.689.289 1.399.522 2.118.715l.032-.121-.116.048c.192.47.64.578 1.034.573a3.3 3.3 0 0 0 .302-.015l-.011-.125-.125-.007c-.007.142-.048.295-.05.447l.073.253a.42.42 0 0 0 .268.151c.392.08.787.133 1.182.167l.35.03-.252-.244c-.81-.779-1.55-1.877-2.809-2.133l-.024.123.092.085c.255-.277.552-.515.882-.687a.513.513 0 0 1 .238-.073l.205.106c.071.076.145.2.228.349.087.156.148.325.175.5l.01.064.058.029c.171.085.339.181.508.279.392.225.804.471 1.278.572h.001-.001l.261.022.187-.002c.19 0 .326.021.411.123.182.21.334.455.331.667l-.002.042-.009.212c0 .411.103.817.283 1.182.138.279.407.4.671.46.267.061.548.07.76.106l.021-.123-.122-.027-.1.449v-.001c-.033.148-.036.266-.051.309l-.007.017h-.001l-.057.007-.076-.005a9.012 9.012 0 0 0-1.062-.059h-.067l.001.125.125.008.009-.046.006-.006.063-.007c.057 0 .142.011.236.012h.024l.25-.006-.154-.196c-.372-.473-.692-.988-1.015-1.507-.121-.193-.201-.31-.335-.384-.134-.07-.269-.076-.491-.1-.403-.041-.81-.1-1.226-.121l-.417-.021.337.247c.387.281.835.401 1.23.572.17.073.331.154.476.257l.064.121c.006.11-.099.307-.13.526-.014.113-.02.225-.02.338 0 .417.088.829.224 1.216.034.095.091.19.138.282l.077.21-.015.023-.591.29.055.112.121-.03-.145-.584c-.048-.181-.198-.277-.337-.346-.142-.069-.294-.116-.389-.16l-.052.114.097-.079a19.194 19.194 0 0 0-.672-.781l-.078-.086-.092.072c-.255.2-.508.4-.767.587l.073.101.119.038c.079-.245.152-.489.23-.731l.073-.227-.228.069c-.672.202-1.343.406-2.016.601l-.346.1.333.136c.183.074.365.146.548.218l.109.093.027.179c0 .075-.007.163-.007.257l.002.076c.013.278.087.468.219.609.131.14.293.23.494.376l.163.117.033-.198c.056-.329.112-.66.159-.993l.003-.022-.005-.022-.012-.089.004-.034.001-.003-.009-.007.004.011.005-.004-.009-.007.004.011.023-.003.08.013.02.005.02-.001.633-.04-.008-.125-.11-.06c-.121.221-.243.441-.363.664l.11.059.122-.027-.106-.487-.048-.221-.162.159c-.071.07-.168.143-.255.233a.526.526 0 0 0-.167.363l.005.067.103.708.019.134.132-.03c.166-.038.329-.078.492-.116l-.028-.122-.124-.015c-.022.184-.044.368-.068.549l.124.017-.013-.124c-.403.043-.813.119-1.197.292l-.306.138.322.096c.201.06.402.115.601.173l.035-.12.013-.124a2.721 2.721 0 0 0-.302-.018c-.18.001-.359.022-.509.113a.536.536 0 0 0-.25.487l.014.164.123-.02.063-.108c-.059-.028-.102-.141-.149-.308-.049-.16-.115-.367-.318-.5l-.068.105.074.101c.17-.126.341-.248.516-.363l.184-.12-.198-.096a11.266 11.266 0 0 0-1.779-.661l-.166-.049.006.173c.045 1.223.862 2.212 1.186 3.265.098.316.211.627.335.932l.116-.047-.085-.092c-.156.143-.281.339-.281.574l.007.094c.089.547.566.865.714 1.247l.115-.048.041-.118c-.56-.197-.802-.276-1.141-.743l-.001-.001.001.001c-.335-.466-.632-.984-1.061-1.416l-.102-.103-.087.117c-.285.384-.513.799-.735 1.208a.826.826 0 0 0-.098.406c.001.233.071.45.106.658l.123-.021.071-.103c-.135-.093-.28-.159-.38-.228-.103-.072-.141-.122-.141-.191l.01-.065a1.31 1.31 0 0 0 .045-.339c0-.15-.025-.299-.072-.441-.186-.555-.604-.932-.826-1.381-.129-.245-.313-.51-.614-.522-.152 0-.299.086-.423.243-.191.24-.209.523-.209.781l.002.255c0 .169-.01.324-.059.455l.117.043.082-.094a12.554 12.554 0 0 0-.817-.667l-.069.093.124-.019c-.068-.436-.277-.81-.467-1.166-.094-.174-.145-.298-.144-.399.001-.084.029-.173.128-.303.097-.128.196-.216.283-.315a.573.573 0 0 0 .162-.39.889.889 0 0 0-.054-.286 2.805 2.805 0 0 0-1.369-1.584c-.087-.047-.102-.094-.134-.213-.029-.112-.056-.277-.193-.424l.001.001c-.243-.26-.572-.374-.836-.509l-.056.112.077.099c.572-.448 1.298-.919 1.45-1.768l-.123-.021-.033.12c.299.083.602.154.907.211l.057.011.045-.037c.322-.264.614-.55.923-.808l.146-.068c.089-.013.248.141.481.284.331.191.674.365 1.028.513.567.233 1.208.29 1.644.611.375.267.73.709 1.308.77l.249.024-.131-.214a36.27 36.27 0 0 0-.453-.722l-.105.068-.015.124c.488.06.977.1 1.467.126l.153.008-.023-.152a.906.906 0 0 0-.403-.641c-.202-.135-.445-.202-.687-.243-.239-.042-.473-.064-.689-.121-.084-.018-.208-.134-.317-.286-.111-.151-.213-.326-.309-.451l-.095-.122-.099.118-.353.418.095.081.1-.075c-.179-.241-.348-.495-.528-.746l-.182-.254-.043.31c-.026.182-.086.28-.157.338a.459.459 0 0 1-.297.086c-.328.003-.788-.198-1.103-.299a1.224 1.224 0 0 0-.367-.051c-.488.002-1.018.213-1.404.317-.189.053-.303.086-.349.084l-.071-.035a1.6 1.6 0 0 1-.168-.238c-.111-.169-.224-.47-.433-.643l-.295-.235.096.365.023.165a.468.468 0 0 1-.204.391.854.854 0 0 1-.496.149l-.147-.011-.021.122.118.04c.053-.157.098-.334.098-.517a.843.843 0 0 0-.113-.438c-.066-.112-.15-.171-.194-.213l-.067-.13c-.013-.154-.028-.308-.042-.461l-.023-.251-.186.172c-.182.169-.366.337-.548.508l.085.091.113.053a1.81 1.81 0 0 0 .178-.731.85.85 0 0 0-.153-.513c-.141-.19-.362-.248-.556-.247l-.176.014-.093.013-.011.095c-.029.249-.052.495-.08.739l-.017.148.149-.009c.108-.007.184-.018.219-.018l.016.001.003-.018-.009.014.007.004.003-.018-.009.014.011-.016-.017.011.005.005.011-.016-.017.011a.55.55 0 0 1 .041.144l.123-.025-.002-.125c-.378.007-.753.025-1.127.035l.003.125.118.042c.094-.268.168-.587.292-.826.129-.241.271-.383.542-.386l.132.011.229.038-.099-.213c-.168-.361-.339-.72-.515-1.077l-.112.055-.041.118c.216.075.43.152.645.23l.043-.118-.116-.047-.163.401-.072.18.194-.009.157-.004c.402 0 .779.079 1.045.356l.149.154.061-.205c.08-.268.157-.537.232-.806l.039-.142-.146-.016c-.273-.029-.534-.03-.761-.108-.083-.027-.173-.096-.277-.17-.103-.071-.229-.15-.395-.151h-.014c-.271.013-.473.141-.655.146l.007.125.103-.072a24.777 24.777 0 0 1-.615-.915.567.567 0 0 0-.297-.258c-.111-.037-.211-.038-.341-.062l-.064-.049c-.082-.108-.116-.4-.173-.59-.216-.665-.478-1.139-.938-1.657l-.094.083-.051.114c.196.081.462.303.75.312a.389.389 0 0 0 .312-.152c.127-.16.253-.321.378-.482l-.099-.077.022.123c.117-.026.34-.057.423-.282v.001l.017-.111c-.007-.238-.18-.421-.25-.536l-.084-.125-.013-.022-.036.015h.038l-.002-.015-.036.015h.038-.05l.045.025.006-.025h-.051l.045.025.033-.036.107-.098c.222-.201.283-.308.506-.322.243-.018.398-.016.545-.102.147-.093.211-.242.295-.48.152-.434.31-.865.484-1.289a.332.332 0 0 1 .201-.204c.093-.039.229-.059.391-.106l.051-.015.025-.047c.09-.196.412-.398.426-.767l-.021-.15-.005-.014-.007-.013c-.064-.112-.168-.243-.255-.375-.088-.129-.15-.263-.147-.322l.027-.056c.251-.191.566-.274.894-.3.111-.009.225-.012.34-.012.236 0 .478.013.723.013.299 0 .602-.019.903-.111.379-.113.579-.326.786-.62.123-.173.243-.348.361-.525l-.103-.07.02.123c.24-.038.476-.08.711-.105l.084-.004c.323-.002.946.141 1.478.142.226 0 .44-.025.62-.109a.62.62 0 0 0 .363-.468c.034-.195.057-.338.098-.401.038-.057.07-.088.251-.093h.031c.238.006.489.044.751.045.102 0 .205-.006.309-.023.197-.032.339-.122.46-.19.123-.07.22-.118.35-.118h.007l.148.001c.434 0 .87-.026 1.302-.091a6.27 6.27 0 0 0 1.174-.288.64.64 0 0 0 .32-.247l.174-.178-.057-.111v.125c.265 0 .569.047.872.047.152 0 .304-.012.452-.051.166-.047.275-.098.297-.092.005.001.019-.014.094.116V1.48c.122.232.187.41.472.558.141.074.281.15.421.226l.053.029.056-.024a.978.978 0 0 1 .384-.082l.094.005c.314.033.607.228.883.435.209.146.376.381.687.39l.235-.051a4.839 4.839 0 0 1 1.282-.325c.113-.015.259-.016.417-.016h.115c.264 0 .552-.003.813-.069.259-.064.504-.204.625-.477.063-.141.09-.293.09-.444-.002-.44-.216-.883-.466-1.183l-.191.161c.219.258.409.667.407 1.022a.826.826 0 0 1-.068.342c-.083.183-.237.279-.458.336-.219.056-.491.061-.752.061h-.115c-.16 0-.312.001-.448.018a5.04 5.04 0 0 0-1.348.342l-.137.031c-.146.01-.299-.157-.538-.341-.282-.209-.607-.438-1.005-.483l-.121-.007a1.23 1.23 0 0 0-.483.102l.049.115.06-.11-.424-.227c-.224-.124-.225-.19-.37-.455v-.001c-.074-.145-.177-.248-.314-.246-.137.006-.221.066-.361.1-.119.032-.25.043-.388.043-.277 0-.579-.047-.872-.047h-.03l-.027.014c-.141.072-.209.181-.261.252a.388.388 0 0 1-.202.16c-.364.13-.743.219-1.128.276-.417.063-.84.088-1.265.088L15.166 2h-.011c-.199 0-.348.08-.474.151-.127.073-.236.138-.376.161-.088.014-.178.02-.27.019-.237 0-.486-.037-.744-.044l-.038-.001c-.215-.005-.385.071-.466.216-.079.139-.093.296-.128.484v.001-.001a.368.368 0 0 1-.224.287c-.125.06-.307.086-.514.085-.494.001-1.101-.141-1.478-.142l-.111.005c-.246.026-.486.069-.723.107l-.054.009-.03.045a23.78 23.78 0 0 1-.357.519c-.207.286-.336.425-.656.526-.265.081-.543.1-.831.1-.236 0-.478-.013-.723-.013-.119 0-.239.003-.36.013-.356.029-.72.119-1.025.35a.314.314 0 0 0-.125.255c.004.169.096.316.188.461.094.141.199.276.245.359l.11-.062-.12.034.012.082c.014.187-.241.38-.397.651l.111.058-.035-.12c-.143.042-.28.06-.416.115a.585.585 0 0 0-.338.34c-.177.43-.337.865-.489 1.302-.08.235-.135.318-.189.349-.054.037-.182.052-.43.065-.334.02-.473.221-.659.388l-.141.132-.075.161c.015.133.073.16.136.268.089.128.216.306.209.399l-.005.036c.001.039-.116.095-.229.11l-.047.009-.029.038c-.125.161-.25.321-.377.48l-.116.057c-.143.009-.419-.182-.648-.29l-.526-.235.382.432c.44.499.677.927.887 1.569.031.092.055.266.103.426l.104.231c.048.07.124.134.224.151.147.025.246.031.304.053.056.021.094.044.167.155.2.314.41.62.621.923l.04.057.069-.004c.268-.019.468-.145.649-.145h.007c.08-.001.157.039.252.106.094.065.198.153.339.201.28.094.56.091.814.119l.013-.124-.121-.033a45.66 45.66 0 0 1-.23.802l.12.036.09-.087c-.337-.348-.796-.432-1.225-.432l-.169.005.006.125.116.047.162-.399.049-.121-.122-.044c-.216-.078-.431-.156-.649-.231l-.287-.099.134.273c.175.356.345.713.512 1.072l.113-.053.02-.123-.171-.014c-.384-.003-.627.244-.765.522-.143.28-.217.609-.305.858l-.06.171.182-.005c.378-.01.753-.028 1.125-.035l.15-.003-.029-.147c-.022-.102-.036-.171-.082-.239l-.207-.098c-.07.001-.136.012-.234.018l.008.125.124.014c.028-.247.051-.493.08-.738l-.125-.016.019.124.138-.011c.153.001.279.042.355.146a.6.6 0 0 1 .104.364c.001.21-.072.449-.155.626l-.27.581.469-.437.547-.507-.085-.093-.124.012.042.459a.427.427 0 0 0 .146.291l.149.156a.597.597 0 0 1 .078.311c0 .141-.036.294-.085.437l-.048.141.147.022.184.014c.234 0 .464-.065.644-.197a.722.722 0 0 0 .306-.593l-.031-.228-.121.032-.077.099c.13.098.255.381.378.581.08.124.135.211.2.279a.333.333 0 0 0 .25.11c.12-.002.23-.043.415-.093.403-.112.921-.31 1.338-.308a.97.97 0 0 1 .293.04h.001-.001c.295.09.764.307 1.178.31a.707.707 0 0 0 .455-.142c.131-.106.216-.275.247-.498l-.124-.017-.102.073c.176.246.346.501.53.749l.094.126.102-.12.353-.419-.096-.081-.099.077c.08.102.185.281.305.446.123.163.258.324.456.38.242.062.482.085.709.125.224.038.435.1.59.204a.657.657 0 0 1 .295.471l.124-.019.007-.125a21.257 21.257 0 0 1-1.45-.124l-.265-.032.145.224c.153.237.303.477.45.717l.107-.065.012-.124c-.448-.038-.777-.42-1.185-.723-.519-.372-1.182-.421-1.695-.639l-.004-.002.004.002a8.875 8.875 0 0 1-1-.499c-.196-.104-.341-.305-.606-.318a.476.476 0 0 0-.307.126c-.319.267-.611.553-.921.807l.079.097.023-.123a10.828 10.828 0 0 1-.886-.206l-.133-.037-.024.136c-.12.714-.766 1.157-1.357 1.614l-.156.121.176.089c.285.142.58.254.765.456.082.088.102.187.133.314.027.121.084.287.264.375.58.294 1.036.826 1.245 1.441l.041.206c-.002.093-.03.143-.1.227-.07.081-.18.18-.294.328-.119.155-.18.304-.179.455.001.182.079.337.173.516.192.358.382.709.44 1.087l.008.051.041.031c.276.204.54.426.801.654l.137.12.063-.171c.065-.179.074-.364.074-.541l-.002-.255c0-.25.022-.461.154-.624.099-.122.173-.149.228-.149.108-.012.284.162.39.385.256.501.659.871.812 1.346.039.119.06.241.06.363 0 .092-.012.183-.036.273l-.019.131c0 .19.127.316.25.398.126.085.269.15.379.227l.244.169-.05-.292c-.04-.23-.103-.437-.102-.616 0-.102.018-.194.068-.287.222-.409.445-.812.716-1.178l-.1-.074-.089.088c.398.4.691.905 1.035 1.385.365.516.713.647 1.263.834l.264.091-.108-.257c-.208-.472-.65-.782-.697-1.186l-.004-.058c0-.141.077-.276.2-.39l.064-.059-.033-.08a11.226 11.226 0 0 1-.328-.911c-.355-1.115-1.144-2.088-1.175-3.198l-.121-.004-.035.12a11.01 11.01 0 0 1 1.739.646l.055-.112-.069-.104a11.26 11.26 0 0 0-.527.371l-.145.107.151.098c.118.076.168.205.215.363.049.151.082.339.263.452l.228.133-.042-.261-.011-.125c.004-.159.05-.221.131-.274.083-.052.221-.077.379-.076.088 0 .182.007.275.017l.048-.244c-.201-.058-.401-.113-.599-.172l-.036.12.051.114c.347-.157.731-.23 1.121-.271l.097-.01.013-.097c.025-.185.046-.37.069-.552l.022-.177-.174.04c-.165.038-.328.079-.491.116l.028.122.124-.018-.103-.708-.002-.031.098-.191.249-.227-.088-.089-.122.026.106.487.072.332.16-.299c.118-.221.24-.441.361-.662l.109-.2-.228.015-.632.04.008.125.032-.121-.144-.021-.203.08-.07.205.017.143.122-.027-.124-.018c-.047.328-.102.657-.158.986l.123.021.073-.101c-.212-.152-.367-.244-.457-.343-.088-.098-.138-.204-.153-.453l-.002-.063.007-.257a.677.677 0 0 0-.049-.283.427.427 0 0 0-.245-.221 32.522 32.522 0 0 1-.545-.217l-.047.116.035.12c.675-.196 1.347-.4 2.019-.602l-.036-.12-.119-.038c-.079.245-.153.489-.23.731l-.117.364.309-.224c.264-.192.52-.393.775-.593l-.077-.098-.093.084c.228.252.449.509.663.771l.018.023.026.012c.119.054.265.099.383.158.121.058.193.125.204.182l.145.584.037.15.139-.068.592-.29a.27.27 0 0 0 .156-.248c-.002-.121-.054-.223-.104-.323-.051-.098-.104-.193-.124-.251a3.435 3.435 0 0 1-.21-1.133c0-.103.006-.206.018-.308.014-.153.126-.342.131-.556a.383.383 0 0 0-.169-.324 2.741 2.741 0 0 0-.523-.283c-.418-.178-.845-.297-1.181-.544l-.074.101-.006.125c.4.02.804.078 1.213.12.227.022.338.037.397.072.06.031.123.104.242.296.323.518.647 1.042 1.031 1.529l.098-.077-.003-.125h-.018l-.236-.012-.212.056a.306.306 0 0 0-.115.237l-.008.134.134-.001h.066c.346 0 .691.017 1.033.057l.105.007.199-.051c.091-.064.111-.159.122-.231.012-.077.017-.156.038-.246v-.001l.1-.449.029-.128-.13-.022c-.237-.04-.512-.049-.746-.104-.237-.055-.413-.145-.503-.327a2.432 2.432 0 0 1-.258-1.072l.008-.19.003-.063c-.003-.324-.199-.603-.391-.83-.168-.195-.405-.211-.601-.211l-.187.002-.21-.016c-.421-.089-.812-.317-1.205-.544a9.302 9.302 0 0 0-.522-.286l-.055.112.123-.02a1.77 1.77 0 0 0-.204-.582 2.093 2.093 0 0 0-.262-.396.515.515 0 0 0-.389-.187.771.771 0 0 0-.354.102 3.528 3.528 0 0 0-.95.739l-.151.164.219.044c1.13.22 1.851 1.254 2.684 2.067l.087-.09.011-.125a10.17 10.17 0 0 1-1.154-.162l-.116-.056-.023-.104c-.001-.102.039-.26.049-.433l.008-.144-.143.012a3.345 3.345 0 0 1-.281.014c-.37-.005-.662-.079-.803-.419l-.023-.057-.06-.016c-.711-.191-1.41-.42-2.086-.704l-.048.115-.026.122c.166.035.333.052.498.052.578 0 1.135-.204 1.608-.54a.363.363 0 0 0 .168-.301c-.003-.147-.078-.266-.157-.376-.081-.11-.176-.211-.242-.294l-.001-.001.001.001a3 3 0 0 0-.592-.566l-.073.102.086.091c.108-.102.227-.245.352-.361.123-.118.25-.193.329-.189l.038.005h.001a1.2 1.2 0 0 1 .507.236.637.637 0 0 1 .209.496l-.007.112.124.015-.013-.124c-.208.023-.418.042-.63.064l-.145.015.037.141.094.368.036.141.134-.057c.269-.114.531-.237.793-.359h.001-.001l.248-.093c.077-.023.188-.118.181-.247l-.047-.199v-.001a4.396 4.396 0 0 0-.65-1.083c-.304-.383-.646-.726-.982-1.067l-.089.088.116-.041a5.583 5.583 0 0 0-.583-1.201c-.267-.426-.653-.837-.793-1.26a1.12 1.12 0 0 1-.056-.363c0-.238.062-.49.131-.737.051-.182.072-.411.112-.619.037-.209.1-.39.182-.462.274-.261.644-.42 1.017-.574l-.048-.115-.116.047.044.194a.286.286 0 0 1-.123.238.785.785 0 0 1-.359.135l-.174.027.082.155c.427.801 1.271 1.121 1.97 1.487l.058-.111-.12.035c.053.18.082.479.148.754.068.27.17.551.449.649.432.141.868.295 1.326.394l.348.075-.225-.277c-.294-.36-.692-.599-1.03-.862-.339-.264-.611-.54-.704-.966l-.122.026.019.124c.094-.014.189-.021.286-.021.213 0 .43.031.646.074.205.041.309.068.371.11.062.04.119.114.219.289v.001-.001c.27.472.593.934 1.039 1.281l.132.103.061-.155c.067-.17.105-.359.105-.55.001-.312-.107-.637-.383-.847-.113-.085-.229-.117-.322-.147a.5.5 0 0 1-.218-.112l-.481-.469-.087.09.054.113.936-.447-.054-.113-.121-.033-.019.133a.407.407 0 0 0 .201.345c.164.106.375.15.569.205.194.052.364.12.427.199.088.102.186.247.3.372.114.122.252.241.442.244.138 0 .274-.071.398-.204l.077-.081-.071-.085c-.517-.61-1.166-1.067-1.793-1.517l-.257-.184.061.31.092.453.122-.025.069-.105a45.898 45.898 0 0 1-.845-.563l-.071.103.065.107.482-.292.136-.083-.113-.112c-.306-.303-.621-.589-.909-.895l-.091.086.107.065c.123-.198.283-.293.501-.296l.057.002c.298.022.599.174.949.234l.04.007.036-.018c.118-.058.315-.14.496-.243.18-.106.357-.224.429-.416.072-.207.127-.284.203-.338.077-.056.211-.097.433-.169l.071-.011c.099-.003.236.072.376.187.14.113.279.255.417.357l.062.045.068-.034c.675-.339 1.312-.802 1.737-1.457l-.105-.068-.125-.013c-.018.21-.038.419-.058.629l-.002.04.083.203.249.081.205.017c.437.091.868.233 1.314.344.461.114.886.104 1.317.153.26.022.454.295.652.551l.087.109.099-.098c.268-.264.506-.55.739-.834a26.2 26.2 0 0 1 .42-.506l.041-.048-.014-.061a5.56 5.56 0 0 1-.079-.428c-.029-.192-.087-.41-.086-.579.003-.147.032-.228.124-.282.248-.142.492-.293.729-.454.234-.155.355-.314.352-.507-.003-.168-.068-.316-.123-.539-.038-.148-.054-.3-.1-.452a.734.734 0 0 0-.297-.417A9.574 9.574 0 0 0 26.868.03l-.054-.028-.054.026c-.274.126-.544.26-.812.394l.112.224zm-6.47 5.549c.298.176.479.349.789.353.11 0 .228-.024.364-.072a.406.406 0 0 0 .273-.417c-.002-.193-.066-.392-.08-.541l-.006-.062-.054-.032c-.154-.084-.266-.228-.477-.239-.105-.001-.206.055-.292.146a5.003 5.003 0 0 0-.556.689l.208.138a4.86 4.86 0 0 1 .529-.655l.111-.068c.043-.012.17.09.35.204l.064-.107-.124.013c.021.185.081.381.079.515-.008.115-.015.143-.106.181a.836.836 0 0 1-.28.057c-.192.004-.337-.12-.66-.317l-.132.214zm5.033.872l.094-.082c-.172-.193-.416-.355-.687-.358a.584.584 0 0 0-.487.267l-.012.016-.006.019-.021.136a.415.415 0 0 0 .206.351.749.749 0 0 0 .397.105c.257.002.556-.119.637-.423l.016-.064-.043-.05-.094.083-.121-.031c-.034.148-.201.233-.395.235a.507.507 0 0 1-.263-.067l-.09-.14.01-.062-.119-.037.102.072c.09-.124.179-.159.283-.161.158-.003.364.117.499.273l.094-.082-.121-.031.121.031zm-2.805 2.399c.01.277.016.554.023.832l.002.084.078.03c.22.084.439.177.66.269l.233.096-.064-.244a2.347 2.347 0 0 1-.091-.458l.001-.014-.06-.009.047.035.013-.026-.06-.009.047.035-.081-.061v.101l.081-.04-.081-.061v.101-.079l-.035.072.035.007v-.079l-.035.072v.001c.03.02.125.139.22.27.098.133.206.283.31.397l.19.208.027-.281c.044-.468.215-.92.474-1.317l.426-.654-.609.488c-.194.155-.407.201-.65.202-.302.001-.638-.079-.97-.097l-.013.25c.301.015.64.097.983.098.273.001.558-.057.806-.257l-.078-.098-.105-.068a3.187 3.187 0 0 0-.513 1.429l.124.012.092-.084c-.101-.111-.225-.284-.334-.431l-.154-.194-.073-.07-.119-.047-.137.091-.019.107c.001.107.032.261.099.521l.121-.032.048-.115c-.219-.091-.441-.185-.667-.271l-.045.117.125-.003c-.007-.278-.014-.556-.023-.834l-.249.008zm-21.815.996c.274.359.488.886.783 1.333.291.446.695.828 1.331.826l.057-.001.339-.012-.266-.211c-.232-.184-.478-.34-.715-.5-.21-.139-.228-.358-.308-.679a1.412 1.412 0 0 1-.057-.273l.024-.078c.022-.04.065-.102.124-.198a.651.651 0 0 0 .096-.342l-.027-.195-.031-.111-.113.022c-.386.075-.773.146-1.162.219l.046.246c.387-.073.775-.144 1.163-.219l-.024-.123-.12.034.018.127-.059.21c-.056.091-.097.149-.129.208l-.056.199c.001.093.026.181.064.335.074.278.091.605.41.824.241.162.481.316.7.489l.078-.098-.004-.125-.049.001c-.527-.002-.842-.295-1.123-.714-.278-.418-.49-.946-.792-1.346l-.198.152zm21.949 1.683l.119.038a.886.886 0 0 0 .047-.25l-.07-.205-.203-.08a.767.767 0 0 0-.263.06l-.055.022-.018.056a.817.817 0 0 0-.048.253l.072.204.202.078a.731.731 0 0 0 .261-.059l.056-.021.018-.057-.118-.039-.045-.117-.172.042-.024-.003-.003.008.007-.004-.004-.004-.003.008.007-.004-.005-.033.036-.175-.119-.039.046.116.172-.043.022.003.003-.009-.008.004.005.005.003-.009-.008.004.005.037-.035.174.12.039-.045-.117.045.117zm4.671.441c-.204.326-.601.441-1.008.568-.251.082-.481.256-.489.524 0 .15.086.295.24.414.183.142.368.25.575.252a.599.599 0 0 0 .447-.221c.187-.21.377-.398.588-.393l.099.012.028-.122-.08-.096c-.304.252-.602.51-.895.773l-.141.126.172.08c.423.195.944.456 1.462.458.329.002.662-.117.922-.425l.061-.071-.051-.078c-.289-.437-.711-.853-.88-1.276-.136-.342-.421-.595-.801-.594l-.164.015.043.246.121-.011c.263.002.451.158.569.438.202.494.639.913.902 1.32l.105-.068-.095-.081a.908.908 0 0 1-.732.337c-.431.002-.932-.236-1.356-.435l-.053.113.084.093c.291-.261.586-.517.887-.766l.195-.162-.247-.057-.155-.018c-.359.005-.587.274-.773.475v.001c-.099.107-.177.137-.261.138-.109.002-.256-.069-.421-.199-.117-.092-.143-.165-.143-.217-.008-.089.114-.224.314-.285.393-.127.867-.244 1.144-.672l-.213-.136zM2.328 13.589l.118.041.046-.237-.097-.235-.243-.078-.192.024-.069.015-.023.067-.045.234.096.236.244.079.19-.023.069-.015.023-.067-.117-.041-.027-.122-.137.017-.079-.016-.012-.048.032-.153-.118-.04.026.122.14-.018.079.016.011.046-.033.156.118.04-.027-.122.027.122zm13.339.419l.115.049a.761.761 0 0 0 .074-.291l-.075-.191-.192-.068a.773.773 0 0 0-.25.051l-.053.018-.022.051a.758.758 0 0 0-.071.284l.076.194.195.068a.773.773 0 0 0 .243-.048l.053-.018.022-.052-.115-.047-.04-.119-.163.035-.026-.003-.001.003.002-.002-.001-.001-.001.003.002-.002-.012.016.019-.008-.007-.008-.012.016.019-.008-.002-.018.052-.188-.115-.048.041.118.168-.037.024.003.005-.017-.013.009.008.008.005-.017-.013.009.004-.002-.004.001.001.001.004-.002-.004.001.001.016a.57.57 0 0 1-.054.193l.113.048-.04-.119.04.119zm1.15.338l.113.054.045-.196a.61.61 0 0 0-.237-.451.765.765 0 0 0-.474-.186l-.211.046-.044.021-.018.045-.031.168a.72.72 0 0 0 .204.468.65.65 0 0 0 .458.226.426.426 0 0 0 .273-.096l.023-.018.012-.027-.113-.054-.077-.098-.119.042c-.08.002-.19-.054-.274-.146a.47.47 0 0 1-.137-.298l.014-.075-.116-.046.054.113.102-.021a.521.521 0 0 1 .313.127c.094.078.149.179.148.26l-.021.089.113.053-.077-.098.077.098zm2.701.427c-.016.154-.053.288-.054.436a.576.576 0 0 0 .201.443c.057.052.156.176.268.287.115.108.243.222.423.228a.356.356 0 0 0 .27-.132l.062-.169c-.004-.132-.07-.241-.153-.36-.251-.346-.737-.746-.807-.812l-.17.183c.057.053.281.24.494.455.106.107.208.22.28.32.074.098.109.19.106.213l-.001.006.006.002-.005-.004-.001.002.006.002-.005-.004-.082.047c-.045.005-.15-.057-.248-.156-.1-.097-.191-.214-.272-.291-.104-.102-.119-.163-.122-.261-.001-.099.033-.234.053-.41l-.249-.025zm4.929 2.131l.109-.062c-.105-.179-.214-.311-.392-.318-.187.009-.295.155-.392.35l-.03.062.037.059c.11.171.224.295.396.301.184-.007.293-.15.385-.338l.028-.059-.032-.057-.109.062-.113-.054-.107.165-.053.031c-.011.007-.091-.032-.184-.184l-.106.066.112.055.114-.176.054-.033.056.032.118.16.109-.062-.113-.054.113.054zm.557.207c.128.126.318.277.473.437.158.159.265.328.26.437l-.095.185-.215.186c-.06.056-.124.134-.124.243.002.106.052.192.131.296.08.099.188.256.386.301l.079.008c.239-.006.402-.186.525-.368a1.63 1.63 0 0 0 .232-.541c.023-.124.031-.248.031-.37 0-.298-.051-.588-.084-.864l-.124.015-.046.116c.209.082.418.161.627.241l.105-.226c-.374-.207-.759-.38-1.13-.569l-.045-.023-.048.015c-.295.09-.593.174-.89.275l.08.237c.289-.098.585-.182.882-.272l-.036-.12-.057.111c.379.193.761.366 1.123.566l.06-.109.044-.117c-.209-.08-.418-.158-.624-.24l-.195-.077.025.208c.035.284.083.564.082.834 0 .11-.008.219-.027.325a1.395 1.395 0 0 1-.195.448c-.102.16-.234.262-.317.255l-.03-.003c-.068-.009-.164-.108-.237-.208l-.079-.143.046-.061c.045-.043.122-.101.212-.183a.491.491 0 0 0 .176-.37c-.005-.24-.163-.435-.331-.611-.17-.175-.365-.33-.477-.441l-.173.177zm-20.619.985l.119.038.03-.21a1.044 1.044 0 0 0-.129-.498c-.084-.149-.227-.284-.426-.285h-.015l-.062.002-.036.051a.51.51 0 0 0-.087.298c.001.17.062.341.163.479.1.136.246.249.431.25h.018l.087-.004.027-.083-.12-.038-.005-.125h-.007c-.071.002-.158-.051-.229-.148a.594.594 0 0 1-.114-.332l.041-.153-.102-.072.004.125h.006c.073-.001.145.05.208.159a.808.808 0 0 1 .097.375l-.018.134.119.037-.005-.125.005.125zm-.895-.911c-.038.299-.076.598-.117.896l.124.017.053-.113c-.176-.082-.353-.161-.527-.242l-.143-.066-.033.153a8.447 8.447 0 0 0-.193 1.196l-.036.511.267-.438.426-.693-.107-.065-.124.015c.03.256.061.514.096.771l.013.095.095.012c.145.018.291.041.436.067.363.064.727.148 1.099.213l.249.043-.116-.224a4.188 4.188 0 0 0-.791-1.057c-.24-.223-.275-.713-.431-1.121l-.232.093c.146.344.156.87.488 1.206.298.291.553.626.744.994l.111-.058.021-.123c-.363-.063-.726-.146-1.098-.212a9.438 9.438 0 0 0-.447-.068l-.016.123.124-.017c-.035-.254-.065-.51-.096-.766l-.043-.359-.188.308-.426.693.107.065.125.009c.027-.387.104-.772.188-1.16l-.122-.027-.053.114c.176.082.353.161.527.242l.153.071.023-.168c.041-.3.08-.6.117-.899l-.247-.031zm16.873 3.088c.507.676 1.145 1.214 1.651 1.844.146.177.352.449.686.457l.056-.003a.468.468 0 0 0 .259-.096l.101-.219c-.008-.201-.151-.362-.315-.471-.275-.171-.576-.209-.815-.314h-.001.001l-.008-.008c-.027-.028-.059-.157-.075-.296-.02-.141-.03-.291-.081-.416-.167-.392-.512-.796-.977-.804a.798.798 0 0 0-.454.15l.141.206a.543.543 0 0 1 .313-.106c.295-.008.607.31.746.65.032.071.049.249.072.415l.056.243c.029.074.074.155.167.196h-.001c.283.119.569.16.78.296.114.066.207.213.198.26l-.012.029-.123.038-.03.002c-.168.008-.35-.18-.491-.363-.528-.654-1.163-1.19-1.646-1.837l-.198.147zM4.618 21.677c.232-.195.468-.384.711-.564l.131-.097-.127-.101c-.411-.329-.843-.623-1.257-.932l-.103-.077-.074.106a.79.79 0 0 0-.154.46c.011.502.465.87.694 1.184l.199-.151c-.265-.338-.654-.706-.643-1.034 0-.099.029-.201.109-.317l-.103-.071-.075.1c.42.313.849.606 1.251.927l.078-.098-.074-.1c-.248.184-.488.376-.724.573l.161.192zm23.609-.099l.253-.028c.325 0 .64.135.912.349l.071.056.076-.051c.345-.232.722-.449 1.042-.757l.179-.172-.244-.041c-.374-.062-.855-.205-1.311-.206-.444-.006-.897.157-1.119.676l.229.1c.187-.416.49-.52.89-.526.405-.001.875.134 1.269.202l.021-.123-.087-.09c-.291.281-.653.491-1.008.729l.07.104.077-.098c-.304-.24-.672-.403-1.067-.403-.101 0-.204.011-.307.034l.054.245zm-1.332.066l-.19-.019c-.527.003-.879.433-1.005.895l-.061.221.219-.068c.332-.104.718-.198 1.062-.37.342-.171.649-.433.779-.859l.083-.27-.256.121c-.242.114-.479.235-.715.363l.12.219c.231-.126.464-.245.701-.356l-.053-.113-.119-.037c-.108.347-.344.553-.653.71-.308.155-.682.248-1.024.355l.037.119.12.033c.112-.399.393-.715.764-.712l.142.014.049-.246zm-7.482.012l.078-.098-.257-.096c-.172.002-.304.11-.393.237a.798.798 0 0 0-.146.444c-.004.165.078.353.269.422l.035.013.036-.008c.322-.078.542-.395.547-.716l-.057-.254-.012-.025-.022-.017-.078.098-.112.055.032.143c.005.2-.171.439-.351.472l.027.122.044-.117c-.075-.03-.102-.082-.107-.188a.555.555 0 0 1 .1-.301l.188-.13.101.041.078-.097-.112.055.112-.055zm2.215.833l.01-.125-.031-.001a.476.476 0 0 0-.38.214.72.72 0 0 0-.135.409.435.435 0 0 0 .273.428l.011.004.011.002.088.008a.464.464 0 0 0 .375-.194.645.645 0 0 0 .126-.385.492.492 0 0 0-.302-.477l-.018-.007-.019-.001-.009.125-.046.116c.098.039.142.126.144.245l-.075.234-.175.094-.044-.004-.022.123.044-.117c-.077-.031-.108-.089-.112-.194l.087-.263.178-.111h.012l.009-.123-.046.116.046-.116zm.946.511l.125.19.187.076c.135-.006.222-.064.367-.1h.001-.001c.242-.065.545-.185.628-.521l.025-.102-.097-.042-.268-.056c-.377.008-.658.285-.905.389l.102.228c.299-.141.567-.374.803-.367l.169.036.05-.115-.121-.029c-.044.19-.218.274-.451.338-.166.048-.278.097-.302.091l-.016-.008-.069-.113-.227.105zm-2.968.396l.072.102a.465.465 0 0 0 .178-.387.594.594 0 0 0-.082-.308.329.329 0 0 0-.275-.172.384.384 0 0 0-.261.119l.086.091-.079-.097c-.118.099-.153.244-.154.379 0 .108.024.215.074.307.048.089.14.177.269.178a.382.382 0 0 0 .259-.121l-.087-.091.072.102-.072-.102-.086-.09-.086.052-.05-.049-.043-.185.061-.185.004-.003.004-.003.089-.051.062.052.046.178-.072.183-.009.005-.007.006.087.09zm-3.716-.115l.072-.102a.592.592 0 0 0-.33-.128.322.322 0 0 0-.253.123.673.673 0 0 0-.123.283l-.018.081.068.048a.59.59 0 0 0 .331.129.318.318 0 0 0 .252-.123.672.672 0 0 0 .123-.284l.018-.081-.068-.048-.072.102-.122-.027a.433.433 0 0 1-.072.179l-.059.031-.187-.083-.072.102.122.027a.454.454 0 0 1 .072-.179l.06-.031.186.083.072-.102-.122-.027.122.027zm3.863 1.3l.061.109c.164-.095.29-.193.298-.363-.007-.167-.133-.262-.29-.344l-.057-.029-.057.03c-.167.091-.296.186-.305.358.008.168.133.263.293.349l.06.031.059-.033-.062-.108.058-.111-.137-.094-.022-.034.025-.037.146-.1-.058-.111-.057.111.133.089.021.032-.025.04-.144.104.06.111.058-.111-.058.111zm3.438.194c.169.284.345.567.532.841l.103-.07-.121-.031c-.059.229-.119.459-.173.691l.237.076c.074-.18.116-.306.152-.363l.105-.054c.048 0 .125.011.232.034l.529.114-.426-.334a62.67 62.67 0 0 0-.405-.316l-.076.099.038.119a.684.684 0 0 0 .399-.339c.08-.145.122-.303.162-.443a.91.91 0 0 0 .041-.252.52.52 0 0 0-.1-.305c-.059-.085-.131-.161-.216-.268l-.078-.097-.098.078c-.271.217-.542.437-.809.66l.16.192c.266-.222.535-.441.805-.657l-.078-.098-.098.078c.091.114.164.192.205.253l.056.164-.032.183c-.04.141-.08.282-.14.39a.429.429 0 0 1-.255.221l-.228.072.189.146c.135.104.269.209.403.315l.077-.098.026-.122a1.411 1.411 0 0 0-.284-.039.344.344 0 0 0-.319.176c-.06.103-.096.224-.168.395l.115.048.122.028c.053-.228.112-.457.171-.686l.014-.055-.032-.047a15.622 15.622 0 0 1-.523-.828l-.214.129zm5.877-.778c.28.507.658.945.695 1.471l.013.164.155-.056c.216-.078.43-.159.644-.241l.202-.077-.168-.136c-.296-.238-.626-.432-.776-.709-.134-.24-.321-.474-.607-.591l-.094.231c.21.085.363.266.483.481.203.36.567.559.837.782l.079-.097-.045-.117c-.213.082-.426.162-.64.239l.043.118.125-.01c-.052-.634-.471-1.098-.725-1.572l-.221.12zm-6.816.953c-.106.003-.212.004-.319.005h-.129l.005.129.012.315.008.199.176-.093c.228-.122.33-.169.417-.167.073-.001.175.03.363.113l.131.057.039-.137c.088-.308.167-.618.244-.926l.045-.183-.186.03c-.204.033-.419.081-.599.196a.692.692 0 0 0-.327.582l.25.011a.44.44 0 0 1 .212-.383c.127-.082.312-.13.503-.16l-.02-.123-.121-.03c-.076.307-.154.613-.241.917l.12.034.05-.115c-.193-.083-.322-.132-.463-.133-.176.002-.31.078-.534.196l.059.11.125-.005-.012-.315-.125.005v.125c.109 0 .217-.002.325-.005l-.008-.249zm-1.405.643l.088.089a.405.405 0 0 0 .119-.295c-.007-.259-.192-.523-.479-.536l-.203.059-.013.008-.011.011a.415.415 0 0 0-.116.294c.006.257.185.524.472.537l.208-.062.012-.007.01-.01-.087-.088-.066-.106-.076.024-.147-.086-.076-.201.044-.119-.089-.087.065.107.073-.022.151.087.077.199-.045.117.089.087-.066-.106.066.106zm5.544-.188l-.04-.118c-.602.207-1.07.623-1.553.952l-.306.209.37.019.069.002c.711-.004 1.163-.543 1.554-.981l.313-.354-.447.153.04.118-.094-.083c-.395.449-.802.901-1.367.897l-.056-.001-.006.125.071.103c.499-.343.953-.739 1.493-.922l-.041-.119-.094-.083.094.083zm3.268 1.335l.214.052c.181-.002.317-.102.434-.196.117-.096.223-.196.317-.242.367-.186.792-.289 1.189-.505l.163-.089-.143-.117a.931.931 0 0 0-.597-.231c-.689.015-1.222.762-1.608 1.127l.175.179c.395-.399.947-1.071 1.434-1.056.14.001.281.046.439.174l.079-.097-.06-.11c-.358.197-.78.3-1.182.501-.144.073-.257.186-.364.272-.107.089-.2.142-.275.14l-.103-.026-.112.224zm-9.788-.872c-.024.247-.185.362-.418.502-.225.135-.514.272-.637.595l-.071.193.204-.026c.327-.042.673-.055 1.019-.142l.094-.023.001-.096c.003-.226.007-.453.014-.68l-.125-.004-.085.091.186.2c.078.074.169.159.311.164l.204-.087.084-.08-.074-.09c-.161-.195-.32-.392-.486-.587l-.19.162c.163.191.322.388.484.584l.096-.08-.086-.09-.031.018-.135-.091-.192-.205-.202-.189-.008.276c-.007.228-.011.456-.014.684l.125.001-.03-.121c-.312.079-.648.093-.989.136l.016.124.117.043c.074-.209.287-.326.529-.466.234-.136.506-.32.54-.694l-.251-.022zm3.715 1.069l.107.064.06-.225a.663.663 0 0 0-.19-.439.605.605 0 0 0-.427-.209.408.408 0 0 0-.271.101l-.018.016-.011.021-.051.212c.001.166.078.32.187.44.11.118.258.207.427.209l.262-.089.019-.015.013-.021-.107-.065-.075-.1-.111.039-.243-.128-.121-.27.022-.095-.111-.058.081.095.109-.041.244.129.123.269-.025.097.107.063-.075-.1.075.1zm-1.218.128l.058.111c.177-.099.31-.184.323-.362l-.097-.199-.204-.122-.055-.023-.053.028c-.173.097-.304.185-.316.361l.094.198.2.123.055.024.053-.028-.058-.111.05-.115-.128-.076-.016-.018-.006.003h.006v-.003l-.006.003h.006l.002-.003c.006-.018.066-.078.182-.137l-.059-.11-.049.115.134.077.016.018.009-.005H22.5l.001.005.009-.005h-.009l-.001.001c-.006.018-.069.079-.188.139l.056.111.05-.115-.05.115zm5.32-.259c-.217.139-.436.274-.655.411l-.119.074.087.11c.131.165.261.331.389.499l.168.22.054-.272.113-.563-.123-.024-.005.125.485.019.294.011-.196-.219-.332-.369-.186.167.331.369.093-.083.005-.125a78.59 78.59 0 0 1-.485-.019l-.107-.004-.021.105-.113.563.123.024.099-.076a27.117 27.117 0 0 0-.392-.503l-.098.078.066.106c.218-.137.438-.272.657-.412l-.132-.212zm6.179.609l.073.102a.4.4 0 0 0 .168-.335c-.005-.237-.165-.483-.433-.495l-.233.083.001-.001a.4.4 0 0 0-.164.327c.005.239.177.477.445.488l.209-.062.004-.002.004-.003-.074-.102-.066-.106-.078.025-.13-.071-.065-.167.062-.126h.001l.082-.032.12.071.064.174-.064.132.074.1-.066-.106.066.106zm-10.777.839c.203-.043.41-.082.617-.127l-.027-.122-.123-.02-.131.823-.041.253.225-.124c.245-.136.454-.375.456-.679l-.047-.242c-.069-.192-.21-.315-.369-.311-.258.012-.456.219-.646.318l.122.218c.213-.127.435-.298.524-.286.038.004.071.003.137.153l.03.15c.002.177-.134.354-.327.461l.061.109.123.02.132-.823.029-.181-.179.039c-.202.044-.409.083-.615.127l.049.244zm8.997 0l.11.059.048-.19c-.013-.302-.285-.529-.571-.538l-.259.089-.021.017-.012.025-.041.173a.527.527 0 0 0 .187.38.596.596 0 0 0 .391.164l.243-.078.023-.017.013-.025-.111-.059-.074-.1-.094.029-.223-.099-.105-.195.014-.061-.112-.056.078.098.103-.034.219.095.102.193-.018.073.11.057-.074-.1.074.1zm1.044 1.144c.042.477.089.951.119 1.425l.011.171.159-.062c1.232-.488 1.894-1.965 2.19-3.105l.047-.184-.187.029a3.2 3.2 0 0 0-2.325 1.658l.222.115c.417-.807 1.244-1.387 2.142-1.526l-.019-.124-.121-.031c-.28 1.108-.944 2.515-2.038 2.934l.045.116.125-.008c-.03-.48-.078-.956-.12-1.431l-.25.023zm-19.408.274l.1.075a.855.855 0 0 0 .19-.517c-.008-.443-.367-.764-.642-1.039l-.11-.107-.083.129c-.12.188-.18.407-.18.624-.003.413.227.838.694.956l.081.02.05-.066-.1-.075.031-.121c-.337-.086-.502-.382-.505-.714 0-.171.048-.346.14-.489l-.105-.068-.087.089c.285.273.574.576.567.86 0 .11-.036.228-.139.367l.098.076.031-.121-.031.121zm17.099 3.637c.198-.096.398-.19.599-.281l.114-.052-.052-.114c-.091-.2-.183-.398-.275-.597v.001l-.037-.215c-.003-.303.154-.735.161-1.085l.006-.512-.241.452c-.279.524-.532 1.112-.533 1.733 0 .196.026.395.084.593l.24-.071a1.844 1.844 0 0 1-.074-.522c-.001-.55.231-1.104.504-1.615l-.11-.059-.125-.001c0 .281-.158.717-.161 1.087 0 .11.015.219.06.319v.001l.274.596.114-.052-.052-.114c-.202.092-.404.187-.604.283l.108.225zM16.37 32.017c.022.365.038.73.047 1.094l.125-.003.091-.086c-.205-.216-.408-.436-.614-.653l-.189-.199-.026.274c-.038.404-.095.808-.151 1.215-.018.138-.036.243-.036.339-.006.106.039.237.148.297.103.06.223.077.404.097.681.071 1.357.119 2.033.193.603.064 1.216.085 1.708.38.307.182.603.156.902.174l.007-.125-.124.015c.033.277.061.555.086.834l.01.113.113.001h.08c1.429-.001 2.802-.38 4.183-.485l.17-.006c.301 0 .661.047 1.007.047.283-.001.561-.031.796-.163.161-.09.263-.181.307-.31.041-.126.032-.239.044-.412v-.001.001c.021-.316.042-.631.068-.945l.032-.392-.252.302c-.215.258-.433.515-.646.778l.097.079.076-.099-.409-.315-.078-.06-.077.061c-.384.306-.813.556-1.253.789l.058.111.12-.036a1.997 1.997 0 0 1-.073-.569c0-.23.026-.467.049-.705l.015-.16-.159.025c-.496.077-.94.168-1.404.168-.124 0-.249-.006-.378-.021-.567-.064-1.116-.292-1.71-.416a2.051 2.051 0 0 0-.427-.044c-.499.002-.879.176-1.37.253-.291.047-.591.065-.894.084l.008.125.124-.012c-.018-.181-.034-.365-.054-.549l-.014-.126-.126.015-.63.075.015.124.11.059c.027-.054.12-.154.208-.263.086-.111.179-.235.182-.4l-.024-.128a.262.262 0 0 0-.248-.175c-.156.006-.28.093-.405.172-.12.081-.242.163-.281.172h.001a2.06 2.06 0 0 1-.586.072l-.074-.001L17 32.69l-.014-.004-.021.041.042-.017-.02-.024-.021.041.042-.017H17l.009-.001-.001-.002-.008.003.009-.001-.001-.018.005-.146-.001-.051c-.015-.211.013-.326-.058-.465l-.19-.125a1.363 1.363 0 0 0-.269-.019v.25c.106 0 .179.004.216.013l.03.01.003.008c.013.032.012.153.019.339l.001.04-.005.146.086.196c.073.049.141.052.235.055l.079.001c.216 0 .439-.018.656-.082h.001c.119-.039.227-.126.347-.202.113-.079.236-.137.268-.131h.005l.01.019.007.036c.004.049-.048.147-.128.244-.078.1-.173.194-.232.3l-.115.212.239-.028.63-.075-.015-.124-.124.013c.02.181.036.364.054.547l.012.12.12-.008c.303-.019.61-.037.919-.086.529-.087.897-.251 1.331-.25.117 0 .241.011.376.039.563.116 1.119.349 1.732.42.139.016.274.023.407.023.497 0 .955-.095 1.443-.171l-.019-.124-.124-.012c-.023.235-.05.48-.05.729 0 .212.02.427.084.64l.043.146.135-.071a8.287 8.287 0 0 0 1.292-.814l-.078-.098-.077.099.409.315.097.075.077-.095c.21-.26.427-.516.643-.775l-.096-.08-.125-.01c-.026.317-.047.633-.068.949v.001-.001c-.011.185-.011.294-.031.346-.018.049-.048.09-.195.175-.17.098-.408.131-.672.13-.323 0-.682-.047-1.007-.047l-.19.007c-1.413.11-2.78.485-4.164.484h-.078l-.001.125.124-.011c-.025-.28-.054-.561-.087-.841l-.012-.104-.105-.006c-.325-.017-.56-.002-.788-.139-.568-.337-1.221-.349-1.809-.414-.682-.074-1.359-.122-2.034-.193-.171-.017-.271-.042-.301-.062L15.867 34c0-.063.015-.166.034-.306.055-.406.113-.814.152-1.226l-.124-.012-.091.086c.205.216.408.436.614.653l.224.237-.008-.326c-.01-.367-.026-.735-.048-1.102l-.25.013zm13.894 1.208l.034-.12-.239-.039a.352.352 0 0 0-.268.103.392.392 0 0 0-.093.275l.012.136.013.08.079.021.222.033a.367.367 0 0 0 .277-.105.4.4 0 0 0 .096-.282l-.009-.12-.012-.08-.078-.022-.034.12-.124.018.007.084-.028.111-.095.027-.159-.024-.032.121.123-.02-.009-.097.025-.104.086-.023.17.029.036-.122-.124.018.124-.018z"/></svg>