<svg version="1.1" id="Layer_1" xmlns="http://www.w3.org/2000/svg" xmlns:xlink="http://www.w3.org/1999/xlink" x="0" y="0" width="35.66" height="35.98" viewBox="0 0 35.66 35.98" xml:space="preserve"><defs><path id="SVGID_1_" d="M17.074 1.781c.005-.43.002-.862.064-1.288.264-.094.528-.186.792-.281-.059.203-.114.405-.169.609.315.006.708.208.51.537-.105.174-.212.345-.315.519a25.833 25.833 0 0 0-.882-.096m-3.239.685c-.266.475-.335.774-.34 1.332-.354-.093-.372.131-.395.412-.012.151-.051.307-.191.39.058.195.114.39.173.586-.342.032-.683.071-1.024.115.057.346.11.692.161 1.038-.125.027-.253.089-.28.227-.051.246.136.476.112.722.182-.023.363-.047.545-.066-.207.152-.546.58-.733.351-.176-.216-.34-.342-.354-.623-.023-.45-.124-.92-.509-1.203-.056.281-.107.562-.159.842-.163-.074-.328-.147-.491-.222-.104.27-.204.541-.299.813l.599.023c.017.16.062.319.149.455.203.319.581.419.938.362-.062.199-.119.4-.181.599l.751-.716c-.319.423-.165 1.065-.534 1.459-.522.556-.533-.123-.583-.511l.359.167c-.26-.318-.521-.719-.98-.719.382.356.612.834.692 1.347.077.49-.051.41-.48.472.183.235.371.465.56.695-.274.16-.546.322-.82.481.302.062 1.871.046 1.764-.337-.155-.557.517-.916.972-1.159-.552.422-.764 1.093-.863 1.754-.109.72-.251 1.304-.09 2.038a14.5 14.5 0 0 0-.286-.027c.083.543-.013 1.093-.152 1.619.525-.079.532-.106.701-.61.097-.29.667.025.935.079-.104-.383-.005-.989-.458-1.174l-.34.716c-.084-.058.094-1.281.11-1.488.026-.339.051-.63.357-.805a8.49 8.49 0 0 0 .565-.355c-.316.331-.735.669-.805 1.152-.046.323.458.67.67.894.092-.493.257-.968.342-1.462.174.174.355.338.538.499a35.221 35.221 0 0 0-.568-.053c-.026.292-.046.585-.063.877-.018.303.111.35.308.567.207.229.383.258.186.531a5.66 5.66 0 0 0-.346.552c-.248.444-.459.908-.727 1.34-.211.339.406.947.623 1.276a49.224 49.224 0 0 1-.142-.937c.45.221.787.65 1.288.768l.067-.692c.295.201.522.524.849.318.203-.127.406-.253.599-.396.246-.184.282-.316.603-.301.243.012.486.027.728.032-.693.085-.954.736-1.152 1.316-.05.147-.099.294-.155.439.148.192.289.39.419.594.219.342.407.704.546 1.085.272-.198.551-.385.841-.558-.135.581-.323 1.149-.51 1.714l.466.034c-.31.311-.681.549-.406.981.172.27.425.474.665.679-.29-.005-.58 0-.867.027-.253-.14-.541-.137-.819-.096-.408.062-.922.33-1.307.114-.232-.13-.968-.911-1.161-.317-.1.308-.207.358.063.589.201.171.402.344.6.519-.386.403-.819.76-1.178 1.188.516-.125 1.007-.33 1.493-.537.09.819.591 1.978-.25 2.57-.834.587-1.857.831-2.676 1.444.241.055.483.112.724.164-.202.19-.395.387-.592.582l.563-.076c.029.164.06.328.09.491.43-.168.842-.379 1.274-.545.353.052.679.207 1.012.326l-.658.079c.196.411.579.314.93.189.34-.121.325-.038.566.213.14.146.292.28.465.387.589.363.719.007 1.211-.301.37-.231.764-.395 1.135-.634-.273.373-.585.717-.901 1.055-.213.227-.169.424-.179.727-.651-.018-1.291-.165-1.943-.163a2.948 2.948 0 0 0-.959.153c.034.148.049.316-.016.459-.188.417-.698.083-.756.498-.046.324-.003.601-.249.829-.172.16-.348.315-.529.464-.412.34-.58.783-.957 1.149-.273.266-.652.313-.976.49-.18.098-.293.253-.29.466.171.075.347.013.508-.052.462-.187.613.186.915.519a2.05 2.05 0 0 0 .306-1.217l.127.364c.452-.478 1.091-.681 1.739-.65.649.031.99.226 1.452.653.238-.375.556-.674.573-1.125.018-.465.039-.487.482-.7.34-.164.812-.515 1.143-.29.316.215.624.44.926.676l-.052-.401c.396.069.788.147 1.181.229.01-.174.021-.347.034-.521l.527-.07c.494-.066.753.317 1.127.627.138-.186.279-.371.423-.552-.289-.196-.582-.386-.853-.606.686.288 1.236.309 1.978.214.377-.049.755-.104 1.136-.096.379.008.781.247 1.091.047.325-.21.664-.4 1.013-.569.374-.182.548-.408.872-.655.225-.172.723-.333.715-.626-.006-.241-.012-.484-.021-.725-.751.225-1.523.033-2.241-.218.552-.133 1.063-.425 1.058-1.061l-.662.233c.336-.196.679-.44 1.088-.408a7.97 7.97 0 0 1 .796-1.188c.348-.436.419-1.582.314-2.136-.141-.754-.874-1.181-1.59-1.233-.373-.027-.746.007-1.119.014-.322.006-.452.532-.588.809a99.91 99.91 0 0 0-.772-.479c.28-.355.564-.708.838-1.069a4.624 4.624 0 0 0-.666-1.038 4.4 4.4 0 0 0-.92-.814c-.391.009-.781.019-1.171.012.367-.103.855-.346 1.167-.135.294.2.642.291.974.404-.269-.449-.684-.818-.857-1.323a1.148 1.148 0 0 1-.02-.691 3.747 3.747 0 0 1-.562-.643c-.397-.538-.708-.742-1.296-1.029-.52-.254-.727-.608-.927-1.139-.271-.716-.457-1.46-.651-2.199-.144-.548-.714-.968-1.046-1.423-.238-.327-.699-.46-1.056-.65-.441-.236-.435-.285-.767.101-.302.351-1.411-.034-1.868-.128.373.022.881.209 1.155-.057.197-.192.507-.67.777-.573.674.245.544-.491.041-.706.617-.586 1.043-1.337 1.354-2.121.156-.394.284-.797.398-1.205.085-.307.299-.546.354-.868.071-.413-.091-.818-.532-.82-.51-.002-1.02.002-1.53-.002-.471-.002-1.052-.115-1.496.046-.368.134-.71.326-1.063.491-.014-.105-.095-.336-.059-.433.248-.186.494-.376.739-.567-.276-.016-.551-.035-.827-.051.453-.559.977-1.055 1.494-1.554.229-.221.458-.445.679-.675a23.109 23.109 0 0 1-.101-1.049c-1.212.4-2.555.693-3.809.27M9.55 3.908c-.01.305.027.611.116.903.111.356-.114.448-.366.692-.375.362-.812.649-1.173 1.033.216-.16.432-.318.649-.477.007.954.161 2.012-.409 2.85.243-.252.464-.525.691-.792.036-.303.068-.608.119-.91.092-.558.223-1.294.7-1.646.314-.233.626-.471.934-.712.275-.217.114-.344.202-.651a.68.68 0 0 1 .437-.452 52.954 52.954 0 0 1-.027-1.054c-.608.43-1.196.899-1.873 1.216m.987 9.008c-.069.253-.135.507-.195.763l.533-.344-.128.743c.913-.446 1.097-1.562 1.565-2.364-.537.472-1.044 1.046-1.775 1.202m.501 2.421l-.078-.44c.212.478.389.974.627 1.441.136.268.294.525.483.759-.151.238-.319.464-.474.7.196-.128.392-.255.587-.384.173.152.293.359.352.58.111.416.002.921-.393 1.147-.269.155-.373.023-.519.339-.069.149-.139.297-.212.444a2.68 2.68 0 0 0-.725-.149 2.208 2.208 0 0 0-.487.024c-.377.061-.293-.084-.454-.4-.189-.37-.407-.723-.609-1.085-.287.399-.478 1.109-1.05 1.181-.615.078-1.298-1.006-1.551-1.484l.963-.066c-.108-.252-.22-.501-.327-.753.406.034.734-.16.953-.493.09-.138.161-.288.225-.439.126-.3.108-.308.439-.322.426-.018.521-.369.939-.495.422-.128.874-.082 1.311-.105m-.758 1.96c-.035.306-.061.614-.085.922.414-.11.539-.522.655-.883l-.57-.039m4.702 1.169c-.47.44-.921.978-.904 1.665.61-.306 1.3-.917.904-1.665z"/></defs><clipPath id="SVGID_2_"><use xlink:href="#SVGID_1_" overflow="visible"/></clipPath><path clip-path="url(#SVGID_2_)" fill-rule="evenodd" clip-rule="evenodd" fill="#FEFEFE" d="M-10.629 35.248h54.226a4.935 4.935 0 0 0 4.063-4.222V3.107a4.937 4.937 0 0 0-4.04-4.222h-54.249c-2.111.363-3.791 2.088-4.063 4.222v27.919c.272 2.133 1.952 3.858 4.063 4.222z"/><path clip-path="url(#SVGID_2_)" fill-rule="evenodd" clip-rule="evenodd" fill="#C20F2D" d="M27.05 12.027L46.843.951a5.167 5.167 0 0 0-1.634-1.498L22.76 12.027h4.29zm-.954 10.805l19.997 11.19a5.204 5.204 0 0 0 1.226-1.725l-16.933-9.465h-4.29zM-14.352 1.836L3.761 12.027h4.313L-13.126.11a5.198 5.198 0 0 0-1.226 1.726zm21.45 20.996l-20.133 11.281c.658.545 1.453.953 2.315 1.112l22.131-12.393H7.098z"/><path clip-path="url(#SVGID_2_)" fill-rule="evenodd" clip-rule="evenodd" fill="#1A2673" d="M43.393-1.115H21.557v12.212zm-31.46 0H-9.812l21.745 12.212zm-20.52 36.363h20.52V23.762zm30.144 0h20.587L21.557 23.762z"/><path clip-path="url(#SVGID_2_)" fill-rule="evenodd" clip-rule="evenodd" fill="#C20F2D" d="M13.862-1.115v15.299h-28.555v6.491h28.555v14.573h5.765V20.675H47.66v-6.491H19.627V-1.115z"/><path fill="#1A171B" d="M17.199 1.782c.005-.431.002-.858.062-1.272l-.124-.018.043.118c.263-.094.528-.186.792-.281L17.93.212l-.12-.035c-.059.204-.115.407-.169.611L17.6.942l.16.003a.693.693 0 0 1 .318.083l.122.158-.035.106c-.104.172-.211.344-.315.52l.108.063.015-.124c-.295-.036-.59-.069-.886-.096l-.023.249c.292.028.585.06.878.096l.081.01.042-.071c.101-.172.208-.343.314-.518l.008-.013-.008.013.071-.235c-.001-.175-.119-.302-.248-.375a.94.94 0 0 0-.438-.116l-.003.125.121.032c.054-.203.11-.405.168-.606l.068-.235-.231.083c-.263.095-.527.186-.792.281l-.07.025-.011.074c-.064.439-.06.877-.065 1.305l.25.003zm-3.473.623c-.274.485-.353.826-.356 1.392l.125.001.032-.121-.174-.025a.325.325 0 0 0-.316.204c-.045.11-.051.226-.062.345-.012.142-.046.244-.13.293l-.084.05.028.093c.058.195.114.39.174.587l.12-.036-.013-.126c-.344.032-.686.071-1.028.115l-.128.017.021.128c.057.345.11.69.161 1.036l.124-.018-.027-.122c-.139.029-.331.11-.376.324v-.001l-.011.114c.007.249.129.438.123.588l-.002.034-.017.156.156-.02c.182-.023.363-.047.543-.066l-.013-.124-.074-.101c-.096.071-.197.175-.299.259-.098.087-.201.139-.23.134l-.034-.02c-.192-.233-.316-.326-.326-.55-.024-.462-.127-.978-.56-1.299l-.158-.116-.038.193c-.056.282-.107.564-.159.844l.123.023.052-.114c-.164-.075-.329-.147-.49-.222l-.121-.056-.048.124c-.105.271-.205.543-.3.818l-.056.16.169.006.599.023.004-.125-.124.013c.018.175.068.353.169.509v-.001c.194.306.529.436.854.435l.209-.017-.02-.123-.119-.037c-.062.201-.119.401-.181.599l-.142.459.348-.332.751-.716-.086-.09-.1-.075c-.184.246-.223.534-.271.794-.047.262-.1.492-.254.655-.131.143-.221.176-.231.171l-.023-.02c-.062-.076-.093-.377-.116-.593l-.124.016-.053.113.359.167.496.231-.346-.423c-.127-.155-.26-.34-.428-.492a.954.954 0 0 0-.649-.273h-.317l.232.216c.359.335.577.786.654 1.275l.02.194-.011.075-.073.023c-.066.011-.173.017-.311.037l-.213.031.133.17c.184.236.373.467.562.697l.097-.079-.063-.108c-.275.16-.547.322-.82.481l-.282.164.319.066c.1.02.27.03.481.03.275 0 .608-.019.882-.072a1.36 1.36 0 0 0 .36-.113c.095-.049.194-.132.196-.268l-.01-.07-.018-.128c-.001-.176.113-.341.299-.495.184-.153.426-.283.63-.392l-.059-.11-.076-.099c-.592.455-.81 1.163-.911 1.835-.073.483-.164.914-.164 1.383 0 .223.021.454.075.701l.122-.027.013-.124-.287-.028-.159-.015.024.158c.02.133.03.267.03.401 0 .388-.077.781-.178 1.167l-.048.184.188-.028c.261-.041.417-.062.549-.176.126-.119.166-.269.252-.518l.082-.035c.167-.005.497.151.71.198l.198.04-.053-.195c-.047-.167-.049-.415-.096-.653-.045-.235-.155-.49-.435-.604l-.109-.044-.051.106-.34.716.113.053.071-.103-.053.077.089-.033-.036-.044-.053.077.089-.033v-.001l-.005-.084c-.001-.323.118-1.158.132-1.335a1.72 1.72 0 0 1 .067-.432.475.475 0 0 1 .227-.273c.196-.112.387-.233.574-.36l-.07-.103-.09-.086c-.304.324-.754.672-.838 1.221l-.004.059c.005.221.148.394.296.549.15.154.321.292.411.389l.168.178.045-.241c.09-.481.254-.956.342-1.464l-.123-.021-.088.088c.177.176.36.342.544.505l.083-.094.013-.124a36.57 36.57 0 0 0-.57-.053l-.124-.011-.011.124c-.026.293-.046.588-.064.881l-.002.06a.546.546 0 0 0 .111.353c.068.088.145.15.231.245l.194.189.045.063-.062.122a5.665 5.665 0 0 0-.354.565c-.252.45-.461.913-.725 1.335l-.062.226c.004.23.141.446.287.655.148.206.316.401.401.53l.321.485-.093-.573c-.05-.311-.097-.622-.141-.934l-.124.018-.055.112c.417.199.759.64 1.314.777l.139.033.014-.142.067-.692-.124-.012-.07.103c.213.135.397.393.711.406a.511.511 0 0 0 .275-.085c.203-.127.409-.255.607-.401.125-.094.2-.173.259-.215.06-.041.101-.06.222-.062l.041.001c.242.011.486.027.732.032l.003-.125-.015-.124c-.385.046-.659.258-.848.523-.19.265-.307.584-.407.877-.05.148-.098.293-.153.434l-.026.066.043.056c.146.189.284.384.413.585.215.336.399.689.534 1.061l.057.156.134-.098c.269-.196.545-.381.831-.551l-.064-.107-.122-.028c-.133.574-.32 1.138-.507 1.703l-.05.151.159.013.466.034.01-.125-.088-.088c-.217.227-.526.422-.539.782 0 .115.039.234.116.355.187.293.452.503.689.707l.081-.095.002-.125-.191-.002c-.229 0-.46.008-.69.029l.012.124.061-.109a1.154 1.154 0 0 0-.576-.136 2.28 2.28 0 0 0-.322.026c-.318.051-.663.198-.942.195a.559.559 0 0 1-.285-.067c-.06-.032-.221-.17-.392-.296-.177-.125-.366-.252-.576-.257-.161-.007-.319.114-.373.307-.047.153-.108.235-.114.375.001.133.083.235.215.347.201.171.401.343.598.517l.083-.094-.09-.086c-.379.396-.814.755-1.183 1.194l-.245.291.37-.089c.528-.128 1.026-.336 1.513-.544l-.049-.115-.124.014c.054.477.231 1.038.23 1.524-.003.382-.098.696-.427.93-.806.571-1.831.815-2.679 1.446l-.216.162.263.06c.241.055.483.112.725.164l.026-.122-.086-.091c-.204.192-.398.39-.594.584l-.267.264.372-.051.563-.076-.017-.124-.123.022c.029.165.061.329.09.492l.027.149.141-.055c.438-.171.85-.382 1.273-.545l-.045-.117-.018.124c.328.048.647.197.988.32l.042-.118-.015-.124-.658.079-.173.021.075.157a.594.594 0 0 0 .564.368c.18-.001.357-.058.521-.115a.617.617 0 0 1 .187-.047l.067.034c.037.034.093.104.18.195l-.001-.001c.145.151.305.293.49.406.188.116.345.171.494.172.175 0 .313-.079.437-.17.126-.092.249-.201.412-.303.359-.224.753-.389 1.137-.635l-.068-.105-.101-.074a11.37 11.37 0 0 1-.892 1.044.71.71 0 0 0-.198.402c-.019.135-.009.261-.014.406l.125.004.003-.125c-.628-.017-1.264-.162-1.928-.163h-.019a3.06 3.06 0 0 0-1 .16l-.105.037.025.109.026.202-.034.178c-.069.146-.162.152-.329.177-.079.011-.169.019-.259.069a.369.369 0 0 0-.178.286c-.046.353-.014.577-.211.755-.17.158-.344.312-.523.46l-.002.002.003-.002c-.441.368-.61.816-.964 1.156-.231.232-.593.281-.949.47a.63.63 0 0 0-.355.566v.011l.001.08.073.032.218.045a1.04 1.04 0 0 0 .387-.096l.181-.041c.102.001.175.046.272.144.094.097.193.24.323.384l.109.121.088-.137c.227-.351.329-.759.329-1.167l-.003-.124-.125.006-.118.041.127.364.068.194.141-.149c.395-.417.945-.614 1.52-.614l.122.003c.626.034.915.202 1.373.62l.11.102.08-.126c.222-.358.569-.674.593-1.187.007-.234.024-.333.059-.378.031-.05.129-.109.352-.215.273-.136.611-.357.84-.351l.177.051c.314.213.619.437.919.671l.239.186-.039-.301-.052-.401-.124.016-.021.123c.394.069.785.146 1.177.229l.142.03.008-.145c.01-.173.021-.345.034-.518l-.124-.016.017.124.527-.07.004-.001-.004.001.093-.006c.176.001.314.069.462.184.147.114.296.272.476.422l.102.084.079-.106c.138-.185.277-.369.421-.549l.084-.105-.111-.076c-.29-.197-.58-.386-.845-.6l-.079.097-.048.115a3.28 3.28 0 0 0 1.331.274c.226 0 .459-.02.712-.052.352-.046.698-.096 1.04-.095l.077.001c.234.002.512.123.8.127.12 0 .247-.025.362-.1l.003-.002-.003.002a9.58 9.58 0 0 1 .999-.562c.4-.196.583-.434.892-.668.093-.072.272-.157.433-.26.156-.103.325-.234.331-.459v-.01c-.006-.242-.012-.485-.021-.727l-.006-.162-.155.046a2.328 2.328 0 0 1-.67.095c-.498 0-1.005-.139-1.494-.31l-.041.118.029.122c.286-.069.568-.179.787-.366.219-.185.369-.458.367-.807v-.011l-.001-.176-.166.059c-.22.078-.44.156-.661.232l.041.118.063.108c.323-.191.628-.397.953-.394l.062.002.081.006.038-.072c.221-.412.49-.8.784-1.169.287-.37.382-1.064.386-1.648 0-.222-.016-.426-.046-.589v-.002.002c-.159-.83-.95-1.281-1.703-1.334a4.214 4.214 0 0 0-.317-.011c-.276 0-.548.02-.813.024-.239.008-.377.193-.472.369-.096.18-.164.385-.226.51l.112.055.067-.106c-.257-.162-.515-.32-.773-.479l-.066.106.098.077c.279-.355.563-.708.839-1.07l.046-.06-.032-.068a4.723 4.723 0 0 0-.684-1.066 4.493 4.493 0 0 0-.947-.837l-.033-.022-.039.001c-.293.007-.585.014-.876.014-.097 0-.194-.001-.29-.003l-.002.125.034.12c.274-.079.593-.216.83-.214.094 0 .17.019.234.062.318.216.678.307 1.004.419l.323.11-.176-.293c-.286-.469-.69-.835-.846-1.3a1.055 1.055 0 0 1-.057-.34c0-.093.013-.185.039-.275l.023-.077-.061-.052a3.634 3.634 0 0 1-.543-.622c-.405-.552-.75-.781-1.342-1.067-.486-.241-.664-.546-.865-1.07-.267-.707-.453-1.447-.647-2.187-.167-.609-.755-1.03-1.066-1.465-.279-.374-.761-.502-1.099-.687-.21-.108-.313-.191-.471-.198l-.231.096c-.066.056-.131.13-.219.232-.048.06-.175.103-.36.102-.426.001-1.057-.201-1.388-.271l-.025.122-.007.125c.203.011.475.084.738.085.178 0 .367-.037.511-.177.101-.099.211-.243.327-.361.113-.121.234-.196.289-.19l.032.006a.82.82 0 0 0 .28.057.353.353 0 0 0 .26-.097l.09-.237c-.006-.251-.193-.525-.498-.66l-.049.115.086.091c.635-.603 1.069-1.37 1.384-2.166.158-.399.288-.807.403-1.217.07-.271.29-.515.356-.88l.018-.205a.847.847 0 0 0-.16-.522.628.628 0 0 0-.513-.239h-.965l-.565-.001c-.265-.001-.58-.04-.893-.04-.221 0-.442.02-.647.093-.38.139-.725.333-1.073.495l.053.113.124-.017c-.017-.107-.069-.273-.067-.351l.001-.02-.117-.044.075.1c.249-.187.495-.377.741-.568l.261-.204-.33-.022c-.275-.016-.55-.035-.827-.051l-.007.125.097.079c.446-.55.966-1.044 1.484-1.543.229-.221.46-.446.683-.678l.041-.043-.007-.059a22.843 22.843 0 0 1-.1-1.043l-.011-.16-.153.05c-.79.261-1.627.473-2.448.473-.435 0-.866-.059-1.286-.201l-.08.237c.449.152.908.214 1.366.214.864 0 1.725-.221 2.527-.485l-.039-.119-.125.009c.025.352.06.704.101 1.055l.124-.015-.09-.087a25.21 25.21 0 0 1-.676.672c-.516.499-1.044.998-1.504 1.566l-.153.189.243.015c.275.017.55.035.827.051l.007-.125-.077-.099c-.245.191-.49.38-.737.566l-.03.021-.013.034-.017.108c.002.146.062.32.069.385l.023.168.154-.072c.359-.168.697-.357 1.053-.486.163-.059.356-.079.562-.079.292 0 .605.039.891.04l.566.001h.964c.155.002.247.056.317.142a.606.606 0 0 1 .107.369l-.014.163v.002-.002c-.043.278-.251.513-.351.856-.113.405-.24.804-.394 1.192-.306.774-.725 1.508-1.324 2.076l-.138.131.175.075c.217.088.352.317.346.43l-.018.062-.082.023-.194-.042-.117-.02c-.196.006-.337.136-.467.265-.128.131-.243.28-.322.356-.078.076-.189.106-.337.106-.216.001-.483-.069-.723-.084l-.036.248c.307.062.948.275 1.438.276.212-.001.414-.037.549-.189.085-.1.147-.168.19-.203l.07-.037c.026-.007.141.05.353.168.376.196.816.333 1.014.614.353.475.905.895 1.026 1.381.194.738.381 1.486.655 2.212.199.537.435.94.989 1.207.584.287.861.468 1.25.991.17.232.352.466.582.664l.081-.095-.12-.035a1.24 1.24 0 0 0-.049.345c0 .143.024.284.07.42.19.545.615.92.868 1.347l.107-.064.04-.118c-.338-.114-.674-.204-.944-.389a.654.654 0 0 0-.374-.105c-.319.002-.648.155-.897.223l-.814.229.846.017c.098.002.197.003.295.003.295 0 .589-.007.882-.014l-.003-.125-.069.104c.333.219.635.487.894.791.26.305.478.646.648 1.01l.113-.053-.099-.076c-.273.359-.557.711-.837 1.067l-.087.11.119.074c.258.159.515.317.771.478l.118.074.061-.125c.074-.151.139-.349.222-.502.085-.159.173-.24.256-.237.275-.005.545-.024.809-.024.1 0 .2.003.299.01.678.05 1.352.452 1.476 1.131.027.142.042.334.042.543.004.549-.115 1.231-.331 1.492a8.045 8.045 0 0 0-.809 1.207l.11.059.01-.125-.081-.003c-.431.003-.769.25-1.079.428l.104.226.664-.233-.042-.118-.126.001v.009a.77.77 0 0 1-.279.617c-.173.149-.42.25-.683.313l-.412.1.401.14c.499.174 1.032.324 1.576.324.246 0 .495-.031.742-.105l-.036-.12-.125.004c.009.241.015.482.021.724v.004c.006.064-.071.156-.217.248-.141.092-.319.173-.449.271-.338.26-.502.473-.851.642a9.937 9.937 0 0 0-1.026.577l-.227.06c-.212.004-.493-.117-.794-.127l-.082-.001c-.366 0-.723.052-1.073.098-.246.032-.468.05-.68.05-.417 0-.791-.07-1.234-.255l-.806-.338.679.55c.278.225.574.417.861.613l.07-.103-.098-.078c-.146.183-.287.369-.426.556l.1.075.08-.096c-.165-.136-.313-.295-.482-.427-.168-.131-.367-.237-.615-.236l-.126.009-.527.07-.1.014-.008.101c-.013.175-.025.349-.035.523l.125.007.026-.122a33.053 33.053 0 0 0-1.185-.23l-.167-.029.022.168.052.401.124-.016.077-.099a17.796 17.796 0 0 0-.933-.681.56.56 0 0 0-.318-.095c-.357.006-.699.259-.949.376-.22.108-.354.166-.449.297-.091.136-.093.28-.104.511-.011.388-.3.67-.554 1.063l.106.067.085-.092c-.465-.435-.858-.658-1.531-.686l-.134-.003c-.631 0-1.252.218-1.701.692l.091.086.118-.041-.127-.364-.287-.824.044.872.003.111c0 .367-.092.727-.289 1.032l.105.068.093-.084c-.116-.128-.213-.27-.328-.389-.112-.118-.259-.222-.452-.221a.737.737 0 0 0-.275.059.823.823 0 0 1-.292.078l-.118-.024-.05.114.125-.002v-.007c.002-.159.076-.262.225-.347.293-.166.689-.21 1.003-.51.398-.393.565-.83.949-1.143.183-.151.361-.308.534-.469.295-.279.242-.609.288-.903l.054-.103c.041-.028.158-.034.296-.058a.515.515 0 0 0 .396-.303.672.672 0 0 0 .056-.281c0-.091-.014-.178-.032-.258l-.122.028.041.118c.292-.102.604-.144.918-.146h.017c.627-.001 1.26.144 1.921.163l.124.003.004-.124c.005-.159-.003-.282.012-.378a.451.451 0 0 1 .133-.267c.317-.339.633-.686.911-1.067l.396-.542-.565.364c-.359.231-.752.396-1.134.633-.182.114-.315.232-.426.313-.113.082-.194.122-.29.122-.084 0-.197-.032-.363-.134a2.218 2.218 0 0 1-.44-.367l-.188-.203a.337.337 0 0 0-.239-.103.85.85 0 0 0-.271.062 1.411 1.411 0 0 1-.437.101c-.149-.006-.244-.041-.338-.226l-.113.054.015.124.658-.079.528-.063-.501-.179c-.326-.115-.658-.275-1.036-.331l-.033-.005-.031.012c-.44.17-.852.381-1.274.546l.046.116.123-.022-.09-.491-.021-.119-.119.017-.562.076.017.124.088.089c.198-.196.39-.393.589-.58l.174-.163-.233-.05c-.24-.051-.48-.108-.722-.163l-.028.117.075.1c.789-.595 1.812-.839 2.673-1.442.41-.286.536-.712.534-1.134-.001-.54-.184-1.111-.231-1.551l-.018-.167-.155.066c-.486.207-.971.409-1.473.531l.029.122.096.08c.349-.416.78-.772 1.173-1.182l.09-.094-.098-.086c-.199-.176-.4-.349-.602-.52l-.001-.001.001.001c-.123-.106-.128-.141-.127-.157-.006-.026.042-.125.101-.298.05-.128.075-.127.135-.134.09-.005.269.089.429.209.165.119.308.249.417.312a.82.82 0 0 0 .408.099c.354-.003.709-.16.979-.198.096-.014.192-.024.285-.024.164 0 .316.028.455.105l.034.019.038-.004c.22-.021.443-.028.667-.028l.187.002.347.006-.263-.226c-.242-.207-.484-.404-.641-.651a.414.414 0 0 1-.077-.221c-.012-.172.215-.364.466-.605l.191-.192-.27-.021-.466-.034-.01.125.119.039c.188-.566.377-1.137.513-1.725l.066-.286-.252.15c-.293.175-.576.364-.85.564l.074.101.117-.043a5.656 5.656 0 0 0-.558-1.11 8.277 8.277 0 0 0-.426-.603l-.099.076.116.046c.058-.149.108-.298.157-.444.098-.288.21-.585.374-.811.165-.227.367-.382.675-.421l-.013-.249c-.239-.005-.481-.02-.725-.032l-.053-.001a.583.583 0 0 0-.367.109c-.09.066-.155.138-.263.218a8.88 8.88 0 0 1-.591.39l-.142.047c-.135.013-.325-.186-.57-.362l-.174-.119-.021.21c-.023.231-.043.462-.066.692l.124.013.029-.122c-.447-.099-.779-.514-1.261-.758l-.212-.105.033.234c.044.313.091.626.142.939l.123-.02.103-.071c-.102-.153-.267-.343-.406-.538-.141-.192-.244-.393-.24-.51l.024-.094c.275-.441.485-.908.73-1.345.104-.187.215-.369.338-.54.066-.093.108-.174.109-.269 0-.11-.064-.186-.119-.24l-.185-.18c-.099-.108-.177-.174-.217-.229-.04-.055-.058-.092-.06-.201l.001-.045c.017-.292.037-.584.063-.873l-.125-.011-.011.125c.189.016.377.034.566.053l.389.04-.294-.258a10.83 10.83 0 0 1-.532-.494l-.17-.17-.041.237c-.083.481-.247.956-.342 1.46l.123.023.091-.086c-.112-.118-.278-.25-.414-.391-.138-.139-.23-.285-.225-.375l.002-.024c.055-.417.443-.745.771-1.084l.816-.856-.977.667a8.51 8.51 0 0 1-.557.35.728.728 0 0 0-.339.408c-.055.159-.067.326-.08.496-.012.159-.132.995-.133 1.354l.007.116.07.131.121.083.063-.133c.113-.239.226-.478.34-.715l-.113-.054-.047.116c.173.072.24.212.285.421.043.206.043.453.1.669l.121-.033.025-.123c-.159-.028-.491-.198-.76-.203-.118-.007-.273.056-.319.206-.083.255-.131.371-.182.411-.045.045-.155.077-.419.115l.019.124.121.032c.104-.396.187-.81.187-1.231 0-.146-.01-.292-.032-.439l-.124.019-.012.124.285.027.171.017-.037-.168a2.978 2.978 0 0 1-.069-.647c0-.435.087-.854.161-1.345.097-.649.304-1.283.815-1.673l-.135-.209c-.205.11-.46.245-.671.42-.209.173-.388.398-.389.688l.027.195.001.003h.004l-.004-.002v.002h.004l-.004-.002-.102.067c-.223.097-.718.14-1.087.138a2.8 2.8 0 0 1-.431-.025l-.025.122.063.108c.275-.16.546-.322.82-.481l.127-.074-.093-.113c-.189-.23-.376-.459-.558-.692l-.099.077.018.124c.169-.026.288-.023.403-.059l.158-.119.047-.205a2.44 2.44 0 0 0-.753-1.652l-.084.092v.125c.191.001.338.08.481.208.142.128.269.302.402.465l.097-.079.053-.113-.359-.167-.205-.096.029.225c.018.136.03.32.068.48l.09.224a.272.272 0 0 0 .227.127c.145-.005.262-.092.413-.25.215-.23.27-.519.318-.781.047-.266.09-.51.225-.688l-.186-.166-.751.716.086.09.119.037c.062-.201.119-.401.181-.599l.06-.192-.199.032-.171.013c-.265-.001-.504-.099-.643-.319a.91.91 0 0 1-.13-.4l-.011-.108-.109-.004-.599-.023-.005.125.118.041c.094-.271.193-.541.297-.809l-.116-.046-.052.113c.164.076.33.148.492.222l.145.066.029-.157c.053-.281.103-.562.159-.841L11 5.747l-.074.101c.337.246.436.669.459 1.11.017.338.222.497.382.696l.227.112c.16-.006.276-.101.39-.192.111-.094.217-.199.286-.249l.374-.275-.462.05c-.184.02-.366.044-.548.067l.016.124.124.012.003-.058c-.007-.25-.129-.441-.123-.588l.006-.063c.01-.062.073-.103.185-.129l.114-.025-.017-.115a60.697 60.697 0 0 0-.161-1.04l-.123.02.016.124c.339-.044.679-.083 1.019-.114l.152-.014-.044-.146c-.059-.195-.115-.39-.173-.586l-.119.031.064.107c.196-.118.239-.327.252-.487a.987.987 0 0 1 .043-.267l.086-.052.111.017.155.041.001-.16c.007-.551.066-.807.324-1.272l-.219-.122zM9.425 3.904l-.002.098c0 .285.039.57.124.845l.023.133-.086.185c-.061.066-.161.142-.271.248-.363.352-.802.639-1.177 1.037l.165.186.648-.476-.074-.101-.125.001c.003.348.024.704.024 1.054 0 .624-.069 1.221-.411 1.725l.194.157c.248-.258.47-.532.697-.798l.024-.028.004-.038c.036-.304.068-.607.118-.904.088-.558.23-1.264.65-1.566a46.2 46.2 0 0 0 .936-.714.495.495 0 0 0 .22-.434l-.001-.077.026-.203a.555.555 0 0 1 .36-.369l.085-.031-.003-.09c-.012-.351-.022-.7-.027-1.051l-.003-.238-.193.136c-.611.433-1.194.895-1.854 1.205l.106.226c.695-.326 1.289-.8 1.892-1.227l-.072-.102-.125.002c.005.353.014.704.027 1.056l.125-.004-.043-.117a.806.806 0 0 0-.514.535.958.958 0 0 0-.036.272l.001.077c-.008.108.008.122-.124.238l-.001.001.001-.001c-.307.241-.618.477-.931.71-.533.401-.653 1.167-.748 1.725-.052.307-.084.613-.12.916l.124.015-.095-.082c-.229.269-.448.539-.687.787l.09.087.104.07c.387-.57.454-1.226.454-1.865 0-.36-.022-.717-.024-1.056l-.002-.245-.197.144c-.216.159-.433.317-.649.477l.074.1.091.086c.348-.37.783-.656 1.17-1.029.097-.094.195-.167.279-.256a.5.5 0 0 0 .154-.356l-.034-.206a2.647 2.647 0 0 1-.113-.772l.001-.09-.249-.008zm.992 8.979c-.07.254-.136.51-.196.767l-.072.302.261-.168.533-.345-.068-.105-.123-.021-.128.743-.042.241.22-.108c.984-.491 1.161-1.648 1.618-2.413l.388-.665-.578.509c-.545.482-1.04 1.032-1.719 1.174l.052.244c.783-.171 1.302-.769 1.831-1.231l-.082-.094-.108-.063c-.479.838-.67 1.914-1.512 2.315l.055.112.123.021.128-.744.048-.281-.239.155-.533.344.068.105.122.029c.06-.254.125-.507.194-.758l-.241-.065zm.744 2.432l-.078-.441-.123.023-.114.051c.21.472.388.97.63 1.447l.001.001-.001-.001c.139.273.301.539.497.781l.097-.079-.105-.067c-.148.233-.315.459-.473.698l-.331.502.504-.328c.196-.128.392-.255.588-.385l-.069-.104-.084.093c.152.134.261.319.313.518.024.09.037.186.037.282-.001.3-.121.582-.371.725-.116.066-.181.066-.283.099-.108.031-.214.125-.287.296-.069.149-.138.296-.211.441l.112.056.041-.118a2.863 2.863 0 0 0-.759-.156l-.14-.004c-.125 0-.25.01-.374.03l-.121.012-.075-.036c-.025-.047-.054-.163-.128-.31-.192-.376-.411-.73-.612-1.09l-.095-.171-.115.159c-.155.217-.273.494-.421.717-.149.226-.31.383-.543.412h-.002.002l-.048.003c-.225.007-.525-.22-.781-.527a5.342 5.342 0 0 1-.596-.895l-.111.058.009.125.963-.066.175-.012-.069-.162c-.108-.254-.221-.503-.327-.753l-.114.051-.01.125.1.004c.41.001.749-.218.967-.553.096-.148.17-.304.235-.458.062-.155.097-.219.105-.218 0-.006.056-.023.224-.027.249-.009.416-.127.546-.235.134-.11.244-.211.423-.265.393-.12.835-.078 1.286-.1l-.013-.25c-.424.023-.887-.026-1.345.11-.238.072-.385.21-.509.311-.128.103-.222.17-.399.179-.162.009-.262.003-.368.08-.097.083-.117.173-.181.319-.062.147-.13.289-.214.419v-.001c-.187.28-.439.439-.758.44l-.08-.003-.206-.017.081.191c.108.254.221.503.328.753l.115-.049-.009-.125-.963.066-.191.013.09.17c.125.237.35.615.626.94.277.322.598.608.972.615l.08-.005c.34-.043.56-.276.721-.523.162-.249.283-.527.415-.709l-.102-.073-.109.061c.205.365.421.717.607 1.081.063.123.082.214.126.306.036.098.165.187.299.176l.16-.015a2.08 2.08 0 0 1 .334-.027l.126.004c.234.014.467.065.692.143l.104.036.049-.098c.074-.148.145-.298.214-.448.072-.145.091-.143.139-.164.053-.019.175-.031.329-.119.348-.2.498-.579.497-.942a1.34 1.34 0 0 0-.435-.988l-.072-.063-.08.053c-.194.129-.39.256-.586.384l.068.105.104.069c.153-.232.321-.459.475-.701l.048-.076-.057-.07a4.226 4.226 0 0 1-.469-.737c-.233-.458-.409-.951-.624-1.435l-.426-.96.189 1.033c.027.145.052.293.078.439l.246-.046zm-1.005 1.968c-.035.308-.062.618-.086.926l-.014.176.17-.045a.843.843 0 0 0 .514-.403c.108-.18.17-.382.228-.562l.049-.152-.159-.011-.57-.039-.017.249.57.039.009-.125-.119-.038a2.469 2.469 0 0 1-.204.509.59.59 0 0 1-.364.291l.032.121.125.01c.024-.307.05-.613.085-.917l-.249-.029zm4.826 1.183l-.085-.091c-.466.438-.942.989-.944 1.719l.001.041.005.197.176-.088c.5-.254 1.081-.701 1.09-1.335a1.07 1.07 0 0 0-.131-.5l-.077-.145-.119.112.084.09-.111.058a.806.806 0 0 1 .102.383c.009.455-.48.879-.952 1.112l.056.112.125-.003v-.034c-.002-.609.409-1.11.865-1.536l-.085-.092-.111.058.111-.058z"/></svg>